<?xml version="1.0" encoding="UTF-8" standalone="no"?>
<svg
   version="1.1"
   viewBox="0 0 630.35997 170.08999"
   id="svg3"
   sodipodi:docname="logo_crepuscule.svg"
   width="630.35999"
   height="170.09"
   inkscape:version="1.3 (0e150ed6c4, 2023-07-21)"
   xmlns:inkscape="http://www.inkscape.org/namespaces/inkscape"
   xmlns:sodipodi="http://sodipodi.sourceforge.net/DTD/sodipodi-0.dtd"
   xmlns="http://www.w3.org/2000/svg"
   xmlns:svg="http://www.w3.org/2000/svg">
  <sodipodi:namedview
     id="namedview3"
     pagecolor="#505050"
     bordercolor="#eeeeee"
     borderopacity="1"
     inkscape:showpageshadow="0"
     inkscape:pageopacity="0"
     inkscape:pagecheckerboard="0"
     inkscape:deskcolor="#505050"
     inkscape:zoom="1.3657438"
     inkscape:cx="315.57896"
     inkscape:cy="85.301505"
     inkscape:window-width="1920"
     inkscape:window-height="1009"
     inkscape:window-x="-8"
     inkscape:window-y="-8"
     inkscape:window-maximized="1"
     inkscape:current-layer="svg3" />
  <defs
     id="defs1">
    <style
       id="style1">&#10;      .cls-1 {&#10;        fill: #fff;&#10;      }&#10;    </style>
  </defs>
  <!-- Generator: Adobe Illustrator 28.7.1, SVG Export Plug-In . SVG Version: 1.2.0 Build 142)  -->
  <g
     id="g3"
     transform="translate(-105.76,-212.6)">
    <g
       id="Calque_1">
      <g
         id="g2">
        <path
           class="cls-1"
           d="m 280.65,348.05 h 5.13 l 5.56,15.14 5.51,-15.14 h 5.13 v 33.86 h -5.13 v -18.92 l -2.8,7.65 h -5.47 l -2.81,-7.65 v 18.92 h -5.13 v -33.86 z m 37.41,34.63 c -5.56,0 -9.04,-3.1 -9.04,-7.98 v -26.65 h 5.13 v 26.65 c 0,2.22 1.21,3.24 3.92,3.24 2.71,0 3.92,-1.02 3.92,-3.24 v -26.65 h 5.13 v 26.65 c 0,4.89 -3.48,7.98 -9.04,7.98 z m 23.67,-15.58 -3.1,-1.35 c -4.31,-1.89 -5.95,-4.21 -5.95,-8.57 v -1.93 c 0,-4.88 3.48,-7.98 9.05,-7.98 5.57,0 9.04,3.1 9.04,7.98 v 4.01 h -5.13 v -4.01 c 0,-2.22 -1.21,-3.24 -3.92,-3.24 -2.71,0 -3.92,1.02 -3.92,3.24 v 1.93 c 0,2.47 0.83,3.48 3.92,4.84 l 3.1,1.35 c 4.3,1.89 5.95,4.21 5.95,8.57 v 2.76 c 0,4.89 -3.48,7.98 -9.04,7.98 -5.56,0 -9.05,-3.1 -9.05,-7.98 v -4.01 h 5.13 v 4.01 c 0,2.22 1.21,3.24 3.92,3.24 2.71,0 3.92,-1.02 3.92,-3.24 v -2.76 c 0,-2.47 -0.82,-3.48 -3.92,-4.84 z m 15.11,-19.05 h 5.12 v 33.86 h -5.12 z m 20.71,29.89 c 2.71,0 3.92,-1.02 3.92,-3.24 v -4.01 h 5.12 v 4.01 c 0,4.89 -3.48,7.98 -9.04,7.98 -5.56,0 -9.04,-3.1 -9.04,-7.98 v -19.45 c 0,-4.88 3.48,-7.98 9.04,-7.98 5.56,0 9.04,3.1 9.04,7.98 v 4.01 h -5.12 v -4.01 c 0,-2.22 -1.21,-3.24 -3.92,-3.24 -2.71,0 -3.92,1.02 -3.92,3.24 v 19.45 c 0,2.22 1.21,3.24 3.92,3.24 z m 29.44,-29.89 h 15.53 v 4.74 h -10.4 v 6.53 h 7.83 v 4.74 h -7.83 v 17.85 h -5.13 z m 34.93,0 v 4.74 h -10.4 v 6.53 h 7.83 v 4.74 h -7.83 v 9.87 c 0,2.22 1.21,3.24 3.92,3.24 h 6.48 v 4.74 h -6.48 c -5.56,0 -9.04,-3.1 -9.04,-7.98 v -25.88 h 15.53 z m 12.45,19.06 -3.1,-1.35 c -4.3,-1.89 -5.95,-4.21 -5.95,-8.57 v -1.93 c 0,-4.89 3.48,-7.98 9.04,-7.98 5.56,0 9.04,3.1 9.04,7.98 v 4.02 h -5.13 v -4.02 c 0,-2.22 -1.21,-3.24 -3.92,-3.24 -2.71,0 -3.92,1.02 -3.92,3.24 v 1.93 c 0,2.47 0.82,3.48 3.92,4.84 l 3.1,1.35 c 4.31,1.89 5.95,4.21 5.95,8.57 v 2.76 c 0,4.89 -3.48,7.98 -9.04,7.98 -5.56,0 -9.04,-3.1 -9.04,-7.98 v -4.01 h 5.13 v 4.01 c 0,2.22 1.21,3.24 3.92,3.24 2.71,0 3.92,-1.02 3.92,-3.24 v -2.76 c 0,-2.47 -0.82,-3.48 -3.92,-4.84 z m 18.01,-14.32 h -7.01 v -4.74 h 19.16 v 4.74 h -7.01 v 29.12 h -5.13 v -29.12 z m 16.02,-4.74 h 5.13 v 33.86 h -5.13 z m 10.46,22.49 v -22.5 h 5.13 v 22.11 c 0,2.47 0.82,3.48 3.92,4.83 l 3.92,1.74 v -28.69 h 5.13 v 33.86 h -5.13 l -7.01,-3.19 c -4.16,-1.88 -5.95,-4.06 -5.95,-8.17 z m 32.47,-23.27 c -5.56,0 -9.05,3.1 -9.05,7.98 v 26.66 h 5.12 v -17.85 h 7.84 v 17.85 h 5.13 v -26.66 c 0,-4.89 -3.48,-7.98 -9.04,-7.98 z m 3.92,12.05 h -7.84 v -4.07 c 0,-2.22 1.21,-3.24 3.92,-3.24 2.71,0 3.92,1.02 3.92,3.24 z m 10.46,-11.27 h 5.13 v 29.12 h 10.4 v 4.74 h -15.53 z"
           id="path1" />
        <path
           class="cls-1"
           d="m 268,229.57 h 19.32 V 243.7 H 268 c -16.58,0 -26.97,-9.23 -26.97,-23.79 v -4.05 h 15.29 v 4.05 c 0,6.63 3.6,9.66 11.68,9.66 z m -146.95,64.79 v -57.97 c 0,-6.63 3.6,-9.66 11.68,-9.66 8.08,0 11.68,3.03 11.68,9.66 v 11.97 h 15.28 v -11.97 c 0,-14.56 -10.38,-23.79 -26.96,-23.79 -16.58,0 -26.97,9.23 -26.97,23.79 v 57.97 c 0,14.57 10.38,23.8 26.97,23.8 16.59,0 26.96,-9.23 26.96,-23.8 v -11.97 h -15.28 v 11.97 c 0,6.64 -3.6,9.66 -11.68,9.66 -8.08,0 -11.68,-3.03 -11.68,-9.66 z m 107,22.45 v -13.99 c 0,-12.98 -4.9,-19.9 -17.74,-25.52 l -2.74,-1.15 1.3,-0.58 c 12.69,-5.62 17.74,-12.55 17.74,-25.53 v -10.38 c 0,-14.57 -10.38,-23.79 -26.97,-23.79 h -25.52 v 100.94 h 15.28 v -33.6 l 11.68,5.19 c 9.23,4.04 11.68,7.07 11.68,14.42 v 13.99 h 15.28 z M 189.4,269.08 V 230 h 10.24 c 8.07,0 11.68,3.03 11.68,9.66 v 10.38 c 0,7.35 -2.45,10.24 -11.68,14.42 l -10.24,4.61 z m 110.91,47.73 h 15.28 v -32.59 l 20.91,-9.23 c 12.83,-5.62 17.74,-12.55 17.74,-25.52 v -9.81 c 0,-14.57 -10.38,-23.79 -26.97,-23.79 h -26.96 z m 38.65,-77.15 v 9.81 c 0,7.35 -2.45,10.38 -11.68,14.42 l -11.68,5.19 V 230 h 11.68 c 8.08,0 11.68,3.03 11.68,9.66 z m 82.2,55.66 v -79.46 h -15.29 v 79.46 c 0,6.64 -3.6,9.66 -11.68,9.66 -8.08,0 -11.68,-3.03 -11.68,-9.66 v -79.46 h -15.29 v 79.46 c 0,14.57 10.38,23.8 26.97,23.8 16.59,0 26.97,-9.23 26.97,-23.8 z m 50.19,-8.22 v 8.22 c 0,6.64 -3.6,9.66 -11.68,9.66 -8.08,0 -11.68,-3.03 -11.68,-9.66 V 283.35 H 432.7 v 11.97 c 0,14.57 10.38,23.8 26.97,23.8 16.59,0 26.96,-9.23 26.96,-23.8 v -8.22 c 0,-12.98 -4.9,-19.9 -17.74,-25.53 l -9.23,-4.04 c -9.23,-4.04 -11.68,-7.07 -11.68,-14.42 v -5.77 c 0,-6.63 3.6,-9.66 11.68,-9.66 8.08,0 11.68,3.03 11.68,9.66 v 11.97 h 15.29 v -11.97 c 0,-14.56 -10.38,-23.79 -26.96,-23.79 -16.58,0 -26.97,9.23 -26.97,23.79 v 5.77 c 0,12.98 4.9,19.9 17.74,25.52 l 9.23,4.04 c 9.23,4.03 11.68,7.07 11.68,14.42 z m 42.11,8.22 v -57.97 c 0,-6.63 3.6,-9.66 11.68,-9.66 8.08,0 11.68,3.03 11.68,9.66 v 11.97 h 15.29 v -11.97 c 0,-14.56 -10.38,-23.79 -26.96,-23.79 -16.58,0 -26.97,9.23 -26.97,23.79 v 57.97 c 0,14.57 10.38,23.8 26.97,23.8 16.59,0 26.96,-9.23 26.96,-23.8 v -11.97 h -15.29 v 11.97 c 0,6.64 -3.6,9.66 -11.68,9.66 -8.08,0 -11.68,-3.03 -11.68,-9.66 z m 121.43,21.49 h 46.29 v -14.13 h -31 v -86.81 h -15.29 z m 54.95,-100.95 v 77.15 c 0,14.56 10.38,23.79 26.96,23.79 h 19.32 V 302.67 H 716.8 c -8.07,0 -11.68,-3.03 -11.68,-9.66 v -29.42 h 23.36 v -14.13 h -23.36 v -19.47 h 31 V 215.86 H 689.83 Z M 580.38,316.81 v -27.85 h -15.29 v 27.85 z m 38.64,0 v -27.85 h -15.29 v 27.85 z m -362.7,0 v -13 h 23.36 v -14.13 h -23.36 v -19.47 h 31 v -14.13 h -46.29 v 60.74 h 15.29 z M 603.74,215.86 v 36.98 c 0,6.64 -3.6,9.66 -11.68,9.66 -8.08,0 -11.68,-3.03 -11.68,-9.66 v -36.98 h -15.29 v 36.98 c 0,14.57 10.38,23.8 26.96,23.8 16.58,0 26.97,-9.23 26.97,-23.8 v -36.98 h -15.29 z"
           id="path2" />
      </g>
    </g>
  </g>
</svg>
