<?xml version="1.0" encoding="UTF-8" standalone="no"?>
<!-- Created with Inkscape (http://www.inkscape.org/) -->

<svg
   width="66.145836mm"
   height="66.145836mm"
   viewBox="0 0 66.145836 66.145836"
   version="1.1"
   id="svg1"
   inkscape:version="1.3 (0e150ed6c4, 2023-07-21)"
   sodipodi:docname="menu-btn-centre.svg"
   xmlns:inkscape="http://www.inkscape.org/namespaces/inkscape"
   xmlns:sodipodi="http://sodipodi.sourceforge.net/DTD/sodipodi-0.dtd"
   xmlns:xlink="http://www.w3.org/1999/xlink"
   xmlns="http://www.w3.org/2000/svg"
   xmlns:svg="http://www.w3.org/2000/svg">
  <sodipodi:namedview
     id="namedview1"
     pagecolor="#505050"
     bordercolor="#eeeeee"
     borderopacity="1"
     inkscape:showpageshadow="0"
     inkscape:pageopacity="0"
     inkscape:pagecheckerboard="0"
     inkscape:deskcolor="#505050"
     inkscape:document-units="mm"
     inkscape:zoom="11.313709"
     inkscape:cx="131.9638"
     inkscape:cy="122.1085"
     inkscape:window-width="1920"
     inkscape:window-height="1009"
     inkscape:window-x="1912"
     inkscape:window-y="-8"
     inkscape:window-maximized="1"
     inkscape:current-layer="layer3" />
  <defs
     id="defs1">
    <linearGradient
       id="linearGradient14"
       inkscape:collect="always">
      <stop
         style="stop-color:#289d90;stop-opacity:0.60000002;"
         offset="0.39539006"
         id="stop13" />
      <stop
         style="stop-color:#287e77;stop-opacity:0;"
         offset="0.7978723"
         id="stop14" />
    </linearGradient>
    <linearGradient
       id="linearGradient10"
       inkscape:collect="always">
      <stop
         style="stop-color:#289d90;stop-opacity:0.60000002;"
         offset="0.4042553"
         id="stop12" />
      <stop
         style="stop-color:#287e77;stop-opacity:0;"
         offset="0.7978723"
         id="stop11" />
    </linearGradient>
    <linearGradient
       id="linearGradient9"
       inkscape:collect="always">
      <stop
         style="stop-color:#289d90;stop-opacity:1;"
         offset="0.26418439"
         id="stop8" />
      <stop
         style="stop-color:#28bbc2;stop-opacity:0;"
         offset="0.89184397"
         id="stop9" />
    </linearGradient>
    <linearGradient
       id="linearGradient7"
       inkscape:collect="always">
      <stop
         style="stop-color:#289d90;stop-opacity:1;"
         offset="0.26418439"
         id="stop6" />
      <stop
         style="stop-color:#28bbc2;stop-opacity:0;"
         offset="0.89184397"
         id="stop7" />
    </linearGradient>
    <linearGradient
       id="linearGradient3"
       inkscape:collect="always">
      <stop
         style="stop-color:#289d90;stop-opacity:1;"
         offset="0.26418439"
         id="stop4" />
      <stop
         style="stop-color:#28bbc2;stop-opacity:0;"
         offset="0.89184397"
         id="stop5" />
    </linearGradient>
    <linearGradient
       id="linearGradient40"
       inkscape:collect="always"
       inkscape:label="ombre">
      <stop
         style="stop-color:#28bbc0;stop-opacity:0;"
         offset="0.06564607"
         id="stop41" />
      <stop
         style="stop-color:#28bbb4;stop-opacity:0.5;"
         offset="0.15349133"
         id="stop45" />
      <stop
         style="stop-color:#28bbb4;stop-opacity:1;"
         offset="0.29549387"
         id="stop46" />
      <stop
         style="stop-color:#28bbba;stop-opacity:1;"
         offset="0.59209412"
         id="stop10" />
      <stop
         style="stop-color:#28bbc0;stop-opacity:0.2;"
         offset="0.67060924"
         id="stop47" />
      <stop
         style="stop-color:#28bbc0;stop-opacity:0.5;"
         offset="0.71562552"
         id="stop49" />
      <stop
         style="stop-color:#28bbc0;stop-opacity:1;"
         offset="0.86639059"
         id="stop48" />
      <stop
         style="stop-color:#28bbc0;stop-opacity:0;"
         offset="0.99186993"
         id="stop42" />
    </linearGradient>
    <linearGradient
       id="linearGradient33"
       inkscape:collect="always">
      <stop
         style="stop-color:#0682fb;stop-opacity:1;"
         offset="0.2099334"
         id="stop37" />
      <stop
         style="stop-color:#06c0fb;stop-opacity:1;"
         offset="0.30462399"
         id="stop1" />
      <stop
         style="stop-color:#feffff;stop-opacity:1;"
         offset="0.4720096"
         id="stop38" />
      <stop
         style="stop-color:#06c0fb;stop-opacity:1;"
         offset="0.60357386"
         id="stop39" />
      <stop
         style="stop-color:#0682fb;stop-opacity:1;"
         offset="0.73438984"
         id="stop2" />
      <stop
         style="stop-color:#06c0fb;stop-opacity:1;"
         offset="0.85919499"
         id="stop3" />
      <stop
         style="stop-color:#ffffff;stop-opacity:1;"
         offset="0.90775907"
         id="stop40" />
      <stop
         style="stop-color:#06c0fb;stop-opacity:1;"
         offset="0.97831976"
         id="stop34" />
    </linearGradient>
    <pattern
       patternUnits="userSpaceOnUse"
       width="60.000003"
       height="40"
       patternTransform="translate(149.99998,7.999998)"
       preserveAspectRatio="xMidYMid"
       id="pattern2">
      <rect
         style="fill:#fdfdfd;stroke-width:3.11797"
         id="rect2"
         width="61.903481"
         height="11.519026"
         x="5.0788412"
         y="-2.8797565"
         transform="matrix(0.87367698,0.48650646,-0.51361598,0.85802018,0,0)" />
    </pattern>
    <pattern
       patternUnits="userSpaceOnUse"
       width="60.000003"
       height="40"
       patternTransform="translate(149.99998,7.999998)"
       preserveAspectRatio="xMidYMid"
       id="pattern2-8">
      <rect
         style="fill:#fdfdfd;stroke-width:3.11797"
         id="rect2-8"
         width="61.903481"
         height="11.519026"
         x="5.0788412"
         y="-2.8797565"
         transform="matrix(0.87367698,0.48650646,-0.51361598,0.85802018,0,0)" />
    </pattern>
    <pattern
       patternUnits="userSpaceOnUse"
       width="60.000003"
       height="40"
       patternTransform="translate(149.99998,7.999998)"
       preserveAspectRatio="xMidYMid"
       id="pattern2-8-0">
      <rect
         style="fill:#fdfdfd;stroke-width:3.11797"
         id="rect2-8-0"
         width="61.903481"
         height="11.519026"
         x="5.0788412"
         y="-2.8797565"
         transform="matrix(0.87367698,0.48650646,-0.51361598,0.85802018,0,0)" />
    </pattern>
    <pattern
       patternUnits="userSpaceOnUse"
       width="60.000003"
       height="40"
       patternTransform="translate(149.99998,7.999998)"
       preserveAspectRatio="xMidYMid"
       id="pattern2-6">
      <rect
         style="fill:#fdfdfd;stroke-width:3.11797"
         id="rect2-2"
         width="61.903481"
         height="11.519026"
         x="5.0788412"
         y="-2.8797565"
         transform="matrix(0.87367698,0.48650646,-0.51361598,0.85802018,0,0)" />
    </pattern>
    <radialGradient
       inkscape:collect="always"
       xlink:href="#linearGradient33"
       id="radialGradient34"
       cx="33.072917"
       cy="33.072917"
       fx="33.072917"
       fy="33.072917"
       r="7.9375"
       gradientUnits="userSpaceOnUse" />
    <radialGradient
       inkscape:collect="always"
       xlink:href="#linearGradient40"
       id="radialGradient42"
       cx="43.127083"
       cy="35.189583"
       fx="43.127083"
       fy="35.189583"
       r="7.9375"
       gradientUnits="userSpaceOnUse"
       gradientTransform="matrix(1.0833334,0,0,1.0833334,-13.664627,-5.1235449)" />
    <radialGradient
       inkscape:collect="always"
       xlink:href="#linearGradient7"
       id="radialGradient5"
       cx="46.326305"
       cy="26.176306"
       fx="46.326305"
       fy="26.176306"
       r="0.79374999"
       gradientUnits="userSpaceOnUse"
       gradientTransform="translate(-15.105472,10.336194)" />
    <radialGradient
       inkscape:collect="always"
       xlink:href="#linearGradient3"
       id="radialGradient5-3"
       cx="46.326305"
       cy="26.176306"
       fx="46.326305"
       fy="26.176306"
       r="0.79374999"
       gradientUnits="userSpaceOnUse"
       gradientTransform="translate(-16.163808,9.0132802)" />
    <radialGradient
       inkscape:collect="always"
       xlink:href="#linearGradient9"
       id="radialGradient5-33"
       cx="46.326305"
       cy="26.176306"
       fx="46.326305"
       fy="26.176306"
       r="0.79374999"
       gradientUnits="userSpaceOnUse"
       gradientTransform="translate(-13.253391,10.336193)" />
    <radialGradient
       inkscape:collect="always"
       xlink:href="#linearGradient10"
       id="radialGradient12"
       cx="33.698212"
       cy="25.937569"
       fx="33.698212"
       fy="25.937569"
       r="0.50326693"
       gradientTransform="matrix(0.92606899,0,0,2.604822,2.5285499,-41.608647)"
       gradientUnits="userSpaceOnUse" />
    <radialGradient
       inkscape:collect="always"
       xlink:href="#linearGradient14"
       id="radialGradient12-9"
       cx="33.698212"
       cy="25.937569"
       fx="33.698212"
       fy="25.937569"
       r="0.50326693"
       gradientTransform="matrix(0.59226647,0.77905484,-3.5292948,1.3830951,107.84992,-30.467961)"
       gradientUnits="userSpaceOnUse" />
  </defs>
  <g
     inkscape:groupmode="layer"
     id="layer3"
     inkscape:label="centre">
    <path
       id="path30-8"
       style="display:inline;fill:url(#radialGradient42);fill-rule:evenodd;stroke:none;stroke-width:0.818951"
       d="m 33.014714,23.872852 c -2.722094,0.03254 -5.417546,1.299718 -7.089811,3.462468 -1.856007,2.280061 -2.453015,5.490045 -1.595445,8.298257 0.819014,2.75346 3.011483,5.039228 5.729008,5.97497 2.676113,0.939461 5.779163,0.543097 8.116766,-1.072232 2.384678,-1.595774 3.919418,-4.376747 3.98793,-7.248382 0.115925,-2.885931 -1.25739,-5.768406 -3.554014,-7.518558 L 33.014714,23.87285 Z"
       sodipodi:nodetypes="scccccccs" />
    <path
       id="path30"
       style="display:inline;fill:url(#radialGradient34);fill-rule:evenodd;stroke:none;stroke-width:0.755952"
       d="m 33.072917,25.135417 a 7.9375,7.9375 0 0 0 -7.9375,7.9375 7.9375,7.9375 0 0 0 7.9375,7.9375 7.9375,7.9375 0 0 0 7.9375,-7.9375 7.9375,7.9375 0 0 0 -6.614584,-7.824329 v 1.611788 c 1.202072,0.256573 2.323863,0.863853 3.183269,1.761133 0.710982,0.682584 1.221077,1.535358 1.52032,2.457731 l -3.765145,1.370459 0.120406,0.330212 -1.074353,0.391191 A 1.3229166,1.3229166 0 0 1 33.072917,34.395833 1.3229166,1.3229166 0 0 1 31.75,33.072917 1.3229166,1.3229166 0 0 1 33.072917,31.75 a 1.3229166,1.3229166 0 0 1 0.731738,0.222209 l 3.915523,-1.425236 A 5.2916665,5.2916665 0 0 0 33.072917,27.78125 v -1.0573 z M 31.75,26.863477 v 1.106909 a 5.2916665,5.2916665 0 0 0 -1.322917,0.559139 V 27.320813 C 30.849469,27.120667 31.291819,26.963071 31.75,26.863477 Z m -2.645833,1.291394 v 1.463993 a 5.2916665,5.2916665 0 0 0 -1.322917,3.454053 5.2916665,5.2916665 0 0 0 1.322917,3.486092 v 1.460376 c -1.557502,-1.268262 -2.500817,-3.291225 -2.355412,-5.321639 0.06034,-1.789625 0.990091,-3.434576 2.355412,-4.542875 z m 10.272241,4.231266 c 0.148742,1.390358 -0.148453,2.829114 -0.923458,4.015775 -1.419977,2.412561 -4.541165,3.592752 -7.204211,2.73265 -0.283286,-0.0775 -0.557221,-0.177876 -0.821656,-0.296623 v -1.182356 a 5.2916665,5.2916665 0 0 0 2.645834,0.709 5.2916665,5.2916665 0 0 0 5.291666,-5.291666 5.2916665,5.2916665 0 0 0 -0.01964,-0.311609 z M 30.1625,34.395833 a 0.79374999,0.79374999 0 0 1 0.79375,0.79375 0.79374999,0.79374999 0 0 1 -0.79375,0.79375 0.79374999,0.79374999 0 0 1 -0.79375,-0.79375 0.79374999,0.79374999 0 0 1 0.79375,-0.79375 z m 1.058333,1.322917 a 0.79374999,0.79374999 0 0 1 0.79375,0.79375 0.79374999,0.79374999 0 0 1 -0.79375,0.79375 0.79374999,0.79374999 0 0 1 -0.79375,-0.79375 0.79374999,0.79374999 0 0 1 0.79375,-0.79375 z m 1.852084,0 a 0.79374999,0.79374999 0 0 1 0.79375,0.79375 0.79374999,0.79374999 0 0 1 -0.79375,0.79375 0.79374999,0.79374999 0 0 1 -0.79375,-0.79375 0.79374999,0.79374999 0 0 1 0.79375,-0.79375 z" />
    <circle
       style="opacity:0.998081;fill:url(#radialGradient5);fill-rule:evenodd;stroke-width:0.881944"
       id="path3"
       cx="31.220833"
       cy="36.512501"
       r="0.79374999" />
    <circle
       style="opacity:0.998081;fill:url(#radialGradient5-3);fill-rule:evenodd;stroke-width:0.881944"
       id="path3-6"
       cx="30.1625"
       cy="35.189583"
       r="0.79374999" />
    <circle
       style="opacity:0.998081;fill:url(#radialGradient5-33);fill-rule:evenodd;stroke-width:0.881944"
       id="path3-4"
       cx="33.072918"
       cy="36.512501"
       r="0.79374999" />
    <path
       style="opacity:0.998081;fill:url(#radialGradient12);fill-rule:evenodd;stroke-width:0.667856"
       d="m 33.493258,24.727829 c 0.141674,-0.109208 0.356493,-0.116452 0.490046,0 0.490895,0.328237 0,2.457503 0,2.457503 -0.219867,0.115549 -0.307765,0.09654 -0.490046,0 -0.02526,-0.100159 -0.490895,-2.129266 0,-2.457503 z"
       id="path9"
       sodipodi:nodetypes="ccccc" />
    <path
       style="opacity:0.998081;fill:url(#radialGradient12-9);fill-rule:evenodd;stroke-width:0.812314"
       d="m 37.773568,30.804082 c 0.238572,0.0612 0.385776,0.238067 0.313404,0.41225 -0.130775,0.587249 -3.329688,1.304872 -3.329688,1.304872 -0.297175,-0.123608 -0.327639,-0.207643 -0.313409,-0.412252 0.119539,-0.07444 2.571008,-1.543552 3.329693,-1.30487 z"
       id="path9-1"
       sodipodi:nodetypes="ccccc" />
  </g>
</svg>
