<?xml version="1.0" encoding="UTF-8" standalone="no"?>
<!-- Created with Inkscape (http://www.inkscape.org/) -->

<svg
   width="73.548485mm"
   height="73.546928mm"
   viewBox="0 0 73.548485 73.546929"
   version="1.1"
   id="svg1"
   inkscape:version="1.3 (0e150ed6c4, 2023-07-21)"
   sodipodi:docname="menu-btn-cercle-ext.svg"
   xmlns:inkscape="http://www.inkscape.org/namespaces/inkscape"
   xmlns:sodipodi="http://sodipodi.sourceforge.net/DTD/sodipodi-0.dtd"
   xmlns:xlink="http://www.w3.org/1999/xlink"
   xmlns="http://www.w3.org/2000/svg"
   xmlns:svg="http://www.w3.org/2000/svg">
  <sodipodi:namedview
     id="namedview1"
     pagecolor="#505050"
     bordercolor="#eeeeee"
     borderopacity="1"
     inkscape:showpageshadow="0"
     inkscape:pageopacity="0"
     inkscape:pagecheckerboard="0"
     inkscape:deskcolor="#505050"
     inkscape:document-units="mm"
     inkscape:zoom="3.2519999"
     inkscape:cx="144.21895"
     inkscape:cy="144.9877"
     inkscape:window-width="1920"
     inkscape:window-height="1009"
     inkscape:window-x="1912"
     inkscape:window-y="-8"
     inkscape:window-maximized="1"
     inkscape:current-layer="layer2" />
  <defs
     id="defs1">
    <linearGradient
       id="linearGradient3"
       inkscape:collect="always"
       inkscape:label="neon">
      <stop
         style="stop-color:#0683fb;stop-opacity:1;"
         offset="0.85241133"
         id="stop1" />
      <stop
         style="stop-color:#06c0fb;stop-opacity:1;"
         offset="0.89716309"
         id="stop4" />
      <stop
         style="stop-color:#feffff;stop-opacity:1;"
         offset="0.92553186"
         id="stop2" />
      <stop
         style="stop-color:#06c0fb;stop-opacity:1;"
         offset="0.96985817"
         id="stop3" />
    </linearGradient>
    <linearGradient
       id="linearGradient17"
       inkscape:collect="always"
       inkscape:label="ombre">
      <stop
         style="stop-color:#28bbc2;stop-opacity:0;"
         offset="0.7393617"
         id="stop17" />
      <stop
         style="stop-color:#28bbc2;stop-opacity:0.1;"
         offset="0.75709218"
         id="stop20" />
      <stop
         style="stop-color:#28bbc2;stop-opacity:1;"
         offset="0.89273047"
         id="stop5" />
      <stop
         style="stop-color:#28bbc2;stop-opacity:0.00487803;"
         offset="1"
         id="stop18" />
    </linearGradient>
    <pattern
       patternUnits="userSpaceOnUse"
       width="60.000003"
       height="40"
       patternTransform="translate(149.99998,7.999998)"
       preserveAspectRatio="xMidYMid"
       id="pattern2">
      <rect
         style="fill:#fdfdfd;stroke-width:3.11797"
         id="rect2"
         width="61.903481"
         height="11.519026"
         x="5.0788412"
         y="-2.8797565"
         transform="matrix(0.87367698,0.48650646,-0.51361598,0.85802018,0,0)" />
    </pattern>
    <pattern
       patternUnits="userSpaceOnUse"
       width="60.000003"
       height="40"
       patternTransform="translate(149.99998,7.999998)"
       preserveAspectRatio="xMidYMid"
       id="pattern2-8">
      <rect
         style="fill:#fdfdfd;stroke-width:3.11797"
         id="rect2-8"
         width="61.903481"
         height="11.519026"
         x="5.0788412"
         y="-2.8797565"
         transform="matrix(0.87367698,0.48650646,-0.51361598,0.85802018,0,0)" />
    </pattern>
    <pattern
       patternUnits="userSpaceOnUse"
       width="60.000003"
       height="40"
       patternTransform="translate(149.99998,7.999998)"
       preserveAspectRatio="xMidYMid"
       id="pattern2-8-0">
      <rect
         style="fill:#fdfdfd;stroke-width:3.11797"
         id="rect2-8-0"
         width="61.903481"
         height="11.519026"
         x="5.0788412"
         y="-2.8797565"
         transform="matrix(0.87367698,0.48650646,-0.51361598,0.85802018,0,0)" />
    </pattern>
    <pattern
       patternUnits="userSpaceOnUse"
       width="60.000003"
       height="40"
       patternTransform="translate(149.99998,7.999998)"
       preserveAspectRatio="xMidYMid"
       id="pattern2-6">
      <rect
         style="fill:#fdfdfd;stroke-width:3.11797"
         id="rect2-2"
         width="61.903481"
         height="11.519026"
         x="5.0788412"
         y="-2.8797565"
         transform="matrix(0.87367698,0.48650646,-0.51361598,0.85802018,0,0)" />
    </pattern>
    <radialGradient
       inkscape:collect="always"
       xlink:href="#linearGradient3"
       id="radialGradient13"
       cx="134.9834"
       cy="137.17526"
       fx="134.9834"
       fy="137.17526"
       r="34.395836"
       gradientUnits="userSpaceOnUse" />
    <radialGradient
       inkscape:collect="always"
       xlink:href="#linearGradient17"
       id="radialGradient18"
       cx="134.98337"
       cy="137.17528"
       fx="134.98337"
       fy="137.17528"
       r="35.718723"
       gradientTransform="translate(0,-1.3535635e-4)"
       gradientUnits="userSpaceOnUse" />
  </defs>
  <g
     inkscape:groupmode="layer"
     id="layer2"
     inkscape:label="Layer 2"
     transform="translate(3.6984638,3.7013305)">
    <path
       id="path1-3"
       style="display:inline;fill:url(#radialGradient18);fill-rule:evenodd;stroke:none;stroke-width:0.839513"
       d="m 135.42058,100.40439 c -0.52945,-0.007 -1.05923,-0.003 -1.58853,0.0114 -2.62517,0.10017 -5.20994,0.60927 -7.79126,1.06299 -0.0878,0.48027 -0.21032,0.95468 -0.25942,1.44125 -2.97728,0.79266 -8.08449,2.02646 -8.51162,3.53002 -0.34503,1.21458 4.32135,5.62637 5.66425,5.66529 0.9653,0.028 2.16268,-0.89566 3.28094,-1.23455 l 0.0641,0.077 0.045,0.0537 c 0.83733,0.94751 2.25308,0.94831 3.35018,0.5178 2.98888,-0.64848 5.92718,-0.75588 8.97826,-0.34365 1.11398,0.11739 2.21332,0.46846 3.29954,0.63459 0.48037,0.12533 0.98219,0.41729 1.50327,0.52141 3.96209,1.32042 7.48486,3.71126 10.50169,6.56291 0.57737,0.5728 1.59381,0.59377 2.07067,-0.11938 2.43372,2.83296 4.19502,6.11689 5.27926,9.6914 -1.03646,0.67871 -1.0374,2.07651 -0.67334,3.13418 0.89258,4.0559 0.73894,8.22036 -0.29249,12.21579 -1.13156,4.64594 -3.81626,8.75501 -7.03264,12.23026 -0.43618,0.63994 -0.37723,1.54481 0.0785,2.15801 -2.02849,1.76645 -4.37707,3.21701 -6.87399,4.27467 -0.90835,0.36623 -1.9199,0.79995 -2.79983,0.97721 -0.74784,-0.99985 -2.16599,-1.09923 -3.24683,-0.65164 -5.39326,1.1965 -11.08285,0.57587 -16.13907,-1.66605 -3.05158,-1.37079 -5.7896,-3.37034 -8.215,-5.65185 -0.64543,-0.4352 -1.55843,-0.37912 -2.16886,0.0946 -0.98666,-1.13729 -1.91913,-3.74931 -2.63033,-3.64887 -1.29597,0.18303 -5.3681,4.21391 -5.46169,5.46168 -0.16114,2.14845 2.61642,3.44297 4.13877,4.96456 -0.35388,1.20531 0.33529,2.50138 1.41542,3.06751 3.63517,2.98438 7.86757,5.2094 12.29175,6.75876 0.74172,0.12201 1.50549,-0.20969 1.99988,-0.75964 0.35045,0.11636 0.30592,0.71995 0.64441,0.95084 0.72491,0.93434 1.96128,0.90101 3.00912,1.10175 4.46049,0.74756 9.06576,0.5624 13.47359,-0.40411 0.70698,-0.25858 1.29295,-0.89541 1.38855,-1.65623 6.01417,-1.57654 11.56333,-4.85427 15.93546,-9.26404 1.20782,0.3584 2.51505,-0.32673 3.08198,-1.41231 2.99009,-3.63358 5.20973,-7.87407 6.7598,-12.30055 0.11703,-0.73898 -0.21442,-1.49943 -0.76327,-1.99006 0.1348,-0.34303 0.7266,-0.31494 0.96635,-0.65422 1.05561,-0.8611 0.89307,-2.31482 1.15807,-3.51503 0.63185,-4.28982 0.581,-8.73139 -0.49764,-12.94236 -0.31193,-0.6465 -0.92357,-1.12715 -1.61334,-1.31207 -1.56186,-6.05373 -4.84933,-11.62942 -9.28729,-16.02176 0.35443,-1.2004 -0.32506,-2.49728 -1.39836,-3.06854 -3.61592,-3.00956 -7.83764,-5.26437 -12.25765,-6.82801 -0.76767,-0.11823 -1.55113,0.23994 -2.05104,0.81649 -0.29899,-0.1667 -0.27991,-0.73379 -0.59738,-0.98651 -0.8325,-1.07462 -2.28175,-0.95272 -3.48041,-1.17874 -1.57254,-0.22399 -3.15917,-0.34455 -4.74751,-0.36587 z m -21.09019,7.96179 c -1.30724,0.77516 -3.12968,2.42787 -4.51962,3.83698 -1.21247,-0.35726 -2.52596,0.32649 -3.09283,1.41903 -2.99519,3.67722 -5.29573,7.92979 -6.758762,12.43439 -0.07255,0.69628 0.242612,1.4007 0.765332,1.8557 -0.12717,0.33748 -0.71511,0.30478 -0.95085,0.63665 -0.872543,0.66891 -0.90998,1.80791 -1.062985,2.79518 -0.800371,4.54684 -0.610903,9.25576 0.379305,13.74955 0.27519,0.67792 0.898112,1.23928 1.64228,1.31671 0.72629,2.79676 2.56977,7.93876 3.25148,8.00416 1.17591,0.11281 5.13191,-3.9189 5.69371,-5.6937 0.29809,-0.94171 -0.72301,-1.83796 -1.00563,-2.78743 0.98009,-0.71896 1.14433,-2.11581 0.68988,-3.17965 -1.54094,-6.76358 -0.14756,-14.19448 3.68919,-19.9099 1.0465,-1.63484 2.33754,-3.09486 3.61321,-4.54287 0.37542,-0.65438 0.33269,-1.52466 -0.11162,-2.13476 1.00225,-0.87733 2.38794,-1.33366 3.20807,-2.36936 0.71628,-0.90455 -4.12292,-6.20584 -5.43016,-5.43068 z"
       sodipodi:nodetypes="zcccssccccccccccccccccccccssccccccccccccccccccccccszccccccccsscccccszc"
       transform="translate(-101.91048,-104.10236)" />
  </g>
  <g
     inkscape:groupmode="layer"
     id="layer1"
     inkscape:label="Layer 1"
     transform="translate(3.6984638,3.7013305)">
    <path
       id="path1"
       style="display:inline;fill:url(#radialGradient13);fill-rule:evenodd;stroke:none;stroke-width:0.84511"
       d="m 134.9834,102.77944 a 34.395832,34.395832 0 0 0 -6.61459,0.72399 v 1.26142 c -2.7625,0.56081 -5.39737,1.46964 -7.86205,2.67322 l 1.83245,1.83245 c 1.9037,-0.80836 3.91155,-1.45277 6.0296,-1.87534 v 1.50999 a 29.104166,29.104166 0 0 1 6.61459,-0.83406 29.104166,29.104166 0 0 1 6.61458,0.76946 v -1.44539 c 0.91525,0.1826 1.81467,0.39804 2.69183,0.65474 l -0.755,1.30845 a 29.104166,29.104166 0 0 1 11.26133,6.5071 l 0.87695,-1.51929 c 4.58532,4.12063 7.79179,9.70535 9.0904,16.21451 h -1.44539 a 29.104166,29.104166 0 0 1 0.76946,6.61459 29.104166,29.104166 0 0 1 -0.83405,6.61458 h 1.50998 c -0.18259,0.91525 -0.39804,1.81467 -0.65474,2.69183 l -1.32705,-0.76637 a 29.104166,29.104166 0 0 1 -6.53138,11.2479 l 1.56217,0.90175 c -4.12058,4.58532 -9.70534,7.79179 -16.21451,9.0904 v -1.50998 a 29.104166,29.104166 0 0 1 -6.61458,0.83405 29.104166,29.104166 0 0 1 -6.61459,-0.83405 v 1.50998 c -0.91525,-0.18259 -1.81467,-0.39804 -2.69182,-0.65474 l 0.76636,-1.32705 a 29.104166,29.104166 0 0 1 -11.24789,-6.53138 l -0.90176,1.56217 c -1.54617,-1.38947 -2.92023,-2.95843 -4.13256,-4.66018 l -1.64745,1.64745 c 1.36878,1.82359 2.9193,3.50326 4.62815,5.00796 l -0.678,1.17461 a 34.395832,34.395832 0 0 0 11.30319,6.43475 l 0.6351,-1.1002 c 1.28968,0.43542 2.61128,0.80179 3.96668,1.07694 v 1.26142 a 34.395832,34.395832 0 0 0 6.61459,0.72399 34.395832,34.395832 0 0 0 6.61458,-0.72399 v -1.26142 c 7.1954,-1.46071 13.53704,-5.26224 18.20974,-10.56886 l 1.17461,0.67799 a 34.395832,34.395832 0 0 0 6.43475,-11.30318 l -1.1002,-0.63511 c 0.43542,-1.28968 0.80179,-2.61128 1.07694,-3.96668 h 1.26142 a 34.395832,34.395832 0 0 0 0.72399,-6.61458 34.395832,34.395832 0 0 0 -0.64441,-6.61459 h -1.341 c -1.46071,-7.1954 -5.26224,-13.537 -10.56886,-18.20974 l 0.67282,-1.1653 a 34.395832,34.395832 0 0 0 -11.26184,-6.50606 l -0.67128,1.1622 c -1.28968,-0.43541 -2.61128,-0.80178 -3.96668,-1.07694 v -1.341 a 34.395832,34.395832 0 0 0 -6.61458,-0.64441 z m -20.23856,8.25118 c -1.66038,1.2884 -3.19832,2.72742 -4.58577,4.3031 l -1.1746,-0.678 a 34.395832,34.395832 0 0 0 -6.43475,11.30319 l 1.10019,0.6351 c -0.43541,1.28968 -0.80178,2.61128 -1.07694,3.96668 h -1.26142 a 34.395832,34.395832 0 0 0 -0.72399,6.61459 34.395832,34.395832 0 0 0 0.72399,6.61458 h 1.26142 c 0.52258,2.57418 1.34995,5.03628 2.43345,7.35459 l 1.85311,-1.85312 c -0.70311,-1.74783 -1.27255,-3.57832 -1.65623,-5.50147 h 1.50999 a 29.104166,29.104166 0 0 1 -0.83406,-6.61458 29.104166,29.104166 0 0 1 0.83406,-6.61459 h -1.50999 c 0.1826,-0.91525 0.39804,-1.81467 0.65474,-2.69182 l 1.32705,0.76636 a 29.104166,29.104166 0 0 1 6.53139,-11.24789 l -1.56218,-0.90176 c 1.27088,-1.41419 2.69613,-2.67943 4.22972,-3.81578 z"
       transform="translate(-101.91048,-104.10236)" />
  </g>
</svg>
