<?xml version="1.0" encoding="UTF-8" standalone="no"?>
<svg
   version="1.1"
   viewBox="0 0 186.9271 250.00001"
   id="svg40"
   sodipodi:docname="PartenaireCrepuscule_81e.svg"
   width="186.92709"
   height="250"
   inkscape:version="1.3 (0e150ed6c4, 2023-07-21)"
   xmlns:inkscape="http://www.inkscape.org/namespaces/inkscape"
   xmlns:sodipodi="http://sodipodi.sourceforge.net/DTD/sodipodi-0.dtd"
   xmlns="http://www.w3.org/2000/svg"
   xmlns:svg="http://www.w3.org/2000/svg">
  <sodipodi:namedview
     id="namedview40"
     pagecolor="#505050"
     bordercolor="#eeeeee"
     borderopacity="1"
     inkscape:showpageshadow="0"
     inkscape:pageopacity="0"
     inkscape:pagecheckerboard="0"
     inkscape:deskcolor="#505050"
     inkscape:zoom="2.8681296"
     inkscape:cx="79.842974"
     inkscape:cy="108.25871"
     inkscape:window-width="1920"
     inkscape:window-height="1009"
     inkscape:window-x="-8"
     inkscape:window-y="-8"
     inkscape:window-maximized="1"
     inkscape:current-layer="svg40" />
  <defs
     id="defs1">
    <style
       id="style1">&#10;      .cls-1 {&#10;        fill: #fff;&#10;      }&#10;    </style>
  </defs>
  <!-- Generator: Adobe Illustrator 28.7.1, SVG Export Plug-In . SVG Version: 1.2.0 Build 142)  -->
  <g
     id="g40"
     transform="matrix(1.1704752,0,0,1.1704752,-72.426805,-39.035348)">
    <g
       id="Calque_1">
      <g
         id="g39">
        <g
           id="g7">
          <path
             class="cls-1"
             d="m 72.74,237.99 c -0.01,2.29 0.67,3.24 3.38,1.67 1.76,-1.01 4.18,-2.65 6.32,-4.27 0.28,1.9 0.43,2.85 0.71,4.76 -2.43,1.95 -4.63,3.5 -7.07,4.91 -6.13,3.54 -8.81,1.81 -8.81,-2.96 0,-4.38 0,-6.57 0,-10.95 0,-4.77 2.77,-9.65 9.01,-13.25 2.49,-1.44 4.72,-2.44 7.17,-3.3 -0.34,2.26 -0.51,3.39 -0.84,5.65 -2.15,0.84 -4.59,2.01 -6.37,3.04 -2.74,1.58 -3.45,3.33 -3.46,5.62 -0.02,3.64 -0.03,5.45 -0.05,9.09 z"
             id="path1" />
          <path
             class="cls-1"
             d="m 100.21,230.76 c 0.06,-4.26 0.09,-6.39 0.15,-10.65 -3.14,1.8 -4.72,2.71 -7.88,4.53 -0.06,4.26 -0.09,6.39 -0.16,10.65 -2.2,1.27 -3.31,1.9 -5.51,3.17 0.14,-10.59 0.21,-15.86 0.36,-26.45 2.22,-1.28 3.34,-1.92 5.55,-3.19 -0.06,4.22 -0.09,6.32 -0.16,10.53 3.17,-1.82 4.75,-2.73 7.88,-4.53 0.06,-4.21 0.09,-6.31 0.15,-10.53 2.18,-1.25 3.27,-1.88 5.42,-3.12 -0.13,10.58 -0.19,15.85 -0.32,26.43 -2.18,1.25 -3.28,1.88 -5.48,3.14 z"
             id="path2" />
          <path
             class="cls-1"
             d="m 129.68,213.81 c -2.23,1.3 -3.33,1.94 -5.47,3.18 -0.5,-1.77 -0.74,-2.65 -1.23,-4.43 -3.03,1.75 -4.44,2.56 -7.62,4.38 -0.52,2.35 -0.78,3.53 -1.31,5.88 -2.24,1.28 -3.37,1.93 -5.63,3.23 2.54,-10.16 5.03,-20.33 7.41,-30.53 2.78,-1.6 4.03,-2.33 6.73,-3.89 2.76,8.94 4.19,13.35 7.12,22.18 z m -13.1,-2.5 c 2.16,-1.24 3.12,-1.79 5.18,-2.98 -1.02,-3.82 -1.53,-5.73 -2.52,-9.57 -1.01,4.99 -1.56,7.51 -2.66,12.54 z"
             id="path3" />
          <path
             class="cls-1"
             d="m 137.68,194.56 c -0.14,5.9 -0.21,8.84 -0.34,14.77 -2.15,1.26 -3.21,1.89 -5.32,3.11 0.39,-10.76 0.59,-16.08 0.98,-26.84 2.18,-1.26 3.29,-1.89 5.51,-3.18 2.39,5.32 3.6,7.93 6.02,13.17 2.4,-8.05 3.6,-12.04 6.01,-20.1 2.27,-1.31 3.4,-1.96 5.66,-3.27 0.44,10.22 0.66,15.2 1.1,25.42 -2.17,1.26 -3.27,1.9 -5.46,3.18 -0.16,-5.73 -0.24,-8.56 -0.41,-14.25 -1.74,5.45 -2.62,8.18 -4.36,13.66 -2.02,1.18 -3.04,1.78 -5.05,2.96 -1.75,-3.44 -2.62,-5.16 -4.35,-8.62 z"
             id="path4" />
          <path
             class="cls-1"
             d="m 171.87,189.29 c -3.77,2.14 -5.91,3.34 -10.11,5.77 -0.01,-10.47 -0.02,-15.55 -0.03,-26.02 3.9,-2.26 5.99,-3.46 9.45,-5.47 4.57,-2.65 6.45,-1.53 6.46,2.01 0,1.07 0,1.6 0,2.67 0,1.88 -0.75,3.65 -2.56,5.59 1.88,-0.57 3.41,0.43 3.41,2.87 0,1.02 0,1.53 0,2.55 0,3.7 -2.2,7.53 -6.61,10.03 z m 0.63,-19.88 c 0,-1.14 -0.61,-1.49 -1.98,-0.7 -1.21,0.7 -1.93,1.12 -3.28,1.89 0,2.38 0,3.57 0,5.94 1.35,-0.77 2.06,-1.19 3.28,-1.88 1.31,-0.75 1.98,-1.92 1.98,-2.98 0,-0.91 0,-1.36 0,-2.27 z m 0.81,10.42 c 0,-1.45 -0.78,-1.74 -2.1,-0.99 -1.5,0.86 -2.32,1.32 -3.96,2.27 0,2.42 0,3.63 0,6.06 1.34,-0.77 2.06,-1.18 3.27,-1.87 1.54,-0.87 2.79,-1.98 2.79,-3.86 0,-0.64 0,-0.96 0,-1.61 z"
             id="path5" />
          <path
             class="cls-1"
             d="m 190.62,170.41 c -1.32,0.76 -1.97,1.13 -3.27,1.88 0,3.27 0,4.9 0,8.19 -2.22,1.27 -3.32,1.9 -5.48,3.13 0,-10.56 -0.01,-15.69 -0.02,-26.25 3.99,-2.32 6.05,-3.53 10.21,-5.94 6.08,-3.53 8.38,-2.3 8.39,2.65 0,1.3 0,1.95 0,3.24 0,3.28 -1.13,6.15 -3.67,8.71 2.44,2.21 3.66,3.31 6.1,5.54 -2.69,1.54 -4.04,2.32 -6.73,3.86 -2.22,-2.02 -3.33,-3.02 -5.54,-5.03 z m 4.16,-12.52 c 0,-1.98 -0.72,-2.35 -3.01,-1.03 -1.78,1.03 -2.67,1.55 -4.43,2.57 0,3.1 0,4.64 0,7.73 1.76,-1.02 2.65,-1.53 4.43,-2.56 2.4,-1.38 3.01,-2.64 3.01,-4.62 0,-0.84 0,-1.26 0,-2.09 z"
             id="path6" />
          <path
             class="cls-1"
             d="m 205.9,169.84 c 0,-10.59 0,-15.8 -0.01,-26.39 6.31,-3.61 9.46,-5.4 15.37,-8.67 v 5.25 c -3.79,2.11 -5.76,3.23 -9.75,5.49 0,1.93 0,2.9 0,4.83 3.68,-2.1 5.5,-3.13 9.01,-5.1 0,2.1 0,3.14 0,5.24 -3.51,1.98 -5.33,3.02 -9.01,5.12 0,2.29 0,3.44 0,5.74 3.99,-2.28 5.96,-3.41 9.75,-5.56 v 5.25 c -5.9,3.38 -9.04,5.18 -15.35,8.8 z"
             id="path7" />
        </g>
        <g
           id="g9">
          <path
             class="cls-1"
             d="m 208.33,74.54 c -1.25,0 -1.65,0.7 -1.65,1.55 v 0.52 h 3.14 v -0.52 c 0,-0.85 -0.25,-1.55 -1.5,-1.55 z"
             id="path8" />
          <path
             class="cls-1"
             d="m 208.15,64.77 c -7.41,0 -13.43,6.01 -13.43,13.43 0,7.42 6.01,13.43 13.43,13.43 7.42,0 13.43,-6.01 13.43,-13.43 0,-7.42 -6.01,-13.43 -13.43,-13.43 z m 5.07,14.54 h -6.53 v 0.35 c 0,1.4 0.55,1.77 2.19,1.77 1.12,0 2.62,-0.2 3.69,-0.52 l 0.52,2.69 c -1.1,0.4 -2.87,0.77 -4.56,0.77 -3.94,0 -5.44,-1.94 -5.44,-4.94 v -2.84 c 0,-2.62 1.17,-4.86 5.21,-4.86 4.04,0 4.91,2.39 4.91,5.04 v 2.54 z"
             id="path9" />
        </g>
        <g
           id="g19">
          <path
             class="cls-1"
             d="m 164.7,205.12 c -0.48,0.28 -0.72,0.42 -1.19,0.69 0,0.83 0,1.24 0,2.1 -0.62,0.36 -0.93,0.54 -1.53,0.89 0,-2.82 0,-4.03 0,-6.86 1.09,-0.64 1.65,-0.97 2.78,-1.62 1.69,-0.98 2.34,-0.68 2.35,0.6 0,0.35 0,0.53 0,0.88 0.01,1.27 -0.73,2.34 -2.43,3.32 z m 0.83,-3.14 c 0,-0.49 -0.18,-0.61 -0.84,-0.23 -0.48,0.28 -0.71,0.41 -1.18,0.69 0,0.83 0,1.23 0,2.05 0.47,-0.27 0.71,-0.41 1.18,-0.69 0.69,-0.4 0.84,-0.74 0.84,-1.23 0,-0.24 0,-0.35 0,-0.59 z"
             id="path10" />
          <path
             class="cls-1"
             d="m 170.72,201.59 c -0.39,0.22 -0.58,0.33 -0.96,0.55 0.01,0.84 0.02,1.26 0.03,2.13 -0.66,0.38 -0.99,0.57 -1.64,0.95 -0.03,-2.81 -0.04,-4.02 -0.07,-6.83 1.19,-0.69 1.78,-1.03 2.98,-1.73 1.75,-1.01 2.42,-0.72 2.45,0.55 0,0.33 0.01,0.5 0.02,0.83 0.02,0.84 -0.29,1.59 -1.02,2.29 0.73,0.52 1.09,0.78 1.81,1.33 -0.78,0.45 -1.17,0.67 -1.95,1.12 -0.66,-0.5 -1,-0.73 -1.66,-1.2 z m 1.16,-3.28 c -0.01,-0.51 -0.22,-0.59 -0.88,-0.21 -0.52,0.3 -0.78,0.45 -1.29,0.75 0.01,0.8 0.02,1.2 0.03,1.99 0.52,-0.3 0.78,-0.45 1.3,-0.75 0.7,-0.4 0.87,-0.73 0.86,-1.24 0,-0.21 0,-0.32 -0.01,-0.54 z"
             id="path11" />
          <path
             class="cls-1"
             d="m 180.42,196.14 c 0.01,1.03 -0.65,2.51 -2.63,3.65 -1.97,1.14 -2.78,0.51 -2.81,-0.51 -0.03,-1.13 -0.04,-1.68 -0.07,-2.81 -0.03,-1.02 0.72,-2.54 2.73,-3.7 2.01,-1.16 2.74,-0.49 2.75,0.54 0.01,1.14 0.02,1.69 0.03,2.83 z m -1.59,-1.8 c 0,-0.53 -0.36,-0.66 -1.16,-0.2 -0.8,0.46 -1.15,1 -1.13,1.52 0.03,1.02 0.04,1.52 0.06,2.54 0.01,0.53 0.38,0.65 1.17,0.19 0.79,-0.46 1.12,-0.98 1.11,-1.51 -0.02,-1.03 -0.03,-1.53 -0.05,-2.56 z"
             id="path12" />
          <path
             class="cls-1"
             d="m 184.25,195.94 c -1.09,0.63 -1.68,0.97 -2.68,1.56 0,-2.82 0,-4.07 0,-6.89 1.06,-0.62 1.52,-0.88 2.57,-1.49 1.67,-0.96 2.36,-0.48 2.39,0.43 0.04,1.3 0.06,1.92 0.09,3.22 0.03,0.9 -0.62,2.16 -2.36,3.17 z m 0.7,-5.06 c -0.01,-0.53 -0.21,-0.71 -0.98,-0.27 -0.37,0.21 -0.55,0.32 -0.91,0.53 0.02,1.65 0.02,2.43 0.04,4.08 0.37,-0.22 0.56,-0.33 0.94,-0.54 0.79,-0.46 0.98,-0.87 0.96,-1.39 -0.02,-0.96 -0.03,-1.44 -0.05,-2.4 z"
             id="path13" />
          <path
             class="cls-1"
             d="m 193.08,183.96 c 0.07,1.96 0.11,2.85 0.19,4.74 0.04,1.01 -0.6,2.47 -2.66,3.66 -2.06,1.19 -2.78,0.52 -2.82,-0.5 -0.06,-1.9 -0.09,-2.8 -0.16,-4.77 0.64,-0.37 0.96,-0.56 1.61,-0.93 0.07,1.91 0.1,2.78 0.17,4.61 0.02,0.54 0.32,0.69 1.14,0.22 0.82,-0.47 1.09,-0.95 1.07,-1.49 -0.07,-1.83 -0.11,-2.7 -0.18,-4.6 0.66,-0.38 0.98,-0.57 1.64,-0.94 z"
             id="path14" />
          <path
             class="cls-1"
             d="m 196.07,186.84 c 0.02,0.58 0.24,0.81 1.02,0.35 0.51,-0.29 1.2,-0.76 1.79,-1.21 0.1,0.48 0.14,0.72 0.24,1.22 -0.67,0.54 -1.29,0.97 -2,1.38 -1.77,1.03 -2.62,0.63 -2.67,-0.58 -0.04,-1.11 -0.06,-1.65 -0.1,-2.77 -0.05,-1.21 0.75,-2.56 2.57,-3.6 0.73,-0.42 1.37,-0.71 2.08,-0.97 -0.08,0.6 -0.12,0.89 -0.2,1.48 -0.62,0.25 -1.32,0.6 -1.84,0.89 -0.8,0.46 -0.99,0.92 -0.97,1.5 0.03,0.92 0.05,1.37 0.08,2.29 z"
             id="path15" />
          <path
             class="cls-1"
             d="m 202.88,179.72 c 0.02,2.16 0.04,3.14 0.06,5.38 -0.63,0.37 -0.97,0.57 -1.56,0.91 0,-2.26 0,-3.24 0,-5.43 -0.73,0.42 -1.1,0.63 -1.85,1.07 0,-0.54 -0.01,-0.82 -0.02,-1.38 2.15,-1.23 3.08,-1.76 5.19,-2.98 0,0.55 0.01,0.83 0.02,1.36 -0.75,0.43 -1.12,0.64 -1.84,1.06 z"
             id="path16" />
          <path
             class="cls-1"
             d="m 205.69,183.5 c -0.05,-2.77 -0.08,-3.93 -0.13,-6.71 0.63,-0.36 0.95,-0.55 1.6,-0.92 0.05,2.77 0.08,3.93 0.13,6.71 -0.64,0.37 -0.96,0.55 -1.6,0.92 z"
             id="path17" />
          <path
             class="cls-1"
             d="m 214.1,176.68 c 0,1.03 -0.75,2.53 -2.77,3.69 -2.02,1.15 -2.79,0.51 -2.81,-0.5 -0.02,-1.11 -0.03,-1.65 -0.05,-2.77 -0.02,-1.01 0.72,-2.52 2.78,-3.71 2.07,-1.19 2.83,-0.55 2.84,0.48 0,1.13 0,1.68 0,2.81 z m -1.63,-1.74 c 0,-0.52 -0.37,-0.64 -1.19,-0.17 -0.82,0.47 -1.18,1.01 -1.17,1.53 0.01,1.01 0.02,1.5 0.04,2.51 0,0.52 0.37,0.64 1.18,0.18 0.81,-0.46 1.16,-0.99 1.16,-1.52 0,-1.02 -0.01,-1.51 -0.02,-2.53 z"
             id="path18" />
          <path
             class="cls-1"
             d="m 216.89,172.62 c 0,1.79 -0.01,2.64 -0.02,4.5 -0.61,0.35 -0.91,0.52 -1.53,0.87 0,-2.82 0,-4.02 0.01,-6.84 0.8,-0.46 1.2,-0.69 1.98,-1.14 0.93,1.41 1.38,2.04 2.28,3.4 0,-1.88 0.01,-2.77 0.02,-4.72 0.59,-0.34 0.89,-0.5 1.46,-0.83 0,2.82 0,4.03 0,6.85 -0.77,0.44 -1.16,0.66 -1.93,1.1 -0.91,-1.34 -1.36,-1.94 -2.28,-3.19 z"
             id="path19" />
        </g>
        <g
           id="g38">
          <path
             class="cls-1"
             d="m 65.44,145.02 c -0.87,-0.67 -1.37,3.11 -2.16,3.04 1.75,-0.14 0.36,5.93 0.57,9.19 l 1.34,1.31 c 0.97,-3.16 0.55,-11.16 0.68,-17.93 z"
             id="path20" />
          <polygon
             class="cls-1"
             points="65.24,162.1 66.46,168.7 65.83,157.44 "
             id="polygon20" />
          <path
             class="cls-1"
             d="m 63.85,167.35 c -0.14,0.53 -0.24,1.33 -0.24,1.97 0.14,-0.67 0.21,-1.33 0.24,-1.97 z"
             id="path21" />
          <path
             class="cls-1"
             d="m 62.81,181.62 c 1.39,4.85 1.69,-3.68 2.68,2.61 -0.36,-5.93 0.07,-10.31 0.42,-15.29 -0.41,1.44 -0.33,2.03 -0.66,4.06 -0.06,-3.54 -0.66,-8.32 -0.79,-12.46 -1.04,1.81 -0.48,4.14 -0.61,6.8 0.19,-0.68 0.46,-0.9 0.72,0.28 -1.06,4.03 0.43,6.53 -0.47,10.28 l -0.45,-3.58 c -1.11,0.49 1.14,7.48 -0.84,7.29 z"
             id="path22" />
          <path
             class="cls-1"
             d="m 64.99,188.02 c -0.18,-0.35 -0.32,-0.42 -0.44,-0.31 0.18,0.29 0.33,0.49 0.44,0.31 z"
             id="path23" />
          <path
             class="cls-1"
             d="m 64.55,187.71 c -0.37,-0.6 -0.84,-1.6 -1.22,-0.44 -0.05,1.91 -0.09,4.34 0.08,6.42 0.08,1.03 0.21,1.98 0.42,2.84 0.2,0.81 0.49,1.33 0.86,1.49 1.06,-4.04 -0.21,-4.74 -0.83,-6.56 0.19,-0.9 0.3,-3.37 0.7,-3.74 z"
             id="path24" />
          <path
             class="cls-1"
             d="m 65.54,203.39 c 0.18,-0.27 0.38,-0.56 0.64,-0.88 -0.21,0 -0.84,0.03 -1.54,-0.55 -0.37,-0.28 -0.71,-0.73 -1,-1.38 -0.24,-0.67 -0.41,-1.54 -0.38,-2.66 -0.36,1.25 -0.25,2.04 -0.06,2.76 0.23,0.72 0.51,1.4 0.93,2.52 0.84,0.67 1.81,1.13 2.8,1.39 -0.26,-0.16 -0.51,-0.35 -0.73,-0.56 -0.24,-0.19 -0.46,-0.41 -0.66,-0.65 z"
             id="path25" />
          <path
             class="cls-1"
             d="m 173.82,155.38 c -0.49,0.03 -1.47,0.5 -2.65,1.15 0.39,0.18 1.18,0.02 2.65,-1.15 z"
             id="path26" />
          <path
             class="cls-1"
             d="m 151.64,166.63 c 0,0 0,0 0.01,0 l -0.43,0.09 c 0.15,-0.02 0.27,-0.05 0.42,-0.08 z"
             id="path27" />
          <path
             class="cls-1"
             d="m 63.51,135.99 c 0,0 0,-0.01 0.01,-0.03 -0.03,-0.78 -0.06,-1.58 -0.1,-2.37 -0.01,0.62 0.01,1.39 0.09,2.39 z"
             id="path28" />
          <path
             class="cls-1"
             d="m 63.93,143.36 c 0.01,0.39 0.04,0.8 0.08,1.23 -0.03,-0.41 -0.06,-0.82 -0.08,-1.23 z"
             id="path29" />
          <path
             class="cls-1"
             d="m 65.52,133.22 c -1.23,5.78 -0.55,-1.18 -1.99,2.74 0.11,2.53 0.24,5 0.4,7.39 -0.2,-5.67 2.45,-6.18 1.59,-10.13 z"
             id="path30" />
          <path
             class="cls-1"
             d="m 67.27,190.59 c -0.02,-0.08 -0.02,-0.15 -0.04,-0.24 0.05,0.44 0.09,0.65 0.04,0.24 z"
             id="path31" />
          <path
             class="cls-1"
             d="m 63.43,133.6 c 0.08,-4.24 1.91,-1.06 2.27,-3.59 -0.54,-2.7 -0.74,3.47 -1.19,-0.11 1.94,-4.83 -1.41,-3.38 0.3,-8.53 l 0.93,2.74 c -0.64,-5.05 -0.92,-11.76 -0.96,-18.17 -0.7,-1.19 -1.34,-2.36 -1.93,-3.52 0.08,10.66 0.19,21.34 0.58,31.18 z"
             id="path32" />
          <path
             class="cls-1"
             d="m 197.58,102.19 c 6.78,3.09 10.82,5.83 15.1,8.69 -8.21,-7.07 -18.43,-13.83 -29.76,-20.49 -1.41,-0.51 -2.71,-0.81 -1.11,0.54 3.16,1.12 4.14,2.8 1.69,2.19 -3.33,-1.4 0.85,-0.7 -3.26,-2 l 1.6,1.3 c -0.92,-0.49 -1.74,-0.9 -2.49,-1.24 -0.44,0.4 -0.92,0.81 -1.42,1.24 v 1.4 c 7.58,3.84 20.26,10.68 15.78,8.24 1.09,-1.02 3.33,1.4 3.86,0.15 z"
             id="path33" />
          <path
             class="cls-1"
             d="m 220.92,119.98 c -0.49,-2.04 -1.33,-3.67 -2.33,-4.85 -0.97,-1.2 -2.03,-1.95 -2.95,-2.43 -1.89,-0.91 -3.27,-0.75 -3.94,-0.3 -0.59,0.45 -0.92,1.08 -1.06,1.84 L 183.4,98.51 c 4.15,2.11 6.83,3.29 6.38,2.51 l -11.95,-5.97 c -0.62,3.86 -1.07,5.79 -1.33,5.79 l -1.53,0.34 c -0.11,0.08 -0.25,0.14 -0.38,0.2 -0.19,0.08 -0.39,0.19 -0.51,0.36 -0.11,0.16 -0.13,0.38 -0.04,0.53 1.47,0.77 2.22,1.26 2.22,1.46 v 0.24 c -1.29,10.65 -2.09,20.46 -2.41,29.42 h -0.24 l 0.72,19.05 c -0.16,0 -0.24,0.08 -0.24,0.24 l -2.41,-0.24 h -0.72 c -1.13,0.6 -1.69,1.01 -1.69,1.21 v 2.4 c 0.93,-0.55 1.8,-1.06 2.57,-1.48 -0.23,-0.1 -0.34,-0.31 -0.38,-0.49 2.94,-1.17 3.75,-1.62 7.17,-2.63 6.06,-2.52 12.74,-6.39 19.24,-10.08 3.25,-1.84 6.44,-3.65 9.49,-5.21 1.52,-0.78 3.01,-1.51 4.45,-2.15 0.36,-0.16 0.72,-0.31 1.07,-0.47 l 0.53,-0.22 0.26,-0.11 0.13,-0.05 0.23,-0.12 c 1.29,-0.67 2.51,-1.49 3.55,-2.48 1.4,-1.18 1.72,-1.55 1.7,-1.15 -0.03,0.38 -0.63,1.36 -1.44,2.37 -0.43,0.48 -0.9,0.96 -1.36,1.4 -0.47,0.42 -0.92,0.76 -1.28,1.04 -0.17,0.14 -0.32,0.26 -0.44,0.36 -0.13,0.11 -0.1,0.11 -0.13,0.16 0,0.03 0,0.06 0.04,0.07 0.05,0 0.06,0.04 0.27,-0.06 2.88,-2.01 4.81,-4.88 5.66,-7.55 0.88,-2.7 0.82,-5.19 0.35,-7.23 z"
             id="path34" />
          <path
             class="cls-1"
             d="m 166.8,103.6 -7.67,4 h -0.24 l -0.96,-0.72 c -1.81,2.57 -3.42,3.86 -4.82,3.86 -3.86,2.21 -8.68,4.3 -14.47,6.27 h -0.72 c -0.88,0 -2.33,-3.78 -4.34,-11.33 0.28,-0.96 1.25,-1.45 2.89,-1.45 10.29,-4.14 18.01,-8.24 23.15,-12.3 1.61,-1.45 2.68,-1.8 3.14,-2.17 0.79,-0.29 2.27,-2.22 2.27,-2.22 1.39,-1.79 1.83,-1.88 1.83,-1.88 0.05,0 0.11,0.02 0.17,0.07 0.1,-0.05 0.21,-0.1 0.31,-0.14 C 155.11,78.32 141.22,73 131.7,65.22 L 126.8,64 c 0.07,-0.6 -0.02,-1.49 -2.24,-2.41 0.72,0.51 1.99,1.26 1.6,1.3 l -9.45,-5.45 0.65,1.12 c -2.64,-2.37 -8.81,-4.33 -11.37,-7.31 -0.23,0.32 -2.45,-0.61 -2.52,0 -4.08,-2.99 -8.71,-5.53 -13.19,-8 -2.24,-1.24 -4.44,-2.45 -6.52,-3.7 -1.04,-0.62 -2.04,-1.26 -3.01,-1.9 -0.49,-0.34 -0.97,-0.67 -1.44,-1 -0.59,-0.42 -1.18,-0.84 -1.75,-1.24 -0.7,-0.48 -1.38,-0.99 -2.08,-1.41 0.88,0.92 -0.21,0.76 -0.57,0.87 -1.94,-0.68 -2.25,-0.63 -2.1,-0.85 0.13,-0.17 0.7,-0.36 0.17,-0.67 -0.16,0.31 -0.81,0.41 -1.82,0.65 -1,-0.14 -1.99,0.22 -2.68,0.92 -0.34,0.16 -0.68,0.33 -1.03,0.55 -0.93,0.59 -1.89,1.41 -2.67,2.5 -0.78,1.08 -1.36,2.44 -1.56,3.94 -0.21,1.48 -0.16,3.18 -0.22,4.85 -0.08,2.89 -0.19,5.99 -0.32,9.12 -0.11,2.54 -0.22,5.09 -0.33,7.59 2.18,-2.31 3.72,-3.72 4.62,-4.2 0,-1.02 0.79,-1.92 2.37,-2.71 1.13,0 5.31,3.05 12.54,9.15 l 3.07,1.66 -1.2,1.7 c -0.21,0.4 0.47,0.65 0.86,0.51 l 2.77,-0.9 6.37,3.46 c 0,0 3.72,1.83 7.12,3.05 8.59,3.16 15.48,5.08 20.68,5.76 6.33,0 9.49,0.9 9.49,2.71 -0.17,2 -0.34,4.7 -0.48,6.33 -0.04,0.5 -0.26,1.84 -0.26,1.84 -0.03,0.27 -0.05,0.54 -0.08,0.79 0,0 -1.08,0.07 -1.09,0.2 -0.01,0.13 1.02,0.46 1.01,0.59 -0.31,2.98 -0.58,4.93 -0.79,5.85 -0.45,0.23 -0.79,0.34 -1.02,0.34 -2.83,-0.23 -4.3,-0.34 -4.41,-0.34 -1.58,8.36 -5.65,16.61 -12.2,24.75 -0.64,0.78 -1.23,1.43 -1.77,1.97 4.06,2.46 9.03,4.64 14.94,6.52 0.49,0.11 -0.15,0.76 0.04,0.79 0.23,0.04 1.01,-0.61 1.22,-0.56 2.75,0.57 4.13,1.39 4.13,2.47 -0.36,1.39 -0.7,2.71 -1.02,3.94 -0.11,0.41 -1.45,1.43 -1.55,1.82 -0.08,0.3 1.08,-0.04 1,0.25 -1.13,4.18 -2.06,7.34 -2.81,9.5 h -0.34 c -0.78,-0.1 -2.12,0.38 -2.42,-0.42 -1.01,-2.74 -2.08,-3.51 -2.18,-2.31 -0.02,0.21 -0.35,1.69 -0.56,1.64 -7.08,-1.97 -15.91,-6.16 -26.49,-12.56 -0.12,0.12 -0.24,0.24 -0.36,0.33 -0.17,0 -2.46,2.88 -8.61,6.95 -1.13,0 -1.69,0.79 -1.69,2.37 -1.3,1.02 -2.32,3.05 -3.05,6.1 0,3.28 2.37,6.33 7.12,9.15 h 1.02 c 1.07,0 2.2,0.11 3.39,0.34 6.21,0 12.65,-3.73 19.32,-11.19 l 0.68,-0.34 h 0.68 c 0.58,0.45 0.59,1.1 1.13,1.52 0.2,0.16 0.95,0.11 1.15,0.27 3.32,2.62 6.45,4.24 7.68,6.29 0.3,0.51 -1.74,1.56 -1.7,1.72 0.4,1.83 2.32,-1.18 2.42,-1.08 0.63,0.57 1.14,1.05 1.53,1.45 v 1.02 c -5.59,8.19 -14.07,13.96 -25.42,17.29 -0.34,0 -1.69,0.11 -4.07,0.34 -0.45,-0.23 -0.79,-0.34 -1.02,-0.34 -0.73,0.45 -1.41,0.68 -2.03,0.68 -0.68,0 -1.47,-0.23 -2.37,-0.68 -0.79,0.23 -1.24,0.34 -1.36,0.34 -7.53,0 -14.45,-3.97 -20.77,-11.9 v 5.59 c -0.03,0.09 -0.05,0.17 -0.08,0.26 0.03,0.03 0.06,0.08 0.08,0.12 v 11.24 c -0.48,1.64 -0.83,3.28 -0.32,5.48 -0.08,-0.77 -0.15,-2.26 0.32,-2.6 v 24.02 c 0,2.44 2.64,3.96 4.75,2.74 l 14.45,-8.34 c 0.66,-0.28 3.03,-4.02 3.55,-4.42 l 0.02,2.36 11.93,-6.89 c 0.51,-0.16 1.01,-0.26 1.49,-0.31 -0.2,-0.07 -0.31,-0.19 -0.36,-0.34 l 22.21,-12.82 c 0.23,-0.03 0.5,-0.07 0.81,-0.14 l 0.4,-0.56 1.67,-0.96 c 1.36,-0.12 3.85,-2.32 6.52,-3.96 -0.77,0.31 -1.54,-0.11 -2.32,0.2 l 12.97,-7.49 c 0.1,-0.03 0.19,-0.08 0.29,-0.14 l 3.9,-0.84 c -0.04,-0.08 -0.05,-0.18 -0.07,-0.27 0.42,-0.19 0.88,-0.42 1.37,-0.72 -2.54,1.01 0.41,-1.89 -0.4,-2.17 0.16,-0.27 0.34,-0.55 0.53,-0.83 0.44,-0.12 0.21,0.6 2.14,-0.89 1.77,-1.43 1.07,-0.6 1.83,-1.3 0.63,-0.25 -0.31,0.05 0.4,-0.31 -0.7,-0.38 0.48,-1 0.48,-3.61 v -0.96 c 0,-0.16 0.11,-0.75 0.43,-1.88 v -0.24 c -0.24,0 0.85,-2.71 0.44,-3.04 -0.16,-3.46 0.85,-7.98 0.85,-9.67 l 0.97,-4.72 c 0.32,-0.4 0.48,-0.72 0.48,-0.96 -0.32,-1.04 2.9,-13.19 2.99,-13.58 2.3,-9.57 4.38,-13.26 7.22,-21 l 1.2,-1.3 3.34,-3.82 -7.23,5 z m -50.87,-44.04 -5.52,-3.18 c -0.25,-0.48 -0.28,-0.84 0.89,-0.45 2.08,2.14 3.88,1.63 5.4,3.54 l -0.78,0.09 z m 39.41,102.49 c -0.72,0.43 -0.59,0.42 -0.12,0.24 -0.66,1.3 -0.44,1.93 -2.92,2.39 -0.13,0.09 -0.27,0.2 -0.4,0.29 1.18,-1.51 2.58,-2.84 3.54,-3.17 -0.03,0.08 -0.07,0.16 -0.1,0.24 z"
             id="path35" />
          <g
             id="g37">
            <path
               class="cls-1"
               d="m 62.69,82.84 c 0.01,1.13 0.02,2.27 0.04,3.41 1.91,-0.67 4.63,-1.68 8.18,-3.04 h 1.01 c 2.02,3.2 3.04,5.79 3.04,7.76 h -0.34 l 3.71,4.05 c 1.41,3.77 6.35,9.95 14.84,18.55 1.39,1.44 3.4,3.31 5.44,5.15 2.32,-1.33 5.96,-3.77 7.99,-5.78 4.51,-4.13 5.59,-5.78 8.23,-10.53 0.4,-0.72 4.79,-2.1 4.79,-2.22 0.51,-0.3 3.12,-1.1 2.7,-1.19 -5.51,-1.09 -21.16,-4.3 -24.52,-5.89 -2.14,-0.83 -1.92,-0.7 -3.83,-1.54 -0.1,-0.04 -0.21,-0.07 -0.27,-0.16 3.74,0.89 5.9,0.93 6.52,0.58 -0.35,-0.34 -0.75,-0.35 -1.2,-0.55 -0.19,-0.09 -0.36,-0.22 -0.56,-0.28 -1.52,-0.48 -1.97,1.45 -12.48,-3.23 -4.39,-1.96 -5.67,-2.74 -8.79,-4.7 0,0 -3.47,-2.08 -4.25,-2.62 l -0.56,-0.37 c -4.32,-2.96 -7.78,-5.57 -10.39,-7.82 -0.18,5.79 -0.18,10.31 0.28,11.86 0.09,-0.87 0.17,-1.75 0.41,-1.43 z"
               id="path36" />
            <path
               class="cls-1"
               d="m 78.32,124.03 c 0,0 0.27,-0.06 0,-0.34 -5.06,-5.28 -9.25,-10.36 -12.57,-15.26 v 1.15 c 0,0 -0.03,0.08 -0.06,0.12 0.02,0.05 0.04,0.1 0.06,0.15 0,0 -0.25,-0.12 -0.67,-0.34 l 2.47,2.24 v 28.21 c 1.65,-2.44 3.62,-4.11 5.56,-5.67 1.42,-1.15 4.25,-3.67 9.1,-6.45 -1.57,-1.39 -2.97,-2.73 -3.89,-3.81 z"
               id="path37" />
          </g>
        </g>
      </g>
    </g>
  </g>
</svg>
