<?xml version="1.0" encoding="UTF-8" standalone="no"?>
<svg
   version="1.1"
   viewBox="0 0 239.42092 250.00002"
   id="svg27"
   sodipodi:docname="PartenaireCrepuscule_CA.svg"
   width="239.42091"
   height="250.00002"
   inkscape:version="1.3 (0e150ed6c4, 2023-07-21)"
   xmlns:inkscape="http://www.inkscape.org/namespaces/inkscape"
   xmlns:sodipodi="http://sodipodi.sourceforge.net/DTD/sodipodi-0.dtd"
   xmlns="http://www.w3.org/2000/svg"
   xmlns:svg="http://www.w3.org/2000/svg">
  <sodipodi:namedview
     id="namedview27"
     pagecolor="#505050"
     bordercolor="#eeeeee"
     borderopacity="1"
     inkscape:showpageshadow="0"
     inkscape:pageopacity="0"
     inkscape:pagecheckerboard="0"
     inkscape:deskcolor="#505050"
     inkscape:zoom="2.8681296"
     inkscape:cx="95.183982"
     inkscape:cy="99.890883"
     inkscape:window-width="1920"
     inkscape:window-height="1009"
     inkscape:window-x="-8"
     inkscape:window-y="-8"
     inkscape:window-maximized="1"
     inkscape:current-layer="svg27" />
  <defs
     id="defs1">
    <style
       id="style1">&#10;      .cls-1 {&#10;        fill: #fff;&#10;      }&#10;    </style>
  </defs>
  <!-- Generator: Adobe Illustrator 28.7.1, SVG Export Plug-In . SVG Version: 1.2.0 Build 142)  -->
  <g
     id="g27"
     transform="matrix(1.253447,0,0,1.253447,-57.946855,-52.657303)">
    <g
       id="Calque_1">
      <g
         id="g26">
        <g
           id="g11">
          <path
             class="cls-1"
             d="m 54.37,234.74 -1.75,6.31 h -5.77 l 7.52,-24.6 h 7.3 l 7.63,24.6 h -5.99 l -1.9,-6.31 z m 6.24,-4.16 -1.53,-5.22 c -0.44,-1.46 -0.88,-3.29 -1.24,-4.75 h -0.07 c -0.36,1.46 -0.73,3.32 -1.13,4.75 l -1.46,5.22 h 5.44 z"
             id="path1" />
          <path
             class="cls-1"
             d="m 72.18,215.14 h 5.55 v 25.91 h -5.55 z"
             id="path2" />
          <path
             class="cls-1"
             d="m 82.06,241.06 c 0.07,-1.17 0.15,-3.32 0.15,-5.33 v -20.58 h 5.55 v 10.18 h 0.07 c 1.06,-1.53 2.92,-2.52 5.4,-2.52 4.27,0 7.41,3.54 7.37,9.01 0,6.42 -4.09,9.64 -8.18,9.64 -2.08,0 -4.09,-0.77 -5.37,-2.88 h -0.07 l -0.22,2.48 h -4.71 z m 5.7,-7.6 c 0,0.37 0.04,0.69 0.11,0.99 0.37,1.5 1.64,2.63 3.25,2.63 2.37,0 3.83,-1.83 3.83,-5.04 0,-2.77 -1.24,-4.96 -3.83,-4.96 -1.5,0 -2.88,1.13 -3.25,2.74 -0.07,0.33 -0.11,0.66 -0.11,1.02 v 2.63 z"
             id="path3" />
          <path
             class="cls-1"
             d="m 109.76,218.24 c 0,1.53 -1.17,2.77 -2.99,2.77 -1.82,0 -2.92,-1.24 -2.88,-2.77 -0.04,-1.61 1.13,-2.81 2.92,-2.81 1.79,0 2.92,1.2 2.96,2.81 z m -5.73,22.82 v -17.85 h 5.55 v 17.85 z"
             id="path4" />
          <path
             class="cls-1"
             d="m 126.04,241.06 -7.88,-24.6 h 6.1 l 2.99,10.4 c 0.84,2.92 1.61,5.73 2.19,8.8 h 0.11 c 0.62,-2.96 1.39,-5.88 2.23,-8.69 l 3.14,-10.51 h 5.91 l -8.29,24.6 z"
             id="path5" />
          <path
             class="cls-1"
             d="m 146,233.9 c 0.18,2.3 2.45,3.39 5.04,3.39 1.9,0 3.43,-0.25 4.93,-0.73 l 0.73,3.76 c -1.83,0.73 -4.05,1.09 -6.46,1.09 -6.06,0 -9.53,-3.5 -9.53,-9.09 0,-4.53 2.81,-9.53 9.02,-9.53 5.77,0 7.96,4.49 7.96,8.91 0,0.95 -0.11,1.79 -0.18,2.19 h -11.5 z m 6.54,-3.79 c 0,-1.35 -0.58,-3.61 -3.14,-3.61 -2.34,0 -3.29,2.12 -3.43,3.61 z"
             id="path6" />
          <path
             class="cls-1"
             d="m 161,229.08 c 0,-2.63 -0.07,-4.34 -0.15,-5.88 h 4.78 l 0.18,3.28 h 0.15 c 0.91,-2.59 3.1,-3.69 4.82,-3.69 0.51,0 0.77,0 1.17,0.07 v 5.22 c -0.4,-0.07 -0.88,-0.15 -1.5,-0.15 -2.04,0 -3.43,1.1 -3.8,2.81 -0.07,0.37 -0.11,0.8 -0.11,1.24 v 9.05 h -5.55 v -11.97 z"
             id="path7" />
          <path
             class="cls-1"
             d="m 191.88,215.14 v 20.58 c 0,2.01 0.07,4.12 0.15,5.33 h -4.93 l -0.26,-2.63 h -0.07 c -1.13,2.01 -3.29,3.03 -5.58,3.03 -4.23,0 -7.63,-3.61 -7.63,-9.16 -0.04,-6.02 3.72,-9.49 7.99,-9.49 2.19,0 3.91,0.77 4.71,2.01 h 0.07 v -9.67 z m -5.55,15.62 c 0,-0.29 -0.04,-0.69 -0.07,-0.99 -0.33,-1.5 -1.53,-2.74 -3.25,-2.74 -2.52,0 -3.83,2.26 -3.83,5.07 0,3.03 1.5,4.93 3.8,4.93 1.61,0 2.88,-1.1 3.21,-2.67 0.11,-0.4 0.15,-0.8 0.15,-1.28 v -2.34 z"
             id="path8" />
          <path
             class="cls-1"
             d="m 202.06,218.24 c 0,1.53 -1.17,2.77 -2.99,2.77 -1.82,0 -2.92,-1.24 -2.88,-2.77 -0.04,-1.61 1.13,-2.81 2.92,-2.81 1.79,0 2.92,1.2 2.96,2.81 z m -5.73,22.82 v -17.85 h 5.55 v 17.85 z"
             id="path9" />
          <path
             class="cls-1"
             d="m 210.6,233.9 c 0.18,2.3 2.45,3.39 5.04,3.39 1.9,0 3.43,-0.25 4.93,-0.73 l 0.73,3.76 c -1.83,0.73 -4.05,1.09 -6.46,1.09 -6.06,0 -9.53,-3.5 -9.53,-9.09 0,-4.53 2.81,-9.53 9.02,-9.53 5.77,0 7.96,4.49 7.96,8.91 0,0.95 -0.11,1.79 -0.18,2.19 h -11.5 z m 6.53,-3.79 c 0,-1.35 -0.58,-3.61 -3.14,-3.61 -2.34,0 -3.29,2.12 -3.43,3.61 z"
             id="path10" />
          <path
             class="cls-1"
             d="m 225.6,229.08 c 0,-2.63 -0.07,-4.34 -0.15,-5.88 h 4.78 l 0.18,3.28 h 0.15 c 0.91,-2.59 3.1,-3.69 4.82,-3.69 0.51,0 0.77,0 1.17,0.07 v 5.22 c -0.4,-0.07 -0.88,-0.15 -1.5,-0.15 -2.04,0 -3.43,1.1 -3.8,2.81 -0.07,0.37 -0.11,0.8 -0.11,1.24 v 9.05 h -5.55 v -11.97 z"
             id="path11" />
        </g>
        <g
           id="g25">
          <rect
             class="cls-1"
             x="69.370003"
             y="138.36"
             width="143.78999"
             height="12.86"
             id="rect11" />
          <path
             class="cls-1"
             d="m 160.79,68.36 9.7,24.3 17.14,-9.02 -14.84,-32.9 h -21.6 l -30.34,56.61 c 0,0 14.93,-0.46 24.48,-7.66 2.42,-1.42 9.22,-19.3 15.46,-31.33"
             id="path12" />
          <path
             class="cls-1"
             d="m 187.64,83.64 -17.14,9.02 c -14.67,7.51 -28.6,14.1 -36.11,16.22 -19.79,5.7 -43.9,9.12 -52.56,1.45 -8.15,-7.23 10.66,-37.51 46.24,-44.25 5.77,-1.28 9.14,-0.96 9.14,-0.92 0,-0.04 -2.44,-10.35 -4.34,-12.53 -2.65,-3.25 -5.25,-3.91 -9.13,-3.42 -7.7,0.46 -40.46,9.19 -53.39,36.49 -7.21,15.51 2.38,31.17 8.58,35.7 2.88,2.11 21.49,18.79 64.5,1.92 42.39,-16.44 80.36,-42.34 80.39,-42.34 V 63.65 c 0,0 -16.76,9.57 -36.19,19.98"
             id="path13" />
          <path
             class="cls-1"
             d="m 176.51,108.45 c 1.58,3.73 6.14,14.56 7.31,17.69 1.52,3.42 5.32,3.42 5.32,3.41 h 19.78 L 194.19,99.03 c -5.4,3.03 -11.34,6.22 -17.68,9.43"
             id="path14" />
          <path
             class="cls-1"
             d="m 223.83,56.91 c 0,0 -22.62,12.98 -27.92,14.95 -4.87,1.92 -6.69,-0.62 -7.27,-1.51 -1.31,-1.99 -3.45,-8.58 -3.75,-9.57 0.13,0.03 1.38,0.27 4.27,-0.46 3.44,-0.87 34.65,-18.32 34.67,-18.31 z"
             id="path15" />
          <polygon
             class="cls-1"
             points="106.9,164.09 109.71,164.09 117.75,173.24 117.75,164.09 120.56,164.09 120.56,176.95 117.75,176.95 109.71,167.78 109.71,176.95 106.9,176.95 "
             id="polygon15" />
          <path
             class="cls-1"
             d="m 124.13,170.52 c 0,-3.64 3.45,-6.65 8.3,-6.65 4.85,0 8.31,3.01 8.31,6.65 0,3.64 -3.45,6.65 -8.31,6.65 -4.86,0 -8.3,-3.01 -8.3,-6.65 m 2.92,0 c 0,2.59 2.19,4.65 5.38,4.65 3.19,0 5.38,-2.06 5.38,-4.65 0,-2.59 -2.19,-4.65 -5.38,-4.65 -3.19,0 -5.38,2.06 -5.38,4.65"
             id="path16" />
          <path
             class="cls-1"
             d="m 144.3,164.09 h 7.11 c 3.3,0 5.98,1.3 5.98,4.14 0,2.21 -1.65,3.36 -3.88,3.86 l 4.29,4.87 h -3.28 l -3.9,-4.49 h -3.51 v 4.49 h -2.81 z m 6.9,6.37 c 1.99,0 3.26,-0.81 3.26,-2.21 0,-1.4 -1.22,-2.11 -3.28,-2.11 h -4.07 v 4.32 z"
             id="path17" />
          <path
             class="cls-1"
             d="m 161.36,164.09 h 5.92 c 5.06,0 8.43,2.57 8.43,6.43 0,3.86 -3.37,6.43 -8.43,6.43 h -5.92 v -12.87 z m 6.11,10.81 c 3.19,0 5.33,-1.75 5.33,-4.36 0,-2.61 -2.14,-4.39 -5.33,-4.39 h -3.3 v 8.75 z"
             id="path18" />
          <polygon
             class="cls-1"
             points="58.94,196.09 58.94,186.49 53.72,193.68 48.66,186.71 48.66,196.09 46.23,196.09 46.23,183.22 49.23,183.22 53.99,189.76 58.75,183.22 61.75,183.22 61.75,196.09 "
             id="polygon18" />
          <rect
             class="cls-1"
             x="66.040001"
             y="183.22"
             width="2.8099999"
             height="12.87"
             id="rect18" />
          <path
             class="cls-1"
             d="m 73.15,183.22 h 5.92 c 5.06,0 8.43,2.57 8.43,6.43 0,3.86 -3.37,6.43 -8.43,6.43 h -5.92 v -12.87 z m 6.11,10.81 c 3.19,0 5.32,-1.75 5.32,-4.36 0,-2.61 -2.14,-4.39 -5.32,-4.39 h -3.3 v 8.75 z"
             id="path19" />
          <rect
             class="cls-1"
             x="90.959999"
             y="183.22"
             width="2.8099999"
             height="12.87"
             id="rect19" />
          <rect
             class="cls-1"
             x="97.779999"
             y="188.53"
             width="8.1400003"
             height="2.24"
             id="rect20" />
          <path
             class="cls-1"
             d="m 109.93,183.22 h 7.18 c 3.37,0 6.13,1.42 6.13,4.45 0,3.03 -2.72,4.54 -6.13,4.54 h -4.37 v 3.88 h -2.81 z m 7.09,6.93 c 2.01,0 3.3,-0.92 3.3,-2.48 0,-1.56 -1.24,-2.39 -3.32,-2.39 h -4.25 v 4.87 z"
             id="path20" />
          <polygon
             class="cls-1"
             points="130.56,191.02 123.98,183.22 127.46,183.22 132.13,188.94 136.8,183.22 139.93,183.22 133.37,191.02 133.37,196.09 130.56,196.09 "
             id="polygon20" />
          <path
             class="cls-1"
             d="m 142.26,183.22 h 7.1 c 3.3,0 5.98,1.3 5.98,4.14 0,2.21 -1.65,3.36 -3.88,3.86 l 4.29,4.87 h -3.28 l -3.9,-4.48 h -3.5 v 4.48 h -2.81 z m 6.89,6.38 c 1.99,0 3.26,-0.81 3.26,-2.21 0,-1.4 -1.22,-2.11 -3.28,-2.11 h -4.07 v 4.32 h 4.08 z"
             id="path21" />
          <path
             class="cls-1"
             d="m 158.74,192.38 v -9.15 h 11.88 v 2.06 h -9.07 v 3.11 h 8.32 v 2 h -8.32 v 1.99 c 0,1.12 0.54,1.65 1.65,1.65 h 7.69 v 2.06 h -8.36 c -2.4,0 -3.79,-1.38 -3.79,-3.71 m 9.05,-12.84 -2.17,2.26 h -2.4 l 1.65,-2.26 z"
             id="path22" />
          <polygon
             class="cls-1"
             points="174.71,183.22 177.52,183.22 185.57,192.38 185.57,183.22 188.38,183.22 188.38,196.09 185.57,196.09 177.52,186.92 177.52,196.09 174.71,196.09 "
             id="polygon22" />
          <path
             class="cls-1"
             d="m 192.58,192.38 v -9.15 h 11.88 v 2.06 h -9.07 v 3.11 h 8.32 v 2 h -8.32 v 1.99 c 0,1.12 0.54,1.65 1.65,1.65 h 7.69 v 2.06 h -8.36 c -2.4,0 -3.79,-1.38 -3.79,-3.71 m 9.05,-12.84 -2.17,2.26 h -2.4 l 1.65,-2.26 z"
             id="path23" />
          <path
             class="cls-1"
             d="m 208.27,192.38 v -9.15 h 11.88 v 2.06 h -9.07 v 3.11 h 8.32 v 2 h -8.32 v 1.99 c 0,1.12 0.54,1.65 1.65,1.65 h 7.69 v 2.06 h -8.36 c -2.4,0 -3.79,-1.38 -3.79,-3.71"
             id="path24" />
          <path
             class="cls-1"
             d="m 223.21,194.27 1.31,-1.86 c 1.71,1.23 4.03,1.8 6.04,1.8 2.01,0 3.79,-0.61 3.79,-1.56 0,-0.95 -1.89,-1.38 -4.07,-1.84 -3,-0.63 -6.56,-1.36 -6.56,-3.93 0,-2.39 3.04,-3.88 6.51,-3.88 2.38,0 4.87,0.66 6.67,1.86 l -1.31,1.86 c -1.48,-1.1 -3.47,-1.66 -5.31,-1.66 -1.84,0 -3.67,0.57 -3.67,1.49 0,0.86 1.72,1.21 3.79,1.62 3.06,0.61 6.84,1.36 6.84,4.16 0,2.54 -3.11,3.99 -6.64,3.99 -2.72,0 -5.45,-0.79 -7.39,-2.04"
             id="path25" />
        </g>
      </g>
    </g>
  </g>
</svg>
