<?xml version="1.0" encoding="UTF-8" standalone="no"?>
<svg
   id="Calque_1"
   viewBox="0 0 250 223.00608"
   version="1.1"
   sodipodi:docname="DracFinal_Blanc.svg"
   width="250"
   height="223.00609"
   inkscape:version="1.3 (0e150ed6c4, 2023-07-21)"
   xmlns:inkscape="http://www.inkscape.org/namespaces/inkscape"
   xmlns:sodipodi="http://sodipodi.sourceforge.net/DTD/sodipodi-0.dtd"
   xmlns="http://www.w3.org/2000/svg"
   xmlns:svg="http://www.w3.org/2000/svg">
  <sodipodi:namedview
     id="namedview2"
     pagecolor="#505050"
     bordercolor="#eeeeee"
     borderopacity="1"
     inkscape:showpageshadow="0"
     inkscape:pageopacity="0"
     inkscape:pagecheckerboard="0"
     inkscape:deskcolor="#505050"
     inkscape:zoom="1.3657438"
     inkscape:cx="285.55869"
     inkscape:cy="254.44011"
     inkscape:window-width="1920"
     inkscape:window-height="1009"
     inkscape:window-x="-8"
     inkscape:window-y="-8"
     inkscape:window-maximized="1"
     inkscape:current-layer="Calque_1" />
  <defs
     id="defs1">
    <style
       id="style1">&#10;      .cls-1 {&#10;        clip-rule: evenodd;&#10;      }&#10;&#10;      .cls-1, .cls-2, .cls-3 {&#10;        fill: #fff;&#10;      }&#10;&#10;      .cls-2 {&#10;        fill-rule: evenodd;&#10;      }&#10;&#10;      .cls-4 {&#10;        clip-path: url(#clippath);&#10;      }&#10;    </style>
    <clipPath
       id="clippath">
      <path
         class="cls-1"
         d="m 543.42,163.16 c 49.87,-32.22 108.6,-73.51 123.46,-71.43 23.33,3.28 39.28,26.44 39.28,26.44 0,0 -0.85,-28.73 -28.36,-58.99 -23.6,-26.59 -38.46,-13.35 -50.98,-7.08 -36.56,19.29 -141.98,115.87 -160.8,120.05 0,0 -19.04,4.86 -9.32,-12.67 0,0 -19.99,7.41 -15.83,21.95 2.61,9.11 10.7,22.95 34.33,18.49 0.84,23.14 19.81,41.65 43.16,41.65 23.35,0 43.24,-19.36 43.24,-43.24 0,-14.52 -7.18,-27.34 -18.17,-35.18 z m -25.06,51.68 c -9.11,0 -16.5,-7.39 -16.5,-16.5 0,-9.11 7.39,-16.5 16.5,-16.5 9.11,0 16.5,7.39 16.5,16.5 0,9.11 -7.39,16.5 -16.5,16.5 z M 337.11,396.11 h -12.18 v 69.4 h -39 V 244.24 c 10.25,8.41 23.35,13.47 37.61,13.47 0.47,0 0.92,-0.06 1.39,-0.07 v 99.12 h 26.81 c 8.01,0 14.62,-6.62 14.62,-14.28 v -78.21 c 0,-7.56 -5.91,-13.8 -13.31,-14.49 12.11,-6.97 21.51,-18.08 26.31,-31.4 15.56,9.39 26,26.41 26,45.89 v 78.21 c 0,12.8 -4.6,24.65 -12.19,33.88 7.62,9.26 12.19,21.11 12.19,34.02 v 55.13 h -39 v -55.13 c 0,-8.01 -6.62,-14.62 -14.62,-14.62 v -0.28 c -4.25,0.38 -9.1,0.62 -14.63,0.62 z m -51.19,100.17 h 31.68 v 12.49 h -19.19 v 9.48 h 13.83 v 10.37 h -13.83 v 10.93 h 19.19 v 12.49 h -31.68 v -55.77 z m 74.18,0 h 12.49 l -14.95,55.77 H 343.7 l -14.95,-55.77 h 12.49 l 9.48,35.14 9.37,-35.14 z m 195.44,10.27 v 6.36 h -12.49 v -4.13 h -13.27 v 9.82 h 15.5 c 5.69,0 10.26,4.68 10.26,10.26 v 12.94 c 0,5.57 -4.58,10.26 -10.26,10.26 h -17.74 c -5.69,0 -10.26,-4.69 -10.26,-10.26 v -6.47 h 12.49 v 4.24 h 13.27 v -8.48 h -15.51 c -5.69,0 -10.26,-4.58 -10.26,-10.26 v -14.28 c 0,-5.58 4.57,-10.26 10.26,-10.26 h 17.74 c 5.69,0 10.26,4.69 10.26,10.26 z M 518.36,257.72 c 14.08,0 27.01,-4.95 37.2,-13.17 v 220.96 h -39 v -71 h -41.44 v 71 h -39 V 264.28 c 0,-19.62 10.59,-36.74 26.34,-46.09 4.77,13.39 14.18,24.56 26.32,31.57 -7.56,0.51 -13.66,6.85 -13.66,14.52 v 91.23 h 41.44 v -97.88 c 0.6,0.02 1.19,0.09 1.79,0.09 z M 476,496.28 h 32.35 v 12.49 h -9.93 v 43.28 H 485.93 V 508.77 H 476 Z m -92.25,0 h 31.68 v 12.49 h -19.19 v 9.48 h 13.83 v 10.37 h -13.83 v 10.93 h 19.19 v 12.49 h -31.68 v -55.77 z m 68.6,0 h 12.49 v 55.77 h -12.6 l -13.16,-28.56 v 28.56 h -12.49 v -55.77 h 12.6 l 13.16,28.55 z M 280.3,198.34 c 0,23.88 19.36,43.24 43.24,43.24 23.88,0 42.31,-18.51 43.15,-41.64 23.59,4.66 31.73,-9.39 34.34,-18.5 4.16,-14.54 -15.83,-21.95 -15.83,-21.95 9.72,17.53 -9.32,12.67 -9.32,12.67 C 357.06,167.98 251.63,71.41 215.08,52.11 202.56,45.83 187.7,32.6 164.1,59.19 c -27.51,30.26 -28.36,58.99 -28.36,58.99 0,0 15.95,-23.17 39.28,-26.44 14.9,-2.09 73.54,39.19 123.46,71.43 -10.98,7.84 -18.16,20.66 -18.16,35.18 z m 43.23,-16.5 c 9.11,0 16.5,7.39 16.5,16.5 0,9.11 -7.39,16.5 -16.5,16.5 -9.11,0 -16.5,-7.39 -16.5,-16.5 0,-9.11 7.39,-16.5 16.5,-16.5 z m 316.42,28.82 h 65.81 v 122.47 h -39 v -83.47 h -26.82 c -8.01,0 -14.62,6.62 -14.62,14.62 v 234.16 c 0,8.01 6.62,14.62 14.62,14.62 h 26.82 v -83.47 h 39 v 122.47 h -65.81 c -29.6,0 -53.62,-24.03 -53.62,-53.62 V 264.28 c 0,-29.59 24.03,-53.62 53.62,-53.62 z m -384.8,53.62 v 234.16 c 0,29.6 -24.03,53.62 -53.62,53.62 H 135.72 V 429.59 h 39 v 83.47 h 26.82 c 8.01,0 14.62,-6.62 14.62,-14.62 V 264.28 c 0,-8.01 -6.62,-14.62 -14.62,-14.62 h -26.82 v 83.47 h -39 V 210.66 h 65.81 c 29.6,0 53.62,24.03 53.62,53.62 z"
         id="path1" />
    </clipPath>
  </defs>
  <g
     class="cls-4"
     clip-path="url(#clippath)"
     id="g2"
     transform="matrix(0.43825819,0,0,0.43825819,-59.480402,-18.938728)">
    <rect
       class="cls-3"
       x="129.94"
       y="38.509998"
       width="582"
       height="520.21002"
       transform="rotate(180,420.945,298.615)"
       id="rect2" />
  </g>
</svg>
