<?xml version="1.0" encoding="UTF-8" standalone="no"?>
<svg
   version="1.1"
   viewBox="0 0 171.22135 249.99999"
   id="svg13"
   sodipodi:docname="PartenaireCrepuscule_DREAM.svg"
   width="171.22134"
   height="249.99998"
   inkscape:version="1.3 (0e150ed6c4, 2023-07-21)"
   xmlns:inkscape="http://www.inkscape.org/namespaces/inkscape"
   xmlns:sodipodi="http://sodipodi.sourceforge.net/DTD/sodipodi-0.dtd"
   xmlns="http://www.w3.org/2000/svg"
   xmlns:svg="http://www.w3.org/2000/svg">
  <sodipodi:namedview
     id="namedview13"
     pagecolor="#505050"
     bordercolor="#eeeeee"
     borderopacity="1"
     inkscape:showpageshadow="0"
     inkscape:pageopacity="0"
     inkscape:pagecheckerboard="0"
     inkscape:deskcolor="#505050"
     inkscape:zoom="2.8681296"
     inkscape:cx="73.915767"
     inkscape:cy="108.25871"
     inkscape:window-width="1920"
     inkscape:window-height="1009"
     inkscape:window-x="-8"
     inkscape:window-y="-8"
     inkscape:window-maximized="1"
     inkscape:current-layer="svg13" />
  <defs
     id="defs1">
    <style
       id="style1">&#10;      .cls-1 {&#10;        fill: #fff;&#10;      }&#10;    </style>
  </defs>
  <!-- Generator: Adobe Illustrator 28.7.1, SVG Export Plug-In . SVG Version: 1.2.0 Build 142)  -->
  <g
     id="g13"
     transform="matrix(1.1530833,0,0,1.1530833,-77.821592,-38.432266)">
    <g
       id="Calque_1">
      <g
         id="g12">
        <g
           id="g9">
          <path
             class="cls-1"
             d="m 68.3,183.05 h 9.92 c 3.36,0 9.35,0 13.24,5.59 2.07,2.83 2.75,6.03 2.75,9.31 0,8.18 -4.05,15.06 -15.43,15.06 H 68.29 v -29.96 z m 7.65,23.24 h 3.28 c 5.71,0 7.33,-3.97 7.33,-8.22 0,-1.7 -0.36,-3.85 -1.46,-5.55 -0.89,-1.34 -2.43,-2.75 -5.83,-2.75 h -3.32 z"
             id="path1" />
          <path
             class="cls-1"
             d="m 98.42,190.54 h 6.32 v 2.39 h 0.08 c 0.57,-1.09 1.74,-3.16 5.63,-3.16 v 6.76 c -3.12,0.08 -5.3,0.73 -5.3,4.13 v 12.35 h -6.72 v -22.47 z"
             id="path2" />
          <path
             class="cls-1"
             d="m 134.66,205.97 c -1.09,2.51 -2.67,4.45 -4.58,5.75 -1.86,1.34 -4.09,2.02 -6.4,2.02 -6.44,0 -11.9,-5.22 -11.9,-11.9 0,-6.28 4.94,-12.07 11.78,-12.07 6.84,0 11.86,5.43 11.86,12.27 0,0.89 -0.08,1.26 -0.16,1.78 h -16.84 c 0.4,2.67 2.63,4.25 5.26,4.25 2.06,0 3.16,-0.93 4.09,-2.11 h 6.88 z m -5.95,-6.68 c -0.28,-1.34 -1.62,-3.85 -5.1,-3.85 -3.48,0 -4.82,2.51 -5.1,3.85 z"
             id="path3" />
          <path
             class="cls-1"
             d="m 162.76,213.01 h -6.72 v -2.43 h -0.08 c -1.13,2.19 -3.93,3.2 -6.56,3.2 -7.13,0 -11.3,-5.59 -11.3,-12.03 0,-7.37 5.31,-11.99 11.3,-11.99 3.68,0 5.75,1.78 6.56,3.16 h 0.08 v -2.39 h 6.72 V 213 Z m -12.35,-5.5 c 4.21,0 5.63,-3.56 5.63,-5.75 0,-2.71 -1.86,-5.71 -5.67,-5.71 -3.81,0 -5.55,3.24 -5.55,5.79 0,2.1 1.54,5.67 5.59,5.67 z"
             id="path4" />
          <path
             class="cls-1"
             d="m 167.66,190.54 h 6.28 v 2.39 h 0.08 c 0.53,-0.93 1.98,-3.16 6.19,-3.16 1.98,0 4.7,0.69 6.48,4.01 1.38,-2.19 3.68,-4.01 7.13,-4.01 1.58,0 4.09,0.36 5.91,2.27 2.11,2.23 2.43,3.73 2.43,8.71 v 12.27 h -6.72 v -11.94 c 0,-1.82 0,-4.98 -3.44,-4.98 -3.73,0 -3.73,3.4 -3.73,4.66 v 12.27 h -6.72 V 200.8 c 0,-1.22 0,-4.7 -3.36,-4.7 -3.81,0 -3.81,3.64 -3.81,4.98 v 11.94 h -6.72 v -22.47 z"
             id="path5" />
          <path
             class="cls-1"
             d="m 98.42,238.24 c -1.74,7.09 -7.9,11.78 -15.14,11.78 -9.39,0 -15.79,-7.49 -15.79,-15.59 0,-7.65 5.91,-15.51 15.71,-15.51 9.8,0 14.42,7.25 15.23,11.94 h -8.02 c -0.85,-2.23 -3.12,-5.22 -7.25,-5.22 -5.14,0 -8.02,4.49 -8.02,8.75 0,4.53 3.08,8.91 8.06,8.91 4.98,0 6.72,-4.01 7.21,-5.06 h 8.02 z"
             id="path6" />
          <path
             class="cls-1"
             d="m 113.16,226.25 c 8.18,0 12.11,6.44 12.11,11.95 0,5.51 -3.93,11.94 -12.11,11.94 -8.18,0 -12.11,-6.44 -12.11,-11.94 0,-5.5 3.93,-11.95 12.11,-11.95 z m 0,17.62 c 2.92,0 5.39,-2.39 5.39,-5.67 0,-3.28 -2.47,-5.67 -5.39,-5.67 -2.92,0 -5.39,2.39 -5.39,5.67 0,3.28 2.47,5.67 5.39,5.67 z"
             id="path7" />
          <path
             class="cls-1"
             d="m 129.07,226.98 h 6.28 v 2.39 h 0.08 c 0.53,-0.93 1.98,-3.16 6.19,-3.16 1.98,0 4.7,0.69 6.48,4.01 1.38,-2.19 3.68,-4.01 7.13,-4.01 1.58,0 4.09,0.36 5.91,2.27 2.11,2.23 2.43,3.73 2.43,8.71 v 12.27 h -6.72 v -11.94 c 0,-1.82 0,-4.98 -3.44,-4.98 -3.73,0 -3.73,3.4 -3.73,4.66 v 12.27 h -6.72 v -12.23 c 0,-1.22 0,-4.7 -3.36,-4.7 -3.81,0 -3.81,3.64 -3.81,4.98 v 11.94 h -6.72 v -22.47 z"
             id="path8" />
          <path
             class="cls-1"
             d="m 175.75,227.99 c 0,4.01 -2.71,4.9 -4.13,4.9 h -2.92 v -3.6 h 1.46 c 1.5,0 1.74,-1.09 1.74,-1.54 v -1.38 h -3.2 v -6.88 h 7.05 z"
             id="path9" />
        </g>
        <path
           class="cls-1"
           d="M 135.25,168.33 H 67.94 v -67.31 c 0,-37.32 30.37,-67.69 67.69,-67.69 37.32,0 67.31,30.2 67.31,67.31 0,37.11 -30.37,67.69 -67.69,67.69 z M 82.41,153.85 h 52.84 c 29.34,0 53.21,-23.87 53.21,-53.21 0,-29.34 -23.7,-52.84 -52.84,-52.84 -29.14,0 -53.21,23.87 -53.21,53.21 z"
           id="path10" />
        <path
           class="cls-1"
           d="m 156.3,112.44 c -4.09,7.31 -11.9,12.27 -20.86,12.27 -13.17,0 -23.89,-10.72 -23.89,-23.89 0,-13.17 10.72,-23.89 23.89,-23.89 8.89,0 16.66,4.89 20.77,12.11 h 15.74 c -4.98,-15.41 -19.46,-26.59 -36.51,-26.59 -21.15,0 -38.36,17.21 -38.36,38.36 0,21.15 17.21,38.36 38.36,38.36 17.1,0 31.62,-11.25 36.56,-26.74 h -15.7 z"
           id="path11" />
        <path
           class="cls-1"
           d="m 215.98,49.77 c 0,7.62 -5.16,9.32 -7.86,9.32 h -5.54 v -6.85 h 2.77 c 2.85,0 3.31,-2.08 3.31,-2.93 v -2.62 h -6.08 V 33.6 h 13.4 z"
           id="path12" />
      </g>
    </g>
  </g>
</svg>
