<?xml version="1.0" encoding="UTF-8" standalone="no"?>
<svg
   version="1.1"
   viewBox="0 0 250.00001 236.95905"
   id="svg29"
   sodipodi:docname="PartenaireCrepuscule_CHIEN.svg"
   width="250"
   height="236.95905"
   inkscape:version="1.3 (0e150ed6c4, 2023-07-21)"
   xmlns:inkscape="http://www.inkscape.org/namespaces/inkscape"
   xmlns:sodipodi="http://sodipodi.sourceforge.net/DTD/sodipodi-0.dtd"
   xmlns="http://www.w3.org/2000/svg"
   xmlns:svg="http://www.w3.org/2000/svg">
  <sodipodi:namedview
     id="namedview29"
     pagecolor="#505050"
     bordercolor="#eeeeee"
     borderopacity="1"
     inkscape:showpageshadow="0"
     inkscape:pageopacity="0"
     inkscape:pagecheckerboard="0"
     inkscape:deskcolor="#505050"
     inkscape:zoom="2.8681296"
     inkscape:cx="99.019234"
     inkscape:cy="93.963675"
     inkscape:window-width="1920"
     inkscape:window-height="1009"
     inkscape:window-x="-8"
     inkscape:window-y="-8"
     inkscape:window-maximized="1"
     inkscape:current-layer="svg29" />
  <defs
     id="defs1">
    <style
       id="style1">&#10;      .cls-1 {&#10;        fill: #fff;&#10;      }&#10;    </style>
  </defs>
  <!-- Generator: Adobe Illustrator 28.7.1, SVG Export Plug-In . SVG Version: 1.2.0 Build 142)  -->
  <g
     id="g29"
     transform="matrix(1.2613357,0,0,1.2613357,-53.769537,-60.287658)">
    <g
       id="Calque_1">
      <g
         id="g28">
        <path
           class="cls-1"
           d="m 166.31,188.7 c 0.5,-2.73 2.06,-4.98 2.8,-7.53 0.54,-1.86 0.86,-3.79 1.99,-5.43 0.3,-0.44 0.54,-0.99 0.95,-1.28 1.71,-1.19 2.27,-2.96 2.63,-4.86 0.2,-1.06 0.52,-2.09 1.14,-2.97 2.16,-3.06 2.3,-6.37 1.28,-9.82 -0.62,-2.12 -0.42,-4.24 0.28,-6.22 1.32,-3.71 1.36,-7.24 -0.63,-10.72 -0.7,-1.23 -1.02,-2.62 -1.31,-3.99 -0.27,-1.3 -0.83,-2.41 -1.59,-3.45 -1.43,-1.97 -2.87,-3.94 -4.28,-5.92 -1.47,-2.07 -3.41,-3.55 -5.87,-4.08 -4.21,-0.92 -8.23,-2.39 -12.24,-3.93 -0.35,-0.13 -0.71,-0.27 -1.07,-0.3 -7.61,-0.59 -15.25,-1.54 -22.54,1.83 -2.23,1.03 -4.62,1.52 -7,2.05 -2.88,0.64 -5.36,1.97 -7.04,4.47 -1.75,2.6 -4.13,4.83 -5.24,7.77 -1.14,3.04 -2.2,6.12 -3.31,9.18 -0.77,2.11 -0.09,4.19 0.54,6.19 0.88,2.8 1.14,5.56 0.29,8.41 -0.81,2.72 -0.5,5.31 1.09,7.71 1.07,1.61 1.57,3.45 2,5.3 0.28,1.2 0.79,2.22 1.78,3.02 1.23,1 1.87,2.37 2.25,3.9 0.48,1.92 0.8,3.89 1.89,5.61 0.11,0.17 0.16,0.41 0.31,0.52 1.64,1.22 2.17,3.12 3,4.94 -1.1,-0.11 -1.95,-0.74 -2.77,-1.34 -2.03,-1.5 -3.34,-3.51 -3.99,-5.95 -0.3,-1.12 -0.6,-2.24 -0.87,-3.36 -0.25,-1.03 -0.7,-1.97 -1.57,-2.6 -1.38,-1 -1.93,-2.45 -2.31,-3.98 -0.45,-1.81 -0.96,-3.55 -2,-5.15 -1.73,-2.67 -2.06,-5.62 -1.28,-8.69 0.05,-0.2 0.08,-0.4 0.12,-0.61 0.33,-2.03 0.32,-2 -1.48,-2.94 -4.79,-2.5 -7.42,-6.38 -7.56,-11.87 -0.06,-2.69 -0.77,-5.15 -2.17,-7.51 -1.56,-2.63 -2.36,-5.62 -3.31,-8.53 -1.6,-4.94 -2.67,-9.97 -2.59,-15.19 0.04,-2.58 0.44,-5.09 1.33,-7.52 1.29,-3.51 5.49,-6.72 9.21,-6.75 2.75,-0.02 5.09,1.25 7.15,3.03 3.09,2.67 5.44,5.98 7.84,9.23 2.46,3.35 5.31,6.31 8.28,9.19 0.72,0.7 1.42,0.82 2.34,0.6 2.5,-0.6 4.84,-1.67 7.22,-2.59 1.81,-0.7 3.67,-1.08 5.56,-1.11 4.79,-0.07 9.58,-0.32 14.37,0.2 2.22,0.24 4.2,1.19 6.24,1.97 1.5,0.57 3.01,1.14 4.57,1.55 1.07,0.28 1.83,-0.02 2.65,-0.78 3.69,-3.41 6.82,-7.28 9.81,-11.3 1.79,-2.41 3.68,-4.73 5.92,-6.78 6.85,-6.28 14.35,-2.28 16.77,4.25 1.42,3.83 1.35,7.82 0.87,11.76 -0.77,6.27 -2.78,12.21 -5.22,18.01 -0.45,1.07 -1.22,1.95 -1.63,3.05 -0.64,1.69 -0.91,3.42 -0.97,5.21 -0.18,5.79 -3.03,9.81 -8.23,12.18 -1,0.46 -1.46,0.83 -1.1,2.07 1.19,4.03 0.66,7.83 -1.88,11.29 -0.7,0.95 -0.72,2.18 -1,3.3 -0.43,1.67 -1.01,3.19 -2.45,4.32 -1.46,1.16 -1.99,2.89 -2.41,4.64 -0.57,2.38 -1.3,4.7 -3.07,6.52 -0.72,0.74 -1.49,1.37 -2.47,1.79 z m 28.26,-76.35 c 0.03,-1.71 -0.14,-3.38 -0.46,-5.05 -0.57,-2.94 -1.99,-5.28 -4.63,-6.83 -2.13,-1.25 -4.24,-1.2 -6.34,0 -2.9,1.65 -5.04,4.12 -6.98,6.75 -3.19,4.32 -6.44,8.58 -10.37,12.25 -0.73,0.68 -0.49,0.92 0.29,1.21 1.77,0.67 3.24,1.79 4.5,3.19 1.75,1.94 3.07,4.2 4.65,6.26 1.27,1.65 2.25,3.44 2.65,5.53 0.2,1.06 0.64,2.04 1.06,3.03 0.98,2.35 2.19,4.65 1.99,7.33 -0.14,1.83 -0.71,3.55 -1.17,5.31 -0.09,0.33 -0.36,0.77 -0.07,1.04 0.32,0.29 0.69,-0.07 1,-0.24 3.68,-2.06 5.7,-5.18 5.82,-9.42 0.08,-2.72 0.48,-5.36 1.87,-7.73 0.8,-1.36 1.45,-2.77 2.02,-4.23 2.32,-5.91 3.95,-11.98 4.18,-18.37 z m -90.8,40.14 c 0.12,-0.94 -0.14,-1.63 -0.37,-2.33 -0.75,-2.31 -1.19,-4.65 -0.58,-7.06 0.47,-1.85 1.35,-3.54 2.08,-5.29 0.79,-1.9 0.86,-4.06 2.08,-5.8 1.71,-2.43 3.4,-4.87 5.16,-7.26 1.06,-1.44 2.4,-2.59 3.97,-3.49 0.71,-0.4 1.94,-0.45 2.05,-1.16 0.11,-0.69 -1.05,-1.11 -1.58,-1.71 -2.52,-2.83 -5.09,-5.6 -7.29,-8.71 -2.16,-3.07 -4.44,-6.07 -7.48,-8.36 -1.94,-1.46 -4.07,-2.35 -6.47,-1.39 -2.69,1.08 -4.63,2.96 -5.45,5.85 -0.56,1.96 -0.85,3.96 -0.83,5.99 0.06,7.36 1.96,14.33 5.07,20.9 1.7,3.61 2.91,7.15 3.13,11.17 0.23,4.07 2.68,6.87 6.5,8.67 z"
           id="path1" />
        <path
           class="cls-1"
           d="m 136.57,221.81 c 0,2.66 0,5.1 0,7.53 0,1.12 0,2.23 0,3.35 -0.02,3.11 -0.03,3.1 -3.19,2.86 -0.53,-0.04 -0.7,-0.18 -0.7,-0.72 0.05,-6.11 0.09,-12.23 0.1,-18.35 0,-0.63 0.25,-0.81 0.8,-0.76 0.08,0 0.17,0.01 0.25,0 2.08,-0.37 3.36,0.41 4.41,2.32 1.98,3.57 4.26,6.97 6.42,10.43 0.19,0.3 0.29,0.68 0.68,0.83 0.42,-0.19 0.26,-0.56 0.27,-0.86 0.03,-3.84 0.07,-7.69 0.07,-11.53 0,-0.81 0.14,-1.14 1.09,-1.09 2.85,0.14 2.87,0.08 2.85,2.94 -0.04,5.29 -0.11,10.58 -0.13,15.86 0,0.78 -0.16,1.05 -1.01,1.04 -2.93,-0.04 -2.93,0 -4.44,-2.43 -2.09,-3.37 -4.16,-6.74 -6.26,-10.1 -0.25,-0.4 -0.42,-0.89 -1.2,-1.32 z"
           id="path2" />
        <path
           class="cls-1"
           d="m 146.97,61.67 c 0,-2.11 0,-4.03 0,-5.96 0,-2.23 0.04,-4.46 0,-6.69 -0.02,-0.83 0.28,-1.04 1.08,-1.04 2.87,0.02 2.87,0 2.86,2.82 -0.02,5.25 -0.07,10.49 -0.05,15.74 0,0.98 -0.21,1.22 -1.27,1.35 -2.19,0.26 -3.3,-0.7 -4.32,-2.51 -1.98,-3.52 -4.2,-6.9 -6.35,-10.33 -0.2,-0.31 -0.27,-0.8 -0.82,-0.83 -0.28,0.37 -0.15,0.79 -0.15,1.18 -0.02,3.72 -0.06,7.44 -0.02,11.15 0.01,1.02 -0.33,1.25 -1.28,1.21 -2.65,-0.1 -2.66,-0.06 -2.65,-2.65 0.02,-5.37 0.05,-10.74 0.04,-16.11 0,-0.82 0.2,-1.01 1.07,-1.14 2.33,-0.34 3.54,0.71 4.61,2.65 1.9,3.42 4.07,6.7 6.14,10.03 0.23,0.37 0.37,0.84 1.09,1.14 z"
           id="path3" />
        <path
           class="cls-1"
           d="m 108.94,219.24 c -2.43,-1.72 -2.62,-3.83 -1.72,-6.26 0.46,-1.24 0.72,-2.54 0.39,-3.99 1.27,0.13 2.39,0.62 3.52,1.04 0.55,0.2 0.49,0.78 0.44,1.28 -0.1,1.21 -0.57,2.32 -0.91,3.46 -0.6,2.06 0.08,3.49 2.05,4.26 0.5,0.19 1.03,0.31 1.54,0.46 q 2.18,0.64 2.89,-1.55 c 0.49,-1.53 1.02,-3.04 1.48,-4.58 0.19,-0.63 0.43,-0.7 1.06,-0.52 2.94,0.87 2.94,0.84 1.97,3.74 -1.67,5.01 -3.35,10.01 -4.98,15.03 -0.24,0.72 -0.45,0.99 -1.28,0.68 -2.16,-0.8 -4.37,-1.48 -6.56,-2.23 -1.19,-0.41 -2.25,-1.07 -3.16,-1.91 -1.63,-1.51 -2.17,-3.34 -1.52,-5.5 0.63,-2.1 2.15,-3.03 4.22,-3.24 0.11,-0.01 0.21,-0.06 0.55,-0.17 z m -1.21,5.32 c -0.03,1.07 0.33,1.78 1.19,2.43 0.64,0.48 1.39,0.69 2.13,0.93 2.52,0.82 2.58,0.85 3.28,-1.62 0.34,-1.18 1.54,-2.56 0.82,-3.49 -0.65,-0.83 -2.28,-0.94 -3.51,-1.26 -2.16,-0.57 -3.85,0.76 -3.91,3.01 z"
           id="path4" />
        <path
           class="cls-1"
           d="m 174.64,64.22 c 2.56,1.7 2.54,4.04 1.53,6.63 -0.44,1.13 -0.44,2.34 -0.27,3.73 -1.24,-0.41 -2.39,-0.76 -3.52,-1.16 -0.48,-0.17 -0.44,-0.65 -0.44,-1.06 0,-1.09 0.4,-2.1 0.75,-3.11 0.92,-2.68 0.2,-4.18 -2.46,-5.06 -0.43,-0.14 -0.88,-0.24 -1.31,-0.36 q -1.81,-0.51 -2.41,1.31 c -0.53,1.6 -1.09,3.19 -1.57,4.81 -0.21,0.69 -0.47,0.87 -1.21,0.64 -2.88,-0.9 -2.86,-0.86 -1.9,-3.71 1.69,-5 3.36,-10 5,-15.02 0.25,-0.76 0.47,-1.05 1.36,-0.71 2.27,0.86 4.63,1.49 6.89,2.39 1.99,0.79 3.69,2.03 4.38,4.24 0.93,3.01 -0.96,5.85 -4.09,6.15 -0.23,0.02 -0.5,-0.08 -0.73,0.28 z m -1.9,-2.24 c 1.39,0.09 2.37,-0.59 2.89,-2.01 0.5,-1.34 0.13,-2.72 -1,-3.52 -1.27,-0.9 -2.83,-1.08 -4.22,-1.67 -0.34,-0.14 -0.44,0.06 -0.52,0.31 -0.56,1.67 -1.11,3.35 -1.69,5.02 -0.12,0.35 -0.06,0.58 0.27,0.68 1.41,0.42 2.76,1.09 4.26,1.19 z"
           id="path5" />
        <path
           class="cls-1"
           d="m 97.38,57.73 c 0.47,0.01 0.53,0.35 0.67,0.58 3.01,5.21 6.01,10.44 9.02,15.65 0.31,0.54 0.27,0.81 -0.3,1.16 -2.6,1.61 -2.58,1.63 -4.1,-1.06 -0.75,-1.33 -1.55,-2.63 -2.29,-3.97 -0.34,-0.63 -0.68,-0.65 -1.27,-0.31 -2.02,1.19 -4.07,2.35 -6.13,3.48 -0.74,0.41 -0.88,0.8 -0.42,1.55 1.02,1.65 1.92,3.37 2.93,5.03 0.5,0.83 0.61,1.37 -0.41,1.94 -2.12,1.17 -2.16,1.27 -3.37,-0.81 -2.78,-4.77 -5.48,-9.59 -8.23,-14.38 -0.34,-0.58 -0.2,-0.89 0.34,-1.16 3.27,-1.64 2.11,-2.16 3.98,0.92 0.88,1.45 1.71,2.92 2.51,4.41 0.32,0.59 0.62,0.64 1.16,0.33 2.14,-1.25 4.27,-2.5 6.44,-3.69 0.61,-0.33 0.57,-0.64 0.27,-1.15 -1.02,-1.74 -2,-3.51 -3.03,-5.25 -0.89,-1.5 -0.9,-1.49 0.59,-2.33 0.57,-0.32 1.14,-0.66 1.64,-0.95 z"
           id="path6" />
        <path
           class="cls-1"
           d="m 186.1,225.84 c -0.41,-0.01 -0.5,-0.33 -0.64,-0.56 -3.04,-5.25 -6.07,-10.5 -9.09,-15.75 -0.06,-0.11 -0.17,-0.25 -0.14,-0.34 0.42,-1.26 1.81,-1.2 2.64,-1.92 0.51,-0.44 0.71,0.11 0.9,0.44 1.07,1.81 2.17,3.61 3.14,5.47 0.45,0.87 0.8,1.03 1.66,0.5 1.93,-1.19 3.89,-2.33 5.9,-3.38 0.87,-0.46 0.86,-0.91 0.44,-1.63 -1.03,-1.74 -2,-3.52 -3.07,-5.23 -0.5,-0.8 -0.34,-1.13 0.46,-1.57 2.35,-1.28 2.34,-1.33 3.71,1.05 2.59,4.5 5.14,9.02 7.75,13.51 0.56,0.96 0.46,1.42 -0.56,1.97 -2.13,1.14 -2.1,1.21 -3.3,-0.87 -0.89,-1.53 -1.81,-3.05 -2.65,-4.62 -0.36,-0.68 -0.69,-0.76 -1.34,-0.38 -2.1,1.23 -4.21,2.44 -6.34,3.61 -0.7,0.38 -0.55,0.75 -0.24,1.28 1.14,1.92 2.21,3.87 3.37,5.77 0.43,0.7 0.36,1.07 -0.38,1.42 -0.78,0.37 -1.51,0.83 -2.24,1.24 z"
           id="path7" />
        <path
           class="cls-1"
           d="m 61.09,191.65 c -1.88,-0.04 -3.62,-0.55 -4.96,-1.88 -2.3,-2.28 -3.96,-4.88 -3.5,-8.34 0.17,-1.29 0.85,-2.29 1.82,-3.14 0.53,-0.46 0.97,-0.63 1.31,0.19 0.09,0.23 0.26,0.42 0.39,0.63 0.57,0.94 0.99,1.64 0.06,2.86 -1.61,2.1 0.45,5.69 3.24,6 1.27,0.14 2.47,-0.05 3.57,-0.73 1.44,-0.89 2.92,-1.71 4.32,-2.67 1.59,-1.08 2.63,-2.57 2.4,-4.58 -0.24,-2.06 -1.48,-3.53 -3.21,-4.61 -0.34,-0.21 -0.7,-0.23 -1.03,0.06 -0.06,0.05 -0.14,0.08 -0.21,0.13 -0.93,0.61 -2.33,1.04 -2.64,1.88 -0.23,0.63 0.85,1.84 1.48,2.68 0.73,0.98 -0.19,1.07 -0.64,1.42 -0.49,0.39 -0.93,0.76 -1.44,-0.12 -1.06,-1.82 -2.2,-3.59 -3.37,-5.34 -0.38,-0.57 -0.26,-0.83 0.27,-1.15 1.76,-1.08 3.51,-2.18 5.24,-3.3 0.44,-0.28 0.81,-0.24 1.27,-0.1 3.78,1.17 7.25,5.6 7.41,9.54 0.09,2.27 -0.61,4.29 -2.35,5.77 -2.08,1.77 -4.39,3.21 -6.89,4.33 -0.8,0.36 -1.65,0.51 -2.54,0.46 z"
           id="path8" />
        <path
           class="cls-1"
           d="m 222.39,91.9 c 2.36,0.04 4.37,0.91 5.85,2.74 1.89,2.32 3.38,4.83 2.56,8.03 -0.29,1.12 -0.99,1.97 -1.85,2.71 -0.53,0.46 -0.83,0.37 -1.12,-0.23 -0.18,-0.37 -0.42,-0.71 -0.66,-1.05 -0.59,-0.81 -0.6,-1.42 0.08,-2.33 1.64,-2.18 -0.22,-5.82 -3.07,-6.19 -1.32,-0.18 -2.55,0.06 -3.69,0.75 -1.38,0.83 -2.78,1.62 -4.11,2.53 -4.23,2.89 -2.72,7.07 0.47,9.2 0.36,0.24 0.74,0.35 1.15,0.09 0.9,-0.58 1.79,-1.19 2.72,-1.72 0.52,-0.29 0.31,-0.55 0.1,-0.87 -0.47,-0.73 -0.9,-1.48 -1.42,-2.18 -0.7,-0.96 0.22,-1.07 0.69,-1.4 0.44,-0.31 0.83,-0.84 1.35,0.04 1.08,1.85 2.25,3.65 3.44,5.44 0.4,0.6 0.2,0.82 -0.31,1.14 -1.73,1.05 -3.44,2.13 -5.14,3.22 -0.36,0.23 -0.67,0.36 -1.14,0.24 -4.24,-1.07 -8.09,-6.64 -7.55,-10.9 0.24,-1.9 1.05,-3.51 2.52,-4.68 2,-1.6 4.17,-2.96 6.49,-4.05 0.83,-0.39 1.72,-0.56 2.65,-0.54 z"
           id="path9" />
        <path
           class="cls-1"
           d="m 189.55,81.54 c -5.59,-0.03 -11.18,-5.59 -8.36,-11.93 0.82,-1.84 1.86,-3.6 3.11,-5.18 2.47,-3.14 6.25,-3.9 10.13,-2.18 3.93,1.75 6.13,5.72 5.02,9.66 -0.84,3 -2.58,5.61 -4.77,7.83 -1.22,1.24 -3.23,1.79 -5.13,1.79 z m -0.83,-2.99 c 1.47,0.09 2.77,-0.62 3.66,-1.79 1.35,-1.76 2.57,-3.65 3.43,-5.71 0.95,-2.28 0.17,-4.7 -1.75,-5.89 -2.19,-1.36 -4.33,-1.09 -6.11,0.91 -1.57,1.77 -2.77,3.82 -3.65,6 -1.27,3.15 0.97,6.4 4.43,6.48 z"
           id="path10" />
        <path
           class="cls-1"
           d="m 83.84,213.28 c -0.05,-1.23 0.3,-2.57 1.06,-3.8 1.1,-1.78 1.95,-3.75 3.45,-5.24 3.09,-3.07 8.3,-2.98 11.79,0.15 3.14,2.81 3.82,6.56 1.82,10.29 -0.74,1.38 -1.53,2.74 -2.41,4.02 -2.64,3.85 -7.75,4.62 -11.71,1.87 -2.49,-1.73 -4.08,-3.93 -4,-7.3 z m 3.5,1.2 c 0,2.09 1.19,3.73 3.24,4.48 1.75,0.64 3.93,0.06 5.12,-1.5 1.32,-1.74 2.47,-3.61 3.38,-5.59 1.09,-2.38 0.38,-4.75 -1.68,-6.08 -2.06,-1.33 -4.61,-1.04 -6.21,0.97 -1.46,1.83 -2.69,3.84 -3.57,6.03 -0.22,0.54 -0.3,1.11 -0.28,1.7 z"
           id="path11" />
        <path
           class="cls-1"
           d="m 77.22,188.67 c 4.15,0.03 8.88,4.52 9.17,8.66 0.14,1.94 -0.5,3.58 -1.83,4.94 -2.82,2.9 -5.68,5.76 -8.5,8.66 -0.58,0.6 -0.93,0.77 -1.64,0.06 -1.95,-1.96 -2,-1.92 -0.09,-3.86 2.37,-2.41 4.76,-4.81 7.12,-7.23 2.03,-2.07 2.07,-4.36 0.12,-6.31 -2.05,-2.05 -4.32,-2.08 -6.39,-0.01 -2.74,2.74 -5.46,5.52 -8.14,8.32 -0.71,0.74 -1.15,0.73 -1.87,0 -1.79,-1.83 -1.84,-1.8 -0.04,-3.64 2.43,-2.48 4.85,-4.95 7.3,-7.41 1.61,-1.62 2.93,-2.2 4.8,-2.19 z"
           id="path12" />
        <path
           class="cls-1"
           d="m 197.21,86.7 c -0.05,-2.71 0.71,-4.2 1.94,-5.45 2.81,-2.86 5.66,-5.67 8.46,-8.53 0.57,-0.59 0.89,-0.75 1.53,-0.06 1.92,2.04 1.98,2.03 0.03,4.03 -2.3,2.37 -4.68,4.66 -6.98,7.04 -2.75,2.84 -1.57,6.85 2.29,7.82 1.57,0.4 2.83,-0.29 3.89,-1.37 2.82,-2.85 5.63,-5.69 8.41,-8.58 0.57,-0.6 0.85,-0.61 1.43,0 2.02,2.13 2.04,2.1 -0.02,4.16 -2.37,2.37 -4.7,4.76 -7.08,7.12 -2.47,2.45 -5.21,2.93 -8.21,1.2 -3.18,-1.82 -5.47,-4.37 -5.68,-7.37 z"
           id="path13" />
        <path
           class="cls-1"
           d="m 60.76,154.73 c 0.36,-0.02 0.39,0.29 0.47,0.49 1.4,3.74 2.79,7.49 4.2,11.23 0.23,0.62 -0.05,0.78 -0.55,0.96 -5.65,2.08 -11.29,4.16 -16.93,6.27 -0.64,0.24 -0.92,0.16 -1.16,-0.52 -1.28,-3.53 -2.58,-7.05 -3.93,-10.55 -0.3,-0.78 -0.25,-1.14 0.62,-1.42 1.59,-0.51 1.58,-0.57 2.17,0.98 0.81,2.16 1.62,4.32 2.39,6.49 0.19,0.54 0.37,0.7 0.95,0.46 1.22,-0.51 2.46,-0.97 3.72,-1.37 0.67,-0.21 0.68,-0.49 0.46,-1.06 -0.73,-1.88 -1.39,-3.79 -2.12,-5.67 -0.24,-0.62 -0.32,-0.96 0.48,-1.26 1.77,-0.64 1.74,-0.7 2.36,1.02 0.6,1.67 1.27,3.32 1.85,4.99 0.22,0.63 0.5,0.72 1.09,0.49 1.38,-0.56 2.77,-1.08 4.17,-1.57 0.62,-0.21 0.73,-0.47 0.49,-1.08 -0.88,-2.22 -1.66,-4.48 -2.56,-6.7 -0.4,-0.98 -0.39,-1.6 0.82,-1.8 0.36,-0.06 0.69,-0.26 1.02,-0.4 z"
           id="path14" />
        <path
           class="cls-1"
           d="m 127.92,50.96 c 0.16,0.64 -0.36,0.5 -0.68,0.57 -2.53,0.55 -5.06,1.12 -7.61,1.63 -0.56,0.11 -0.75,0.21 -0.58,0.84 0.33,1.28 0.57,2.58 0.79,3.88 0.11,0.62 0.31,0.82 0.98,0.66 1.92,-0.45 3.88,-0.76 5.79,-1.25 0.9,-0.23 1.16,-0.05 1.37,0.86 0.28,1.17 0.22,1.75 -1.18,1.93 -1.84,0.23 -3.63,0.76 -5.45,1.12 -0.61,0.12 -0.79,0.31 -0.62,0.97 0.36,1.4 0.66,2.81 0.89,4.23 0.14,0.81 0.45,0.94 1.22,0.76 2.37,-0.56 4.77,-1 7.13,-1.55 0.76,-0.18 1.1,-0.09 1.27,0.74 0.34,1.7 0.38,1.69 -1.36,2.06 -3.42,0.73 -6.85,1.43 -10.26,2.2 -0.87,0.2 -1.1,-0.02 -1.27,-0.87 -1.17,-5.68 -2.39,-11.35 -3.63,-17.02 -0.2,-0.94 -0.05,-1.35 1.01,-1.55 3.32,-0.63 6.62,-1.39 9.93,-2.09 1.82,-0.39 2.26,-0.02 2.25,1.89 z"
           id="path15" />
        <path
           class="cls-1"
           d="m 58.79,94.09 c -0.18,0.3 -0.3,0.52 -0.43,0.73 -1.25,2.14 -2.49,4.29 -3.77,6.41 -0.35,0.57 -0.37,0.87 0.3,1.22 1.1,0.57 2.16,1.22 3.18,1.91 0.61,0.41 0.89,0.25 1.22,-0.34 0.95,-1.69 2.03,-3.31 2.91,-5.04 0.71,-1.38 1.38,-0.47 2.14,-0.16 0.98,0.39 0.65,0.89 0.28,1.51 -1.01,1.66 -1.94,3.36 -2.99,4.99 -0.47,0.73 -0.24,1.04 0.41,1.4 1.26,0.7 2.52,1.41 3.73,2.2 0.56,0.36 0.78,0.28 1.1,-0.28 1.27,-2.22 2.64,-4.38 3.9,-6.61 0.76,-1.34 1.33,-0.13 1.97,0.07 0.79,0.25 0.81,0.7 0.38,1.4 -1.96,3.21 -3.89,6.43 -5.76,9.69 -0.42,0.72 -0.73,0.76 -1.4,0.35 -5.13,-3.08 -10.27,-6.14 -15.44,-9.16 -0.69,-0.4 -0.56,-0.71 -0.25,-1.23 1.93,-3.22 3.89,-6.43 5.75,-9.69 0.46,-0.82 0.82,-0.85 1.46,-0.33 0.42,0.34 1.05,0.44 1.3,0.97 z"
           id="path16" />
        <path
           class="cls-1"
           d="m 234.94,114.31 c -1.57,0.55 -3.06,1.04 -4.52,1.61 -0.61,0.24 -0.17,0.73 -0.05,1.06 0.67,1.86 1.38,3.71 2.1,5.55 0.23,0.6 0.31,0.97 -0.49,1.27 -1.74,0.64 -1.72,0.71 -2.36,-1.02 -0.62,-1.66 -1.25,-3.32 -1.85,-4.99 -0.19,-0.52 -0.34,-0.84 -1.03,-0.54 -1.36,0.59 -2.76,1.09 -4.17,1.55 -0.76,0.25 -0.77,0.58 -0.5,1.25 0.93,2.34 1.76,4.72 2.67,7.06 0.56,1.46 -0.83,1.05 -1.35,1.45 -0.59,0.45 -0.99,0.25 -1.25,-0.48 -1.29,-3.56 -2.59,-7.12 -3.95,-10.65 -0.32,-0.83 -0.11,-1.11 0.67,-1.39 5.58,-2.02 11.15,-4.07 16.71,-6.16 0.69,-0.26 0.93,-0.07 1.16,0.55 1.3,3.56 2.6,7.12 3.97,10.66 0.32,0.83 0.04,1.06 -0.66,1.3 -1.58,0.54 -1.58,0.56 -2.16,-0.98 -0.8,-2.12 -1.58,-4.24 -2.39,-6.35 -0.11,-0.29 -0.08,-0.78 -0.54,-0.74 z"
           id="path17" />
        <path
           class="cls-1"
           d="m 229.31,181.58 c -0.04,-0.25 -0.22,-0.35 -0.4,-0.45 -1.17,-0.7 -2.35,-1.37 -3.49,-2.11 -0.59,-0.38 -0.83,-0.19 -1.13,0.35 -1,1.76 -2.08,3.47 -3.05,5.24 -0.71,1.29 -1.35,0.24 -1.99,0 -0.67,-0.24 -0.88,-0.62 -0.41,-1.36 1.09,-1.7 2.02,-3.49 3.11,-5.19 0.44,-0.69 0.3,-0.94 -0.36,-1.29 -1.2,-0.63 -2.41,-1.27 -3.5,-2.07 -0.89,-0.65 -1.22,-0.28 -1.64,0.46 -1.19,2.08 -2.48,4.09 -3.6,6.2 -0.59,1.11 -1.13,0.54 -1.72,0.18 -0.59,-0.36 -1.37,-0.51 -0.68,-1.61 2.02,-3.21 3.91,-6.5 5.82,-9.78 0.34,-0.58 0.57,-0.72 1.21,-0.34 5.2,3.11 10.42,6.19 15.64,9.26 0.49,0.29 0.6,0.5 0.28,1.03 -2.01,3.32 -3.99,6.65 -5.93,10 -0.37,0.64 -0.69,0.65 -1.24,0.28 -1.66,-1.12 -1.72,-0.52 -0.62,-2.41 1.12,-1.92 2.24,-3.84 3.35,-5.76 0.12,-0.21 0.26,-0.42 0.38,-0.62 z"
           id="path18" />
        <path
           class="cls-1"
           d="m 152.97,217.95 c -0.27,0.09 -0.43,-0.15 -0.51,-0.45 -0.12,-0.52 -0.21,-1.05 -0.32,-1.58 -0.1,-0.47 0.09,-0.64 0.56,-0.74 3.83,-0.79 7.66,-1.59 11.48,-2.44 0.89,-0.2 0.93,0.35 1.05,0.9 1.11,5.28 2.22,10.56 3.31,15.85 0.52,2.5 0.5,2.49 -2,3.02 -3.11,0.65 -6.23,1.26 -9.32,2.02 -1.29,0.32 -1.21,-0.52 -1.38,-1.23 -0.17,-0.72 -0.42,-1.35 0.79,-1.54 2.36,-0.37 4.67,-0.99 7.02,-1.42 0.89,-0.16 1.05,-0.54 0.84,-1.34 -0.27,-1.04 -0.5,-2.09 -0.67,-3.15 -0.14,-0.88 -0.49,-1.13 -1.39,-0.92 -1.88,0.46 -3.8,0.75 -5.67,1.25 -0.83,0.22 -0.97,-0.1 -1.11,-0.75 -0.39,-1.71 -0.41,-1.71 1.33,-2.11 1.69,-0.38 3.38,-0.8 5.09,-1.09 0.8,-0.13 0.93,-0.4 0.75,-1.12 -0.32,-1.28 -0.61,-2.57 -0.81,-3.88 -0.14,-0.93 -0.47,-1.2 -1.44,-0.96 -2.24,0.56 -4.51,1 -6.77,1.49 -0.24,0.05 -0.49,0.1 -0.84,0.17 z"
           id="path19" />
        <path
           class="cls-1"
           d="m 206.17,211.01 c -1.54,0.05 -2.78,-0.6 -3.9,-1.59 -0.47,-0.42 -0.42,-0.7 0.03,-1.05 0.26,-0.2 0.53,-0.41 0.74,-0.66 0.82,-1.02 1.51,-1.32 2.86,-0.47 2.21,1.38 5.52,-0.95 5.58,-3.73 0,-0.41 0,-0.86 -0.16,-1.22 -1.42,-3.28 -3.72,-5.87 -6.82,-7.56 -2.15,-1.17 -4.61,-0.04 -5.71,2.18 -0.61,1.23 -0.45,2.44 0.34,3.5 0.44,0.59 0.33,0.9 -0.18,1.29 -0.36,0.27 -0.69,0.58 -1.03,0.88 -1.2,1.07 -1.23,1.08 -2.09,-0.31 -0.58,-0.93 -0.85,-1.97 -0.83,-3.06 0.06,-3.92 5.66,-9.92 11.43,-7.71 3.12,1.19 7.64,6.5 8.32,9.79 0.18,0.89 0.1,1.72 -0.07,2.57 -0.72,3.65 -4.89,7.16 -8.5,7.16 z"
           id="path20" />
        <path
           class="cls-1"
           d="m 68.76,80.94 c 0,-1.05 0.21,-2.07 0.71,-2.98 1.55,-2.85 3.81,-4.84 7.06,-5.51 1.89,-0.39 3.46,0.33 4.85,1.59 0.46,0.42 0.32,0.65 -0.05,0.96 -0.34,0.29 -0.68,0.6 -1,0.93 -0.71,0.74 -1.26,1.31 -2.38,0.33 -1.09,-0.96 -2.68,-0.65 -3.99,0.37 -1.57,1.22 -2.16,2.82 -1.65,4.58 0.11,0.39 0.24,0.8 0.47,1.14 1.48,2.26 3.22,4.31 5.42,5.87 2.17,1.54 4.45,1.1 6.13,-0.97 1.07,-1.32 1.24,-2.72 0.24,-4.09 -0.55,-0.76 -0.36,-1.14 0.26,-1.59 0.3,-0.22 0.57,-0.47 0.86,-0.7 1.24,-1.02 1.42,-0.99 2.23,0.46 0.65,1.16 0.83,2.42 0.61,3.72 -0.77,4.51 -6.04,8.08 -10.48,7.11 -1.32,-0.29 -2.51,-0.9 -3.44,-1.85 -1.44,-1.47 -2.85,-2.98 -4.17,-4.56 -1.14,-1.37 -1.67,-3.01 -1.66,-4.81 z"
           id="path21" />
        <path
           class="cls-1"
           d="m 44.12,118.38 c 0.27,0.1 0.54,0.2 0.81,0.3 4.64,1.69 9.3,3.35 13.92,5.1 0.9,0.34 1.14,0.02 1.39,-0.72 0.82,-2.34 1.72,-4.64 2.5,-6.99 0.56,-1.68 1.46,-0.26 2.17,-0.26 0.85,0 0.59,0.63 0.4,1.16 -1.33,3.63 -2.65,7.27 -3.95,10.92 -0.21,0.58 -0.4,0.75 -1.05,0.51 -5.68,-2.09 -11.37,-4.15 -17.06,-6.18 -0.62,-0.22 -0.76,-0.47 -0.49,-1.07 0.32,-0.71 0.54,-1.47 0.82,-2.2 0.1,-0.25 0.12,-0.6 0.53,-0.57 z"
           id="path22" />
        <path
           class="cls-1"
           d="m 223.87,159.4 c -0.5,-0.07 -0.43,0.45 -0.54,0.74 -0.85,2.32 -1.74,4.64 -2.47,6.99 -0.54,1.72 -1.49,0.58 -2.29,0.46 -1.23,-0.19 -0.44,-0.95 -0.29,-1.37 1.22,-3.5 2.52,-6.96 3.74,-10.46 0.27,-0.76 0.45,-1.02 1.35,-0.69 5.55,2.07 11.14,4.06 16.72,6.05 0.65,0.23 0.9,0.44 0.63,1.21 -0.99,2.78 -0.96,2.81 -3.74,1.81 -4.03,-1.45 -8.06,-2.93 -12.09,-4.39 -0.31,-0.11 -0.62,-0.22 -1.01,-0.36 z"
           id="path23" />
        <path
           class="cls-1"
           d="m 126.83,191.8 c 4.69,-0.05 8.18,-2.21 10.68,-6.09 0.7,-1.08 1.4,-2.15 2.45,-2.93 1.59,-1.17 3.3,-1.1 4.89,0.19 0.74,0.6 1.33,1.35 1.86,2.14 2.92,4.39 6.93,6.72 12.3,6.42 0.67,-0.04 1,0.11 1.12,0.76 0.12,0.71 -0.43,0.73 -0.84,0.79 -3.33,0.47 -6.38,-0.13 -9.32,-1.9 -2.37,-1.42 -4.13,-3.26 -5.59,-5.55 -1.22,-1.91 -2.6,-1.88 -4.07,-0.12 -0.85,1.01 -1.38,2.24 -2.29,3.22 -3.2,3.44 -7.06,5.23 -11.83,4.65 -0.49,-0.06 -1.35,0.24 -1.28,-0.86 0.08,-1.15 0.87,-0.69 1.45,-0.73 0.16,-0.01 0.33,0 0.5,0 z"
           id="path24" />
        <path
           class="cls-1"
           d="m 114.76,72.06 c -0.9,0.62 -2.03,0.79 -3.03,1.23 -0.56,0.24 -0.7,-0.16 -0.85,-0.58 -0.68,-1.86 -1.38,-3.71 -2.06,-5.58 -1.36,-3.76 -2.69,-7.53 -4.09,-11.28 -0.28,-0.75 -0.2,-1.05 0.59,-1.32 2.68,-0.92 2.66,-0.96 3.62,1.66 1.82,4.95 3.65,9.9 5.47,14.85 0.1,0.27 0.18,0.54 0.34,1.01 z"
           id="path25" />
        <path
           class="cls-1"
           d="m 172.1,210.02 c 0.5,0.06 0.47,0.53 0.58,0.84 1.86,5.06 3.71,10.13 5.54,15.21 0.29,0.79 1.07,1.7 0.66,2.38 -0.33,0.56 -1.48,0.57 -2.2,0.96 -0.96,0.52 -1.25,0.21 -1.59,-0.74 -1.94,-5.43 -3.93,-10.83 -5.99,-16.22 -0.38,-0.99 -0.19,-1.37 0.78,-1.62 0.75,-0.19 1.47,-0.53 2.2,-0.8 z"
           id="path26" />
        <path
           class="cls-1"
           d="m 138.63,165.83 c 0.69,0.94 0.63,1.55 -0.25,1.85 -1.13,0.39 -0.85,1.1 -0.47,1.81 0.51,0.96 1.37,1.64 2.12,2.4 0.11,0.11 0.29,0.18 0.24,0.39 -1.73,-0.05 -3.34,-1.6 -3.3,-3.24 0.01,-0.64 0.11,-1.04 -0.79,-1.27 -1.54,-0.39 -1.97,-2.55 -0.84,-3.9 0.99,-1.18 2.3,-1.9 3.84,-1.33 2.12,0.79 4.11,0.75 6.25,-0.02 1.97,-0.71 4.16,0.93 4.4,3.02 0.12,1.06 -0.58,2.02 -1.77,2.33 -0.39,0.1 -0.64,0.07 -0.56,0.65 0.26,1.93 -1.24,3.63 -3.26,3.76 0.73,-0.8 1.49,-1.54 2.15,-2.37 0.87,-1.09 0.75,-1.72 -0.35,-2.33 -0.81,-0.44 -0.68,-0.96 -0.24,-1.57 0.09,0.04 0.15,0.05 0.17,0.08 0.31,0.71 0.73,1.35 1.58,1.37 0.6,0 1.11,-0.37 1.31,-0.97 0.28,-0.85 0.07,-1.63 -0.53,-2.29 -0.72,-0.8 -1.66,-1.18 -2.68,-0.96 -2.26,0.5 -4.49,0.47 -6.75,0 -0.98,-0.21 -1.9,0.19 -2.58,0.91 -0.58,0.61 -0.97,1.32 -0.63,2.23 0.2,0.55 0.56,0.99 1.13,1.02 0.93,0.05 1.54,-0.48 1.83,-1.58 z"
           id="path27" />
        <path
           class="cls-1"
           d="m 135.34,199.5 h 14.73 c 0,0.07 0,0.14 0,0.2 h -14.76 c 0,-0.07 0.02,-0.14 0.03,-0.2 z"
           id="path28" />
      </g>
    </g>
  </g>
</svg>
