<?xml version="1.0" encoding="UTF-8" standalone="no"?>
<svg
   width="403.52878"
   zoomAndPan="magnify"
   viewBox="0 0 302.64658 187.5"
   height="250"
   preserveAspectRatio="xMidYMid"
   version="1.0"
   id="svg50"
   sodipodi:docname="LOGO RG.svg"
   inkscape:version="1.3 (0e150ed6c4, 2023-07-21)"
   xmlns:inkscape="http://www.inkscape.org/namespaces/inkscape"
   xmlns:sodipodi="http://sodipodi.sourceforge.net/DTD/sodipodi-0.dtd"
   xmlns="http://www.w3.org/2000/svg"
   xmlns:svg="http://www.w3.org/2000/svg">
  <sodipodi:namedview
     id="namedview50"
     pagecolor="#505050"
     bordercolor="#eeeeee"
     borderopacity="1"
     inkscape:showpageshadow="0"
     inkscape:pageopacity="0"
     inkscape:pagecheckerboard="0"
     inkscape:deskcolor="#505050"
     inkscape:zoom="1.626"
     inkscape:cx="170.0492"
     inkscape:cy="107.31857"
     inkscape:window-width="1920"
     inkscape:window-height="1009"
     inkscape:window-x="-8"
     inkscape:window-y="-8"
     inkscape:window-maximized="1"
     inkscape:current-layer="svg50" />
  <defs
     id="defs4">
    <g
       id="g1" />
    <clipPath
       id="cef49eaf14">
      <path
         d="M 183.17969,107.10156 H 310 V 148 H 183.17969 Z m 0,0"
         clip-rule="nonzero"
         id="path1" />
    </clipPath>
    <clipPath
       id="cee81e293c">
      <path
         d="M 183.17969,172 H 315 v 67 H 183.17969 Z m 0,0"
         clip-rule="nonzero"
         id="path2" />
    </clipPath>
    <clipPath
       id="f2154bfd55">
      <path
         d="M 183.17969,138 H 206 v 24 h -22.82031 z m 0,0"
         clip-rule="nonzero"
         id="path3" />
    </clipPath>
    <clipPath
       id="b2cadeb6e9">
      <path
         d="M 60.152344,107.10156 H 190.19141 V 239 H 60.152344 Z m 0,0"
         clip-rule="nonzero"
         id="path4" />
    </clipPath>
  </defs>
  <g
     clip-path="url(#cef49eaf14)"
     id="g5"
     transform="matrix(1.1883238,0,0,1.1883238,-71.480462,-127.30383)">
    <path
       fill="#ffffff"
       d="m 205.78125,129.73047 h 43.25781 c 14.35938,0 27.10547,7.04297 34.96094,17.85156 h 25.80078 c -3.26562,-7.82422 -8.05859,-15.00391 -14.23437,-21.17969 -12.42579,-12.42578 -28.95313,-19.27343 -46.52735,-19.27343 h -65.85937 c 0,12.48437 10.12109,22.60156 22.60156,22.60156 z m 0,0"
       fill-opacity="1"
       fill-rule="nonzero"
       id="path5" />
  </g>
  <g
     clip-path="url(#cee81e293c)"
     id="g6"
     transform="matrix(1.1883238,0,0,1.1883238,-71.480462,-127.30383)">
    <path
       fill="#ffffff"
       d="m 292.23828,172.93359 h -43.20312 c 0,12.53125 10.16015,22.6875 22.6875,22.6875 h 14.0625 c -7.6211,12.30078 -21.24219,20.51563 -36.7461,20.51563 -23.82422,0 -43.20312,-19.38281 -43.20312,-43.20313 h -22.60157 c 0,17.57813 6.84766,34.10157 19.27344,46.52735 12.42969,12.42968 28.95313,19.27343 46.52735,19.27343 17.57812,0 34.10156,-6.84375 46.53125,-19.27343 12.42968,-12.42578 19.26953,-28.95313 19.26953,-46.52735 z m 0,0"
       fill-opacity="1"
       fill-rule="nonzero"
       id="path6" />
  </g>
  <g
     clip-path="url(#f2154bfd55)"
     id="g7"
     transform="matrix(1.1883238,0,0,1.1883238,-71.480462,-127.30383)">
    <path
       fill="#ffffff"
       d="m 195.44141,161.23437 h 10.24218 v -11.54296 c 0,-6.05469 -4.90625,-10.96094 -10.96093,-10.96094 h -11.54297 v 10.24219 c 0,6.76953 5.49218,12.26171 12.26172,12.26171 z m 0,0"
       fill-opacity="1"
       fill-rule="nonzero"
       id="path7" />
  </g>
  <g
     clip-path="url(#b2cadeb6e9)"
     id="g8"
     transform="matrix(1.1883238,0,0,1.1883238,-71.480462,-127.30383)">
    <path
       fill="#ffffff"
       d="m 149.875,197.97656 40.04297,40.03516 c 0.13281,0.13281 0.16015,0.28515 0.0898,0.45703 -0.0703,0.17187 -0.19922,0.25781 -0.38281,0.26172 -20.58984,-0.38281 -38.84766,-6.6836 -54.77734,-18.91016 -4.14454,-3.17578 -9.37891,-7.98047 -15.69922,-14.41406 -9.21875,-9.375 -18.67578,-18.84766 -28.36719,-28.42188 -0.71875,-0.71484 -0.570312,-1.07812 0.441406,-1.08593 10.285154,-0.0859 20.902344,-0.0703 31.855474,0.043 5.36328,0.0547 9.52734,-0.52344 12.48828,-1.73047 17.40234,-7.08594 17.8125,-30.66016 0.59375,-38.44141 -2.47266,-1.12109 -5.9336,-1.67578 -10.39063,-1.67187 -11.77734,0.0234 -23.87109,0.0703 -36.289061,0.14843 -4.476563,0.0312 -8.25,-0.5 -11.328125,-1.58203 -10.695313,-3.76953 -17.621094,-13.45312 -18,-24.85547 -0.0039,-0.15234 0.04687,-0.28515 0.152344,-0.39453 0.105468,-0.10937 0.234374,-0.16406 0.386718,-0.16406 21.910156,0.12891 42.195314,0.11328 60.855474,-0.043 8.24999,-0.0703 14.50781,0.47266 18.77343,1.62891 25.4961,6.87109 41.15235,33.67968 33.55078,59.1875 -3.82812,12.85937 -11.80078,22.625 -23.91406,29.29687 -0.11719,0.0664 -0.1875,0.16797 -0.20703,0.30469 -0.0156,0.13672 0.0234,0.25391 0.125,0.35156 z m 0,0"
       fill-opacity="1"
       fill-rule="nonzero"
       id="path8" />
  </g>
  <g
     fill="#ffffff"
     fill-opacity="1"
     id="g11"
     transform="matrix(1.1883238,0,0,1.1883238,-71.480462,-127.30383)">
    <g
       transform="translate(123.00127,264.77356)"
       id="g10">
      <g
         id="g9">
        <path
           d="M 9.890625,0 H 7.234375 C 7.117188,-0.164062 7.035156,-0.378906 6.984375,-0.640625 6.941406,-0.847656 6.875,-1.046875 6.78125,-1.234375 6.695312,-1.429688 6.546875,-1.59375 6.328125,-1.71875 6.117188,-1.851562 5.804688,-1.925781 5.390625,-1.9375 H 3.5625 V 0 H 0.75 v -6.703125 h 4.5625 c 1.09375,0 1.972656,0.085937 2.640625,0.25 0.675781,0.167969 1.164063,0.429687 1.46875,0.78125 0.3125,0.34375 0.46875,0.796875 0.46875,1.359375 0,0.46875 -0.109375,0.867188 -0.328125,1.1875 -0.210938,0.324219 -0.542969,0.574219 -1,0.75 0.445312,0.1875 0.734375,0.414062 0.859375,0.671875 0.132813,0.25 0.21875,0.53125 0.25,0.84375 C 9.703125,-0.585938 9.773438,-0.300781 9.890625,0 Z M 3.5625,-3.59375 h 1.609375 c 0.445313,0 0.796875,-0.019531 1.046875,-0.0625 C 6.476562,-3.695312 6.671875,-3.75 6.796875,-3.8125 6.921875,-3.882812 7,-3.960938 7.03125,-4.046875 7.0625,-4.128906 7.078125,-4.21875 7.078125,-4.3125 7.078125,-4.40625 7.0625,-4.492188 7.03125,-4.578125 7,-4.671875 6.921875,-4.75 6.796875,-4.8125 6.671875,-4.882812 6.476562,-4.941406 6.21875,-4.984375 c -0.25,-0.039063 -0.601562,-0.0625 -1.046875,-0.0625 H 3.5625 Z m 0,0"
           id="path9" />
      </g>
    </g>
  </g>
  <g
     fill="#ffffff"
     fill-opacity="1"
     id="g14"
     transform="matrix(1.1883238,0,0,1.1883238,-71.480462,-127.30383)">
    <g
       transform="translate(134.31039,264.77356)"
       id="g13">
      <g
         id="g12">
        <path
           d="M 5.0625,0.140625 C 3.40625,0.140625 2.1875,-0.195312 1.40625,-0.875 0.71875,-1.476562 0.375,-2.300781 0.375,-3.34375 c 0,-1.039062 0.34375,-1.863281 1.03125,-2.46875 0.78125,-0.675781 2,-1.015625 3.65625,-1.015625 1.65625,0 2.875,0.339844 3.65625,1.015625 0.695312,0.605469 1.046875,1.429688 1.046875,2.46875 0,1.042969 -0.351563,1.867188 -1.046875,2.46875 -0.78125,0.679688 -2,1.015625 -3.65625,1.015625 z m 0,-1.796875 c 0.675781,0 1.175781,-0.191406 1.5,-0.578125 0.25,-0.3125 0.375,-0.679687 0.375,-1.109375 0,-0.425781 -0.125,-0.796875 -0.375,-1.109375 -0.324219,-0.394531 -0.824219,-0.59375 -1.5,-0.59375 -0.679688,0 -1.179688,0.199219 -1.5,0.59375 -0.25,0.3125 -0.375,0.683594 -0.375,1.109375 0,0.429688 0.125,0.796875 0.375,1.109375 0.320312,0.386719 0.820312,0.578125 1.5,0.578125 z m 0,0"
           id="path11" />
      </g>
    </g>
  </g>
  <g
     fill="#ffffff"
     fill-opacity="1"
     id="g17"
     transform="matrix(1.1883238,0,0,1.1883238,-71.480462,-127.30383)">
    <g
       transform="translate(145.48411,264.77356)"
       id="g16">
      <g
         id="g15">
        <path
           d="m 13.484375,0 h -2.8125 V -4.265625 L 8.15625,0 H 6.0625 l -2.5,-4.265625 V 0 H 0.75 v -6.703125 h 3.328125 l 3.03125,4.78125 3.03125,-4.78125 h 3.34375 z m 0,0"
           id="path14" />
      </g>
    </g>
  </g>
  <g
     fill="#ffffff"
     fill-opacity="1"
     id="g20"
     transform="matrix(1.1883238,0,0,1.1883238,-71.480462,-127.30383)">
    <g
       transform="translate(160.75712,264.77356)"
       id="g19">
      <g
         id="g18">
        <path
           d="M 11.25,0 H 8.40625 l -0.625,-1.09375 H 3.546875 L 2.921875,0 H 0.0625 L 4.359375,-6.703125 H 6.96875 Z M 6.828125,-2.75 5.65625,-4.78125 4.5,-2.75 Z m 0,0"
           id="path17" />
      </g>
    </g>
  </g>
  <g
     fill="#ffffff"
     fill-opacity="1"
     id="g23"
     transform="matrix(1.1883238,0,0,1.1883238,-71.480462,-127.30383)">
    <g
       transform="translate(173.12141,264.77356)"
       id="g22">
      <g
         id="g21">
        <path
           d="M 3.5625,0 H 0.75 v -6.703125 h 2.8125 z m 0,0"
           id="path20" />
      </g>
    </g>
  </g>
  <g
     fill="#ffffff"
     fill-opacity="1"
     id="g26"
     transform="matrix(1.1883238,0,0,1.1883238,-71.480462,-127.30383)">
    <g
       transform="translate(178.46837,264.77356)"
       id="g25">
      <g
         id="g24">
        <path
           d="M 10.6875,0 H 7.34375 L 3.5625,-4.53125 V 0 H 0.75 V -6.703125 H 4.09375 L 7.875,-2.1875 v -4.515625 h 2.8125 z m 0,0"
           id="path23" />
      </g>
    </g>
  </g>
  <g
     fill="#ffffff"
     fill-opacity="1"
     id="g29"
     transform="matrix(1.1883238,0,0,1.1883238,-71.480462,-127.30383)">
    <g
       transform="translate(190.94471,264.77356)"
       id="g28">
      <g
         id="g27" />
    </g>
  </g>
  <g
     fill="#ffffff"
     fill-opacity="1"
     id="g32"
     transform="matrix(1.1883238,0,0,1.1883238,-71.480462,-127.30383)">
    <g
       transform="translate(194.35875,264.77356)"
       id="g31">
      <g
         id="g30">
        <path
           d="M 5.0625,0.140625 C 3.40625,0.140625 2.1875,-0.195312 1.40625,-0.875 0.71875,-1.476562 0.375,-2.300781 0.375,-3.34375 c 0,-1.039062 0.34375,-1.863281 1.03125,-2.46875 0.78125,-0.675781 2,-1.015625 3.65625,-1.015625 0.945312,0 1.734375,0.105469 2.359375,0.3125 0.625,0.210937 1.113281,0.496094 1.46875,0.859375 0.351563,0.367188 0.597656,0.789062 0.734375,1.265625 H 6.609375 C 6.296875,-4.816406 5.78125,-5.03125 5.0625,-5.03125 c -0.679688,0 -1.179688,0.195312 -1.5,0.578125 -0.25,0.3125 -0.375,0.683594 -0.375,1.109375 0,0.429688 0.125,0.796875 0.375,1.109375 0.320312,0.386719 0.820312,0.578125 1.5,0.578125 0.550781,0 0.960938,-0.046875 1.234375,-0.140625 0.28125,-0.09375 0.484375,-0.21875 0.609375,-0.375 H 5.8125 V -3.34375 H 9.625 V 0 H 8.453125 L 8.21875,-0.640625 C 7.476562,-0.117188 6.425781,0.140625 5.0625,0.140625 Z m 0,0"
           id="path29" />
      </g>
    </g>
  </g>
  <g
     fill="#ffffff"
     fill-opacity="1"
     id="g35"
     transform="matrix(1.1883238,0,0,1.1883238,-71.480462,-127.30383)">
    <g
       transform="translate(205.58383,264.77356)"
       id="g34">
      <g
         id="g33">
        <path
           d="M 11.25,0 H 8.40625 l -0.625,-1.09375 H 3.546875 L 2.921875,0 H 0.0625 L 4.359375,-6.703125 H 6.96875 Z M 6.828125,-2.75 5.65625,-4.78125 4.5,-2.75 Z m 0,0"
           id="path32" />
      </g>
    </g>
  </g>
  <g
     fill="#ffffff"
     fill-opacity="1"
     id="g38"
     transform="matrix(1.1883238,0,0,1.1883238,-71.480462,-127.30383)">
    <g
       transform="translate(217.94812,264.77356)"
       id="g37">
      <g
         id="g36">
        <path
           d="M 6.53125,0 H 3.71875 V -3.171875 L 0.0625,-6.703125 h 3.125 l 1.9375,2 1.953125,-2 H 10.1875 l -3.65625,3.53125 z m 0,0"
           id="path35" />
      </g>
    </g>
  </g>
  <g
     fill="#ffffff"
     fill-opacity="1"
     id="g41"
     transform="matrix(1.1883238,0,0,1.1883238,-71.480462,-127.30383)">
    <g
       transform="translate(229.24791,264.77356)"
       id="g40">
      <g
         id="g39">
        <path
           d="M 9.890625,0 H 7.234375 C 7.117188,-0.164062 7.035156,-0.378906 6.984375,-0.640625 6.941406,-0.847656 6.875,-1.046875 6.78125,-1.234375 6.695312,-1.429688 6.546875,-1.59375 6.328125,-1.71875 6.117188,-1.851562 5.804688,-1.925781 5.390625,-1.9375 H 3.5625 V 0 H 0.75 v -6.703125 h 4.5625 c 1.09375,0 1.972656,0.085937 2.640625,0.25 0.675781,0.167969 1.164063,0.429687 1.46875,0.78125 0.3125,0.34375 0.46875,0.796875 0.46875,1.359375 0,0.46875 -0.109375,0.867188 -0.328125,1.1875 -0.210938,0.324219 -0.542969,0.574219 -1,0.75 0.445312,0.1875 0.734375,0.414062 0.859375,0.671875 0.132813,0.25 0.21875,0.53125 0.25,0.84375 C 9.703125,-0.585938 9.773438,-0.300781 9.890625,0 Z M 3.5625,-3.59375 h 1.609375 c 0.445313,0 0.796875,-0.019531 1.046875,-0.0625 C 6.476562,-3.695312 6.671875,-3.75 6.796875,-3.8125 6.921875,-3.882812 7,-3.960938 7.03125,-4.046875 7.0625,-4.128906 7.078125,-4.21875 7.078125,-4.3125 7.078125,-4.40625 7.0625,-4.492188 7.03125,-4.578125 7,-4.671875 6.921875,-4.75 6.796875,-4.8125 6.671875,-4.882812 6.476562,-4.941406 6.21875,-4.984375 c -0.25,-0.039063 -0.601562,-0.0625 -1.046875,-0.0625 H 3.5625 Z m 0,0"
           id="path38" />
      </g>
    </g>
  </g>
  <g
     fill="#ffffff"
     fill-opacity="1"
     id="g44"
     transform="matrix(1.1883238,0,0,1.1883238,-71.480462,-127.30383)">
    <g
       transform="translate(240.55703,264.77356)"
       id="g43">
      <g
         id="g42">
        <path
           d="M 11.25,0 H 8.40625 l -0.625,-1.09375 H 3.546875 L 2.921875,0 H 0.0625 L 4.359375,-6.703125 H 6.96875 Z M 6.828125,-2.75 5.65625,-4.78125 4.5,-2.75 Z m 0,0"
           id="path41" />
      </g>
    </g>
  </g>
  <g
     fill="#ffffff"
     fill-opacity="1"
     id="g47"
     transform="matrix(1.1883238,0,0,1.1883238,-71.480462,-127.30383)">
    <g
       transform="translate(252.92131,264.77356)"
       id="g46">
      <g
         id="g45">
        <path
           d="m 4.71875,0.140625 c -1.636719,0 -2.789062,-0.335937 -3.453125,-1.015625 -0.5625,-0.570312 -0.84375,-1.394531 -0.84375,-2.46875 v -3.359375 h 2.8125 v 3.359375 c 0,0.46875 0.078125,0.839844 0.234375,1.109375 0.226562,0.386719 0.644531,0.578125 1.25,0.578125 0.601562,0 1.015625,-0.191406 1.234375,-0.578125 0.164063,-0.28125 0.25,-0.648437 0.25,-1.109375 V -6.703125 H 9 V -3.3125 C 9,-2.257812 8.722656,-1.445312 8.171875,-0.875 7.503906,-0.195312 6.351562,0.140625 4.71875,0.140625 Z m 0,0"
           id="path44" />
      </g>
    </g>
  </g>
  <g
     fill="#ffffff"
     fill-opacity="1"
     id="g50"
     transform="matrix(1.1883238,0,0,1.1883238,-71.480462,-127.30383)">
    <g
       transform="translate(263.39004,264.77356)"
       id="g49">
      <g
         id="g48">
        <path
           d="M 5.234375,0 H 0.75 v -6.703125 h 4.484375 c 1.832031,0 3.148437,0.257813 3.953125,0.765625 0.644531,0.417969 1.015625,0.984375 1.109375,1.703125 0.03906,0.304687 0.0625,0.601563 0.0625,0.890625 0,0.28125 -0.02344,0.578125 -0.0625,0.890625 -0.04297,0.304687 -0.148437,0.601563 -0.3125,0.890625 C 9.816406,-1.269531 9.550781,-1.003906 9.1875,-0.765625 8.820312,-0.535156 8.316406,-0.347656 7.671875,-0.203125 7.035156,-0.0664062 6.222656,0 5.234375,0 Z M 4.96875,-1.65625 c 1.425781,0 2.234375,-0.359375 2.421875,-1.078125 0.050781,-0.207031 0.078125,-0.410156 0.078125,-0.609375 0,-0.207031 -0.027344,-0.410156 -0.078125,-0.609375 C 7.335938,-4.160156 7.226562,-4.34375 7.0625,-4.5 6.894531,-4.664062 6.644531,-4.796875 6.3125,-4.890625 5.976562,-4.992188 5.53125,-5.046875 4.96875,-5.046875 H 3.5625 v 3.390625 z m 0,0"
           id="path47" />
      </g>
    </g>
  </g>
</svg>
