<?xml version="1.0" encoding="UTF-8" standalone="no"?>
<svg
   version="1.1"
   viewBox="0 0 250.00001 115.8995"
   id="svg13"
   sodipodi:docname="PartenaireCrepuscule_SOREP.svg"
   width="250"
   height="115.8995"
   inkscape:version="1.3 (0e150ed6c4, 2023-07-21)"
   xmlns:inkscape="http://www.inkscape.org/namespaces/inkscape"
   xmlns:sodipodi="http://sodipodi.sourceforge.net/DTD/sodipodi-0.dtd"
   xmlns="http://www.w3.org/2000/svg"
   xmlns:svg="http://www.w3.org/2000/svg">
  <sodipodi:namedview
     id="namedview13"
     pagecolor="#505050"
     bordercolor="#eeeeee"
     borderopacity="1"
     inkscape:showpageshadow="0"
     inkscape:pageopacity="0"
     inkscape:pagecheckerboard="0"
     inkscape:deskcolor="#505050"
     inkscape:zoom="2.8681296"
     inkscape:cx="122.72807"
     inkscape:cy="57.005792"
     inkscape:window-width="1920"
     inkscape:window-height="1009"
     inkscape:window-x="-8"
     inkscape:window-y="-8"
     inkscape:window-maximized="1"
     inkscape:current-layer="svg13" />
  <defs
     id="defs1">
    <style
       id="style1">&#10;      .cls-1 {&#10;        fill: #fff;&#10;      }&#10;    </style>
  </defs>
  <!-- Generator: Adobe Illustrator 28.7.1, SVG Export Plug-In . SVG Version: 1.2.0 Build 142)  -->
  <g
     id="g13"
     transform="matrix(1.0180811,0,0,1.0180811,-19.292637,-86.351341)">
    <g
       id="Calque_1">
      <g
         id="g12">
        <g
           id="g3">
          <path
             class="cls-1"
             d="m 192.19,187.87 c 2.42,3.43 4.8,6.79 7.3,10.33 -1.64,0 -3.1,0 -4.55,0 -0.45,0 -0.61,-0.37 -0.82,-0.66 -1.89,-2.69 -3.79,-5.38 -5.67,-8.07 -0.28,-0.4 -0.52,-0.7 -1.1,-0.69 -2.69,0.05 -5.38,0.06 -8.06,0.03 -0.72,0 -0.9,0.21 -0.89,0.91 0.04,2.55 0,5.1 0.03,7.65 0,0.66 -0.19,0.9 -0.86,0.86 -0.87,-0.05 -1.75,-0.06 -2.62,0 -0.78,0.05 -1.05,-0.17 -1.03,-1 0.06,-2.25 0.02,-4.5 0.02,-6.75 0,-7.39 0.01,-14.77 -0.02,-22.16 0,-0.83 0.21,-1.07 1.05,-1.06 3.83,0.04 7.66,-0.03 11.49,0.03 3.14,0.05 6.09,0.72 8.73,2.6 5.19,3.7 5.45,14.35 -2.06,17.54 -0.28,0.12 -0.55,0.25 -0.94,0.43 z m -13.78,-9.84 c 0,2.08 0,4.16 0,6.24 0,0.37 -0.07,0.76 0.52,0.74 3.25,-0.1 6.53,0.3 9.75,-0.27 2.72,-0.48 4.82,-1.85 5.54,-4.73 1.07,-4.33 -1.08,-7.74 -5.47,-8.54 -3.26,-0.59 -6.57,-0.18 -9.85,-0.27 -0.6,-0.02 -0.49,0.44 -0.49,0.79 0,2.01 0,4.03 0,6.04 z"
             id="path1" />
          <path
             class="cls-1"
             d="m 219.88,198.55 c -6.57,-0.17 -11.86,-2.67 -14.8,-8.79 -4.53,-9.47 0.64,-21.68 13.19,-22.73 4.48,-0.38 8.62,0.53 12.15,3.49 1.38,1.16 1.38,1.18 0.08,2.4 -0.56,0.53 -1.09,1.38 -1.71,1.46 -0.51,0.06 -1.12,-0.83 -1.71,-1.26 -5,-3.64 -12.52,-2.69 -16.49,2.08 -3.87,4.66 -3.41,11.91 1.03,16.2 4.02,3.88 11.84,4.58 16.53,0.07 0.5,-0.48 0.79,-0.55 1.27,0 0.53,0.61 1.12,1.17 1.73,1.69 0.49,0.41 0.45,0.68 0.01,1.11 -2.25,2.23 -4.97,3.5 -8.06,4.04 -1.06,0.19 -2.13,0.25 -3.23,0.25 z"
             id="path2" />
          <path
             class="cls-1"
             d="m 232.99,167.28 c 1.46,0 2.83,0.04 4.21,-0.02 0.67,-0.03 0.74,0.45 0.92,0.86 3.26,7.42 6.52,14.85 9.78,22.27 0.29,0.66 0.59,1.33 0.96,2.16 0.81,-1.83 1.56,-3.5 2.3,-5.18 2.83,-6.4 5.67,-12.81 8.47,-19.22 0.3,-0.69 0.67,-0.94 1.42,-0.89 1.1,0.07 2.2,0.02 3.46,0.02 -0.55,1.27 -1.04,2.43 -1.54,3.59 -3.87,8.8 -7.75,17.6 -11.59,26.42 -0.3,0.68 -0.62,1 -1.4,0.94 -0.9,-0.07 -1.81,-0.04 -2.72,0 -0.49,0.02 -0.79,-0.11 -1,-0.6 -4.37,-9.97 -8.76,-19.93 -13.15,-29.9 -0.04,-0.09 -0.05,-0.19 -0.12,-0.43 z"
             id="path3" />
        </g>
        <g
           id="g11">
          <path
             class="cls-1"
             d="m 129.96,89.82 c 4.52,6.07 8.9,11.95 13.63,18.3 -4.25,0 -7.91,-0.09 -11.57,0.03 -2.41,0.08 -4.31,1.95 -4.12,3.97 0.23,2.32 1.66,3.61 4,3.79 1.05,0.08 2.11,0.07 3.17,0.07 4.93,0.03 9.86,-0.1 14.78,0.13 4.81,0.23 8.85,3.95 9.59,8.38 0.88,5.24 -1.7,10.08 -6.42,12.04 -0.72,0.3 -1.46,0.56 -2.51,0.97 2.03,2.72 3.95,5.29 6.02,8.08 -1.95,1.14 -3.67,2.14 -5.7,3.33 -4.49,-6 -8.95,-11.94 -13.8,-18.41 1.63,0 2.79,0 3.95,0 2.64,0 5.28,0.07 7.92,-0.03 2.25,-0.09 3.92,-1.83 3.91,-3.85 -0.01,-2.02 -1.7,-3.74 -3.96,-3.76 -5.63,-0.07 -11.27,0.03 -16.9,-0.05 -5.26,-0.07 -9.61,-3.61 -10.69,-8.53 -1.04,-4.74 1.41,-9.69 5.89,-11.83 0.86,-0.41 1.76,-0.74 3,-1.25 -1.96,-2.71 -3.83,-5.29 -5.83,-8.05 1.84,-1.09 3.56,-2.1 5.63,-3.32 z"
             id="path4" />
          <path
             class="cls-1"
             d="m 62.29,198.58 c -9.62,0 -16.87,-6.83 -16.87,-15.87 0,-9.03 7.27,-15.86 16.89,-15.86 9.6,0 16.89,6.86 16.88,15.88 0,9.03 -7.29,15.85 -16.9,15.85 z m 9.6,-15.88 c 0,-5.69 -3.91,-9.75 -9.47,-9.84 -5.61,-0.09 -9.7,4.07 -9.69,9.87 0,5.69 3.91,9.76 9.47,9.84 5.62,0.09 9.7,-4.07 9.7,-9.88 z"
             id="path5" />
          <path
             class="cls-1"
             d="m 101.28,188.29 c 2.24,3.22 4.34,6.24 6.79,9.75 -2.63,0 -4.84,0.06 -7.05,-0.05 -0.47,-0.02 -0.99,-0.64 -1.34,-1.1 -0.76,-0.97 -1.61,-1.93 -2.09,-3.04 -1.83,-4.27 -5.14,-5.02 -9.55,-4 v 8.05 h -7.02 v -30.78 c 6.01,0.29 12.08,0.18 18.02,0.99 4.35,0.59 7.42,3.51 8.23,8.15 0.93,5.29 -0.9,9.31 -6,12.02 z m -13.16,-4.52 c 2.53,0 4.91,0.14 7.27,-0.03 3.09,-0.23 4.93,-2.26 4.97,-5.12 0.04,-2.87 -1.71,-4.98 -4.8,-5.29 -2.42,-0.24 -4.88,-0.05 -7.43,-0.05 v 10.49 z"
             id="path6" />
          <path
             class="cls-1"
             d="m 122.08,94.13 c 1.19,1.65 2.25,3.12 3.45,4.76 -2.85,1.64 -5.47,3.22 -8.17,4.68 -1.84,0.99 -2.61,2.44 -2.6,4.49 0.03,7.66 0.03,15.32 0,22.98 0,2.05 0.76,3.47 2.59,4.5 6.73,3.81 13.43,7.68 20.11,11.57 1.78,1.04 3.46,1.09 5.2,0 0.8,-0.51 1.66,-0.94 2.71,-1.53 1.13,1.52 2.21,2.97 3.49,4.7 -2.27,1.28 -4.26,2.87 -6.53,3.55 -1.67,0.5 -4.01,0.36 -5.52,-0.46 -8.26,-4.49 -16.35,-9.3 -24.51,-13.97 -2.28,-1.31 -3.39,-3.29 -3.4,-5.85 -0.03,-9.33 -0.03,-18.67 0,-28 0,-2.45 1.05,-4.43 3.22,-5.69 3.19,-1.86 6.39,-3.68 9.95,-5.72 z"
             id="path7" />
          <path
             class="cls-1"
             d="m 135.55,93.34 c -1.31,-1.75 -2.35,-3.15 -3.39,-4.54 6.04,-4.81 8.31,-5.02 13.36,-1.93 7.05,4.3 14.26,8.33 21.47,12.36 2.93,1.63 4.28,3.88 4.24,7.25 -0.09,8.8 -0.07,17.6 0,26.4 0.02,3.13 -1.19,5.37 -3.97,6.86 -2.78,1.5 -5.49,3.12 -8.48,4.83 -1.12,-1.48 -2.22,-2.92 -3.56,-4.68 2.48,-1.43 4.83,-2.89 7.27,-4.18 2.02,-1.06 2.9,-2.57 2.88,-4.87 -0.07,-7.48 -0.08,-14.96 0,-22.44 0.03,-2.41 -0.92,-3.9 -3.01,-5.06 -5.84,-3.24 -11.66,-6.52 -17.35,-10 -3.17,-1.94 -6.1,-3.25 -9.47,0.01 z"
             id="path8" />
          <path
             class="cls-1"
             d="m 130.36,185.32 h -13.88 v 6.94 h 16.5 v 5.65 h -23.54 v -30.33 h 22.96 v 5.43 h -15.93 v 6.67 h 13.89 z"
             id="path9" />
          <path
             class="cls-1"
             d="m 141.95,197.92 h -7.01 v -30.76 c 5.95,0.26 11.93,0.11 17.79,0.9 5.53,0.74 8.82,5.27 8.77,10.58 -0.06,5.24 -3.28,9.35 -8.73,10.37 -3.42,0.65 -6.98,0.6 -10.81,0.89 v 8.03 z m 0.09,-14.17 c 2.5,0 4.87,0.14 7.22,-0.03 3.13,-0.23 4.97,-2.21 5.04,-5.06 0.07,-2.94 -1.8,-5.09 -5.02,-5.37 -2.35,-0.2 -4.72,-0.04 -7.24,-0.04 z"
             id="path10" />
          <path
             class="cls-1"
             d="m 18.95,195.22 c 0.85,-1.88 1.6,-3.53 2.08,-4.59 3.91,0.79 7.47,1.54 11.05,2.19 0.75,0.14 1.74,0.14 2.32,-0.25 1.14,-0.77 2.59,-1.71 2.88,-2.85 0.18,-0.7 -1.37,-2.33 -2.45,-2.76 -2.43,-0.98 -5.05,-1.45 -7.59,-2.17 -6.18,-1.75 -8.85,-5.86 -7.19,-11.05 0.96,-3.01 3.19,-4.77 6.05,-5.81 5.22,-1.89 11.84,-1.26 17.11,1.74 -0.65,1.61 -1.32,3.26 -1.9,4.69 -3.13,-0.6 -6.07,-1.25 -9.05,-1.68 -0.99,-0.14 -2.25,0 -3.05,0.51 -0.99,0.64 -2.25,1.8 -2.26,2.75 -0.02,0.93 1.21,2.33 2.21,2.72 2.35,0.93 4.88,1.4 7.35,2.05 6,1.57 8.57,4.72 7.92,9.7 -0.43,3.3 -2.4,5.49 -5.33,6.68 -6.94,2.82 -13.55,1.62 -20.14,-1.86 z"
             id="path11" />
        </g>
      </g>
    </g>
  </g>
</svg>
