<?xml version="1.0" encoding="UTF-8" standalone="no"?>
<svg
   version="1.1"
   viewBox="0 0 250.00001 188.12453"
   id="svg1"
   sodipodi:docname="PartenaireCrepuscule_ALBI.svg"
   width="250"
   height="188.12453"
   inkscape:version="1.3 (0e150ed6c4, 2023-07-21)"
   xmlns:inkscape="http://www.inkscape.org/namespaces/inkscape"
   xmlns:sodipodi="http://sodipodi.sourceforge.net/DTD/sodipodi-0.dtd"
   xmlns="http://www.w3.org/2000/svg"
   xmlns:svg="http://www.w3.org/2000/svg">
  <sodipodi:namedview
     id="namedview1"
     pagecolor="#505050"
     bordercolor="#eeeeee"
     borderopacity="1"
     inkscape:showpageshadow="0"
     inkscape:pageopacity="0"
     inkscape:pagecheckerboard="0"
     inkscape:deskcolor="#505050"
     inkscape:zoom="2.8681296"
     inkscape:cx="99.019234"
     inkscape:cy="74.787415"
     inkscape:window-width="1920"
     inkscape:window-height="1009"
     inkscape:window-x="-8"
     inkscape:window-y="-8"
     inkscape:window-maximized="1"
     inkscape:current-layer="svg1" />
  <defs
     id="defs1">
    <style
       id="style1">&#10;      .cls-1 {&#10;        fill: #fff;&#10;      }&#10;    </style>
  </defs>
  <!-- Generator: Adobe Illustrator 28.7.1, SVG Export Plug-In . SVG Version: 1.2.0 Build 142)  -->
  <g
     id="g1"
     transform="matrix(1.2598729,0,0,1.2598729,-53.569796,-84.499367)">
    <g
       id="Calque_1">
      <path
         id="path1185"
         class="cls-1"
         d="m 82.42,216.06 c 0.23,-0.23 0.31,-2.69 0.31,-9.44 0,-5.02 0.06,-9.07 0.13,-9 0.07,0.07 1.19,4.23 2.5,9.24 1.3,5.01 2.51,9.2 2.68,9.31 0.17,0.11 1.58,0.2 3.12,0.2 2.67,0 2.83,-0.03 3.07,-0.58 0.14,-0.32 1.2,-4.52 2.36,-9.33 1.16,-4.81 2.15,-8.79 2.22,-8.85 0.07,-0.06 0.11,3.99 0.11,9.02 0,6.75 0.08,9.21 0.31,9.44 0.17,0.17 0.99,0.31 1.82,0.31 1.22,0 1.56,-0.1 1.78,-0.5 0.17,-0.32 0.27,-4.14 0.27,-10.59 0,-6.45 -0.1,-10.27 -0.27,-10.59 -0.25,-0.46 -0.58,-0.5 -3.65,-0.5 -3.07,0 -3.41,0.06 -3.62,0.46 -0.13,0.25 -1.21,4.45 -2.39,9.33 -1.18,4.88 -2.19,8.93 -2.25,8.99 -0.06,0.06 -0.15,0.06 -0.21,0 -0.06,-0.06 -1.07,-4.1 -2.24,-8.97 -1.17,-4.88 -2.25,-9.08 -2.38,-9.33 -0.22,-0.41 -0.65,-0.47 -3.63,-0.47 -2.98,0 -3.4,0.05 -3.65,0.5 -0.17,0.32 -0.27,4.14 -0.27,10.59 0,6.45 0.1,10.27 0.27,10.59 0.22,0.41 0.55,0.5 1.78,0.5 0.83,0 1.65,-0.14 1.82,-0.31 v 0 z m 32.5,-0.28 c 0.19,-0.32 0.69,-2.03 1.1,-3.79 l 0.75,-3.21 3.26,0.07 3.26,0.07 0.81,3.39 c 0.45,1.87 0.9,3.54 1.02,3.72 0.13,0.21 0.82,0.33 1.87,0.33 1.33,0 1.72,-0.09 1.9,-0.46 0.16,-0.32 -0.59,-3.56 -2.5,-10.77 -1.5,-5.67 -2.85,-10.46 -3,-10.64 -0.4,-0.49 -6.69,-0.46 -6.88,0.03 -0.08,0.2 -1.35,4.98 -2.83,10.64 -1.89,7.24 -2.62,10.42 -2.46,10.74 0.18,0.36 0.57,0.46 1.79,0.46 1.33,0 1.6,-0.08 1.91,-0.59 v 0 z m 2.79,-10.61 c 0,-0.25 1.14,-5.18 1.59,-6.88 0.18,-0.67 0.41,-0.98 0.73,-0.98 0.39,0 0.62,0.6 1.3,3.46 0.46,1.9 0.9,3.72 0.98,4.05 0.15,0.58 0.11,0.59 -2.23,0.59 -1.31,0 -2.38,-0.11 -2.38,-0.24 v 0 z m 38.35,10.85 c 0.41,-0.5 5.71,-20.83 5.57,-21.38 -0.1,-0.38 -0.42,-0.46 -1.88,-0.46 -1.09,0 -1.87,0.12 -2.04,0.33 -0.15,0.18 -1.22,4.37 -2.38,9.32 -1.97,8.38 -2.38,9.76 -2.78,9.35 -0.09,-0.09 -1.1,-4.25 -2.26,-9.25 -1.16,-5 -2.22,-9.24 -2.36,-9.42 -0.16,-0.21 -0.93,-0.33 -2.06,-0.33 -2.23,0 -2.31,0.14 -1.57,2.83 0.3,1.1 1.55,5.81 2.78,10.47 1.23,4.66 2.38,8.56 2.56,8.68 0.59,0.37 6.1,0.26 6.43,-0.14 v 0 z m 17.65,-10.75 V 194.3 l -1.69,-0.08 c -1.37,-0.06 -1.75,0 -2.02,0.38 -0.43,0.59 -0.49,20.47 -0.06,21.27 0.24,0.45 0.5,0.51 2.02,0.44 l 1.75,-0.08 v -10.97 z m 23.06,9.67 c 0.12,-1.9 -0.05,-1.97 -4.96,-1.97 h -4.13 v -8.96 c 0,-6.85 -0.08,-9.06 -0.33,-9.41 -0.27,-0.37 -0.66,-0.44 -2.02,-0.38 l -1.69,0.08 -0.07,10.82 c -0.05,8.48 0,10.86 0.26,11.03 0.18,0.12 3.15,0.18 6.6,0.15 l 6.27,-0.06 0.08,-1.3 z m 21.66,-0.17 c 0.1,-1.83 0.22,-1.79 -5.1,-1.79 h -3.98 v -9.09 c 0,-6.72 -0.08,-9.17 -0.31,-9.4 -0.49,-0.49 -3.51,-0.41 -3.71,0.1 -0.09,0.23 -0.16,5.08 -0.16,10.78 0,7.8 0.08,10.45 0.32,10.69 0.24,0.24 1.93,0.3 6.59,0.25 l 6.27,-0.07 z m 22.2,1.29 c 0.17,-0.17 0.31,-0.81 0.31,-1.43 0,-0.83 -0.13,-1.18 -0.5,-1.38 -0.29,-0.16 -2.39,-0.27 -4.96,-0.27 h -4.46 v -6.79 h 4.26 c 2.96,0 4.35,-0.1 4.57,-0.31 0.36,-0.36 0.41,-1.99 0.09,-2.51 -0.16,-0.25 -1.3,-0.35 -4.5,-0.39 l -4.28,-0.05 v -5.48 l 4.69,-0.07 c 5.06,-0.08 5.09,-0.09 5.1,-1.54 0,-1.73 0.35,-1.65 -6.89,-1.65 -4.77,0 -6.66,0.09 -6.89,0.31 -0.45,0.45 -0.45,21.11 0,21.56 0.23,0.23 2.09,0.31 6.74,0.31 4.65,0 6.51,-0.09 6.74,-0.31 v 0 z M 50.24,211.02 c 2.65,-0.79 4.29,-2.97 4.29,-5.71 0,-3.16 -1.99,-5.51 -5.11,-6.03 -3.32,-0.55 -6.9,2.53 -6.9,5.94 0,2.67 2.13,5.28 4.83,5.94 1.19,0.29 1.5,0.28 2.89,-0.14 z m 4.21,-28.66 c 0.12,-0.18 0.29,-2.44 0.38,-5.03 0.13,-3.66 0.29,-5.13 0.73,-6.64 2.95,-10.15 11.53,-17.3 21.91,-18.26 1.32,-0.12 2.48,-0.31 2.59,-0.41 0.24,-0.24 0.41,-9.65 0.19,-10.78 -0.21,-1.13 -0.81,-1.25 -4.27,-0.87 -7.49,0.83 -14.4,3.73 -19.85,8.33 l -1.4,1.18 0.12,-5.2 c 0.14,-5.98 0.46,-7.49 2.43,-11.49 3.07,-6.23 8.76,-10.98 15.65,-13.07 2.13,-0.64 2.75,-0.71 6.66,-0.73 3.72,-0.02 4.61,0.06 6.51,0.58 8.86,2.42 15.71,9.37 18.08,18.35 0.57,2.16 0.58,2.52 0.67,23.07 0.07,15.82 0.17,20.93 0.41,21.08 0.17,0.11 2.74,0.2 5.7,0.2 4.3,0 5.45,-0.07 5.69,-0.36 0.23,-0.27 0.28,-5.81 0.21,-21.86 -0.1,-23.83 0,-22.38 -1.91,-28.12 -4.22,-12.7 -15.43,-22.32 -28.83,-24.73 -3.35,-0.61 -9.51,-0.61 -12.66,0 -7.59,1.44 -13.9,4.65 -19.25,9.79 -5.65,5.43 -9.17,11.71 -10.95,19.56 -0.56,2.48 -0.58,3.01 -0.67,23.77 -0.07,15.97 -0.02,21.33 0.21,21.6 0.42,0.51 11.32,0.55 11.65,0.04 z m 152.28,-0.41 c 8,-2.46 13.63,-8.56 15.27,-16.55 1.05,-5.1 0,-10.67 -2.9,-15.31 -2.24,-3.59 -6.37,-7.02 -10.14,-8.43 -0.86,-0.32 -1.6,-0.6 -1.64,-0.63 -0.04,-0.02 0.23,-0.69 0.59,-1.48 1.81,-3.95 2.29,-9.46 1.2,-13.66 -2,-7.68 -7.71,-13.4 -15.55,-15.59 -2.07,-0.58 -2.26,-0.58 -20.49,-0.59 -17.12,0 -18.49,0.02 -19.63,0.46 -1.49,0.57 -3.21,2.37 -3.59,3.74 -0.19,0.67 -0.28,7.38 -0.28,20.23 v 19.22 c 0,0 0.73,1.4 0.73,1.4 1.77,3.39 5.93,4.31 8.96,1.99 0.6,-0.46 1.34,-1.31 1.64,-1.89 0.53,-1.02 0.55,-1.4 0.62,-17.05 l 0.07,-16 14.68,0.08 14.68,0.08 1.51,0.76 c 1.79,0.91 3.64,2.79 4.43,4.52 0.45,0.99 0.57,1.74 0.58,3.72 0,2.24 -0.07,2.63 -0.75,3.99 -0.93,1.84 -2.56,3.39 -4.54,4.32 -1.47,0.69 -1.54,0.7 -8.92,0.83 l -7.44,0.13 v 11.75 l 13.58,0.14 c 13.55,0.14 13.58,0.14 15.14,0.76 2.15,0.86 4.28,3 5.08,5.11 1.73,4.58 -0.22,9.51 -4.63,11.67 l -1.74,0.86 h -26.63 c 0,0 -26.63,0 -26.63,0 l -2.09,-0.58 c -6.4,-1.79 -9.92,-5.23 -11.69,-11.46 l -0.58,-2.05 -0.13,-44.46 c -0.12,-39.13 -0.18,-44.49 -0.52,-44.71 -0.23,-0.15 -2.59,-0.23 -5.82,-0.19 -4.49,0.06 -5.47,0.14 -5.67,0.46 -0.36,0.57 -0.34,84.11 0.03,87.97 1.13,12.08 7.29,20.88 17.34,24.8 2.38,0.93 6.44,1.94 8.75,2.19 0.5,0.05 13.13,0.08 28.07,0.07 l 27.15,-0.03 1.94,-0.6 z m 33.01,0.58 c 0.37,-0.14 0.41,-3.39 0.41,-34.15 v -33.99 l -0.67,-1.35 c -2.32,-4.66 -8.91,-4.32 -10.95,0.57 -0.33,0.79 -0.38,5.53 -0.38,34.69 0,25.91 0.07,33.84 0.31,34.08 0.33,0.33 10.46,0.47 11.28,0.15 z m -3.56,-80.13 c 2.8,-1.17 4.3,-4.48 3.34,-7.37 -1.02,-3.06 -4.27,-4.83 -7.31,-3.98 -4.04,1.13 -5.73,6.14 -3.19,9.46 1.61,2.1 4.7,2.92 7.16,1.89 z" />
    </g>
  </g>
</svg>
