{
	"asset":{
		"version":"2.0",
		"generator":"Maxon Cinema 4D 2023.2.2 (#200000219)"
	},
	"scenes":[{
		"nodes":[0]
	}],
	"nodes":[{
		"name":"Booléen",
		"children":[1,
		2,
		3,
		4]
	},
	{
		"name":"Booléen-Mat",
		"mesh":0
	},
	{
		"name":"Booléen-Mat.2",
		"mesh":1
	},
	{
		"name":"Booléen-Mat.1",
		"mesh":2
	},
	{
		"name":"Booléen-Mat.3",
		"mesh":3
	}],
	"meshes":[{
		"name":"Booléen-Mat",
		"primitives":[{
			"attributes":{
				"POSITION":1,
				"NORMAL":2,
				"TEXCOORD_0":3
			},
			"indices":0,
			"material":0
		}]
	},
	{
		"name":"Booléen-Mat.2",
		"primitives":[{
			"attributes":{
				"POSITION":5,
				"NORMAL":6,
				"TEXCOORD_0":7
			},
			"indices":4,
			"material":1
		}]
	},
	{
		"name":"Booléen-Mat.1",
		"primitives":[{
			"attributes":{
				"POSITION":9,
				"NORMAL":10,
				"TEXCOORD_0":11
			},
			"indices":8,
			"material":2
		}]
	},
	{
		"name":"Booléen-Mat.3",
		"primitives":[{
			"attributes":{
				"POSITION":13,
				"NORMAL":14,
				"TEXCOORD_0":15
			},
			"indices":12,
			"material":3
		}]
	}],
	"accessors":[{
		"bufferView":0,
		"max":[206],
		"type":"SCALAR",
		"componentType":5123,
		"count":327,
		"byteOffset":0,
		"min":[0]
	},
	{
		"bufferView":1,
		"max":[1.0,
		1.0,
		1.0],
		"type":"VEC3",
		"componentType":5126,
		"count":207,
		"byteOffset":0,
		"min":[-1.0,
		-1.0,
		-1.0]
	},
	{
		"bufferView":1,
		"max":[0.9378639459609985,
		0.9450063109397888,
		0.9378639459609985],
		"type":"VEC3",
		"componentType":5126,
		"count":207,
		"byteOffset":12,
		"min":[-0.9378639459609985,
		-0.9450063109397888,
		-0.9378639459609985]
	},
	{
		"bufferView":1,
		"max":[1.0,
		1.0],
		"type":"VEC2",
		"componentType":5126,
		"count":207,
		"byteOffset":24,
		"min":[0.0,
		0.0]
	},
	{
		"bufferView":2,
		"max":[21],
		"type":"SCALAR",
		"componentType":5123,
		"count":30,
		"byteOffset":0,
		"min":[0]
	},
	{
		"bufferView":3,
		"max":[1.0,
		1.0,
		1.0],
		"type":"VEC3",
		"componentType":5126,
		"count":22,
		"byteOffset":0,
		"min":[-1.0,
		-1.0,
		-1.0]
	},
	{
		"bufferView":3,
		"max":[0.9984256029129028,
		0.9996398091316223,
		0.9980766773223877],
		"type":"VEC3",
		"componentType":5126,
		"count":22,
		"byteOffset":12,
		"min":[-0.9984256029129028,
		-0.9996398091316223,
		-0.9980766773223877]
	},
	{
		"bufferView":3,
		"max":[0.8205000162124634,
		0.8204998970031738],
		"type":"VEC2",
		"componentType":5126,
		"count":22,
		"byteOffset":24,
		"min":[0.17949999868869782,
		0.17949998378753663]
	},
	{
		"bufferView":4,
		"max":[342],
		"type":"SCALAR",
		"componentType":5123,
		"count":705,
		"byteOffset":0,
		"min":[0]
	},
	{
		"bufferView":5,
		"max":[1.0,
		1.0,
		1.0],
		"type":"VEC3",
		"componentType":5126,
		"count":343,
		"byteOffset":0,
		"min":[-1.0,
		-1.0,
		-1.0]
	},
	{
		"bufferView":5,
		"max":[0.9984257221221924,
		0.9996406435966492,
		0.9980799555778503],
		"type":"VEC3",
		"componentType":5126,
		"count":343,
		"byteOffset":12,
		"min":[-0.9984257221221924,
		-0.9996406435966492,
		-0.9980799555778503]
	},
	{
		"bufferView":5,
		"max":[1.0,
		1.0],
		"type":"VEC2",
		"componentType":5126,
		"count":343,
		"byteOffset":24,
		"min":[0.0,
		0.0]
	},
	{
		"bufferView":6,
		"max":[241],
		"type":"SCALAR",
		"componentType":5123,
		"count":657,
		"byteOffset":0,
		"min":[0]
	},
	{
		"bufferView":7,
		"max":[1.0,
		1.0,
		1.0],
		"type":"VEC3",
		"componentType":5126,
		"count":242,
		"byteOffset":0,
		"min":[-1.0,
		-1.0,
		-1.0]
	},
	{
		"bufferView":7,
		"max":[1.0,
		1.0,
		1.0],
		"type":"VEC3",
		"componentType":5126,
		"count":242,
		"byteOffset":12,
		"min":[-1.0,
		-1.0,
		-1.0]
	},
	{
		"bufferView":7,
		"max":[1.0,
		1.0],
		"type":"VEC2",
		"componentType":5126,
		"count":242,
		"byteOffset":24,
		"min":[0.0,
		0.0]
	}],
	"bufferViews":[{
		"buffer":0,
		"byteOffset":0,
		"target":34963,
		"byteLength":654
	},
	{
		"buffer":0,
		"byteOffset":656,
		"target":34962,
		"byteLength":6624,
		"byteStride":32
	},
	{
		"buffer":1,
		"byteOffset":0,
		"target":34963,
		"byteLength":60
	},
	{
		"buffer":1,
		"byteOffset":60,
		"target":34962,
		"byteLength":704,
		"byteStride":32
	},
	{
		"buffer":2,
		"byteOffset":0,
		"target":34963,
		"byteLength":1410
	},
	{
		"buffer":2,
		"byteOffset":1412,
		"target":34962,
		"byteLength":10976,
		"byteStride":32
	},
	{
		"buffer":3,
		"byteOffset":0,
		"target":34963,
		"byteLength":1314
	},
	{
		"buffer":3,
		"byteOffset":1316,
		"target":34962,
		"byteLength":7744,
		"byteStride":32
	}],
	"buffers":[{
		"uri":"data:application/octet-stream;base64,",
		"byteLength":7280
	},
	{
		"uri":"data:application/octet-stream;base64,",
		"byteLength":764
	},
	{
		"uri":"data:application/octet-stream;base64,",
		"byteLength":12388
	},
	{
		"uri":"data:application/octet-stream;base64,",
		"byteLength":9060
	}],
	"materials":[{
		"pbrMetallicRoughness":{
			"baseColorFactor":[1.0,
			0.28,
			0.9760000000000001,
			1.0],
			"metallicFactor":0.0,
			"roughnessFactor":0.5
		},
		"emissiveFactor":[0.0,
		0.0,
		0.0],
		"alphaMode":"OPAQUE",
		"doubleSided":false,
		"name":"Mat"
	},
	{
		"pbrMetallicRoughness":{
			"baseColorFactor":[0.5251798561151079,
			0.5251798561151079,
			0.5251798561151079,
			1.0],
			"metallicFactor":0.0,
			"roughnessFactor":0.5
		},
		"emissiveFactor":[0.0,
		0.0,
		0.0],
		"alphaMode":"OPAQUE",
		"doubleSided":false,
		"name":"Mat.2"
	},
	{
		"pbrMetallicRoughness":{
			"baseColorFactor":[0.8,
			0.8,
			0.8,
			1.0],
			"metallicFactor":0.0,
			"roughnessFactor":0.37
		},
		"emissiveFactor":[0.0,
		0.0,
		0.0],
		"alphaMode":"OPAQUE",
		"doubleSided":false,
		"name":"Mat.1"
	},
	{
		"pbrMetallicRoughness":{
			"baseColorFactor":[0.8,
			0.8,
			0.8,
			1.0],
			"metallicFactor":0.0,
			"roughnessFactor":0.37
		},
		"emissiveFactor":[0.0,
		0.0,
		0.0],
		"alphaMode":"OPAQUE",
		"doubleSided":false,
		"name":"Mat.3"
	}]
}